<svg width="307" height="218" viewBox="0 0 307 218" fill="none" xmlns="http://www.w3.org/2000/svg">
<path d="M43.4239 194.931C101.326 225.178 195.196 225.178 253.091 194.931C310.987 164.685 310.993 115.642 253.091 85.3949C195.189 55.1482 101.319 55.1482 43.4239 85.3949C-14.4712 115.642 -14.4781 164.685 43.4239 194.931Z" fill="#FAFAFA"/>
<path d="M182.398 153.98C168.778 161.837 168.778 174.587 182.398 182.451C196.019 190.315 218.09 190.315 231.711 182.451C245.331 174.587 245.324 161.837 231.711 153.98C218.097 146.123 196.012 146.116 182.398 153.98Z" fill="#EBEBEB"/>
<path d="M38.9944 41.2722L75.4811 29.9254L47.4112 49.3712L38.9944 41.2722Z" fill="#92E3A9"/>
<path d="M75.4811 29.9254L36.1818 36.4073L27.765 28.3015L75.4811 29.9254Z" fill="#92E3A9"/>
<path d="M36.1818 36.4073V46.1302L38.9943 41.2722L75.481 29.9254L36.1818 36.4073Z" fill="#455A64"/>
<path d="M36.1818 46.1302L41.7999 43.9742L38.9943 41.2722L36.1818 46.1302Z" fill="#92E3A9"/>
<path d="M38.9944 41.2722L41.8 43.9742L40.9016 44.3128L38.9944 41.2722Z" fill="#455A64"/>
<path d="M30.1353 44.6652C30.0191 44.6674 29.9055 44.6304 29.8129 44.5603C29.7202 44.4902 29.6538 44.391 29.6243 44.2786C29.5948 44.1662 29.6039 44.0471 29.6502 43.9405C29.6965 43.8339 29.7773 43.746 29.8796 43.6908C30.5015 43.3453 31.1304 42.9998 31.7523 42.7303C31.814 42.6969 31.8818 42.6764 31.9516 42.67C32.0214 42.6636 32.0918 42.6715 32.1585 42.6931C32.2252 42.7147 32.2869 42.7496 32.3397 42.7957C32.3925 42.8418 32.4354 42.8981 32.4659 42.9613C32.4963 43.0245 32.5136 43.0932 32.5167 43.1632C32.5198 43.2333 32.5086 43.3032 32.4839 43.3688C32.4592 43.4345 32.4214 43.4944 32.3729 43.545C32.3243 43.5956 32.266 43.6358 32.2015 43.6632C31.6003 43.9534 30.9852 44.2644 30.384 44.603C30.3071 44.643 30.2219 44.6643 30.1353 44.6652Z" fill="#E0E0E0"/>
<path d="M23.757 100.473C23.6511 100.474 23.5474 100.443 23.4598 100.384C22.336 99.5913 21.2712 98.7182 20.2741 97.7714C20.211 97.7304 20.1575 97.6761 20.1174 97.6123C20.0773 97.5485 20.0517 97.4767 20.0422 97.402C20.0327 97.3272 20.0396 97.2513 20.0624 97.1795C20.0853 97.1077 20.1235 97.0418 20.1744 96.9863C20.2253 96.9308 20.2878 96.887 20.3573 96.8581C20.4269 96.8292 20.5019 96.8158 20.5772 96.8188C20.6525 96.8218 20.7262 96.8412 20.7932 96.8757C20.8602 96.9101 20.9189 96.9587 20.9652 97.0182C21.9269 97.9311 22.9548 98.7719 24.0403 99.5335C24.1298 99.5975 24.1965 99.6883 24.231 99.7928C24.2654 99.8973 24.2657 100.01 24.2319 100.115C24.198 100.219 24.1317 100.31 24.0426 100.375C23.9535 100.439 23.8462 100.474 23.7362 100.473H23.757ZM18.3392 95.4426C18.2627 95.4435 18.187 95.4272 18.1176 95.3949C18.0483 95.3626 17.987 95.3151 17.9384 95.256C17.0677 94.1933 16.2755 93.0685 15.5682 91.8907C15.4967 91.7725 15.4751 91.6307 15.5082 91.4966C15.5412 91.3624 15.6262 91.2469 15.7444 91.1754C15.8626 91.104 16.0044 91.0824 16.1385 91.1154C16.2726 91.1485 16.3881 91.2334 16.4596 91.3517C17.141 92.4875 17.9031 93.5729 18.74 94.5995C18.8264 94.7052 18.8675 94.8407 18.8546 94.9765C18.8416 95.1124 18.7757 95.2376 18.6709 95.3251C18.5784 95.4034 18.4604 95.4451 18.3392 95.4426ZM14.4487 89.1542C14.3483 89.1551 14.2498 89.1269 14.1652 89.0729C14.0805 89.0189 14.0134 88.9415 13.9719 88.8501C13.4072 87.5991 12.9225 86.3135 12.5207 85.001C12.4912 84.8733 12.5112 84.7392 12.5766 84.6257C12.642 84.5121 12.748 84.4276 12.8733 84.3891C12.9985 84.3505 13.1337 84.3609 13.2517 84.418C13.3696 84.4751 13.4615 84.5748 13.5089 84.697C13.8909 85.9663 14.3525 87.2104 14.891 88.4217C14.9199 88.4838 14.9363 88.551 14.9391 88.6195C14.9419 88.6879 14.9311 88.7563 14.9073 88.8205C14.8835 88.8848 14.8472 88.9437 14.8006 88.9939C14.7539 89.044 14.6977 89.0844 14.6353 89.1127C14.5765 89.1388 14.513 89.1529 14.4487 89.1542ZM12.2028 82.0987C12.083 82.0976 11.9672 82.055 11.8752 81.9781C11.7832 81.9013 11.7207 81.7949 11.6984 81.6771C11.4346 80.3345 11.2477 78.9778 11.1386 77.6138C11.1276 77.4764 11.1717 77.3402 11.2611 77.2352C11.3505 77.1303 11.478 77.0651 11.6154 77.0541C11.7529 77.0431 11.8891 77.0872 11.9941 77.1766C12.099 77.266 12.1642 77.3935 12.1752 77.5309C12.2768 78.8557 12.4568 80.1733 12.7142 81.4767C12.7282 81.5435 12.7288 81.6124 12.7158 81.6794C12.7028 81.7464 12.6765 81.8101 12.6385 81.8667C12.6005 81.9234 12.5516 81.9719 12.4945 82.0094C12.4375 82.0468 12.3736 82.0725 12.3065 82.0849L12.2028 82.0987ZM11.5463 74.7184C11.478 74.7184 11.4104 74.7048 11.3474 74.6782C11.2844 74.6516 11.2274 74.6127 11.1798 74.5638C11.1321 74.5148 11.0947 74.4568 11.0699 74.3932C11.045 74.3295 11.0331 74.2615 11.035 74.1932C11.0511 72.8255 11.1434 71.4597 11.3114 70.1023C11.3122 70.0294 11.3283 69.9575 11.3588 69.8913C11.3892 69.8251 11.4333 69.7661 11.4881 69.7181C11.5429 69.67 11.6072 69.6341 11.6769 69.6126C11.7465 69.5912 11.8199 69.5846 11.8922 69.5934C11.9645 69.6022 12.0342 69.6262 12.0967 69.6637C12.1591 69.7013 12.213 69.7515 12.2547 69.8113C12.2964 69.8711 12.325 69.9389 12.3387 70.0105C12.3524 70.0821 12.3508 70.1557 12.3341 70.2267C12.1744 71.5477 12.0867 72.8765 12.0715 74.207C12.0706 74.2751 12.0563 74.3423 12.0294 74.4048C12.0026 74.4674 11.9636 74.524 11.9149 74.5715C11.8661 74.619 11.8084 74.6564 11.7452 74.6816C11.682 74.7068 11.6144 74.7193 11.5463 74.7184ZM12.3894 67.3589C12.3505 67.3656 12.3108 67.3656 12.2719 67.3589C12.1384 67.3291 12.022 67.2477 11.9483 67.1325C11.8745 67.0173 11.8492 66.8776 11.878 66.7438C12.1808 65.4052 12.5686 64.0873 13.039 62.798C13.0619 62.7307 13.0984 62.6689 13.1462 62.6163C13.194 62.5637 13.2521 62.5215 13.3169 62.4924C13.3817 62.4632 13.4519 62.4477 13.5229 62.4468C13.594 62.4459 13.6645 62.4596 13.73 62.487C13.7967 62.5108 13.8579 62.5478 13.9099 62.5957C13.9619 62.6437 14.0037 62.7017 14.0328 62.7663C14.0618 62.8308 14.0775 62.9006 14.0789 62.9713C14.0804 63.0421 14.0674 63.1124 14.041 63.1781C13.5876 64.4246 13.2137 65.6987 12.9215 66.9926C12.8874 67.1049 12.8162 67.2022 12.7195 67.2688C12.6228 67.3353 12.5065 67.3671 12.3894 67.3589ZM14.8495 60.3794C14.7698 60.3825 14.6908 60.3634 14.6215 60.3241C14.5596 60.2953 14.5042 60.2544 14.4584 60.2038C14.4126 60.1532 14.3774 60.094 14.3549 60.0296C14.3323 59.9652 14.3229 59.8969 14.3272 59.8288C14.3314 59.7607 14.3492 59.6942 14.3796 59.6331C14.9827 58.4016 15.6613 57.2084 16.4112 56.0604C16.4868 55.9534 16.6 55.8789 16.7282 55.852C16.8564 55.825 16.9901 55.8477 17.1023 55.9153C17.2118 55.9887 17.2888 56.1015 17.3171 56.2303C17.3454 56.359 17.3229 56.4938 17.2543 56.6063C16.5253 57.7152 15.8675 58.8692 15.2849 60.0615C15.2491 60.1498 15.1894 60.2263 15.1125 60.2825C15.0355 60.3386 14.9445 60.3722 14.8495 60.3794ZM18.823 54.16C18.7074 54.1612 18.595 54.1221 18.5051 54.0495C18.4512 54.0071 18.4063 53.9544 18.3729 53.8945C18.3395 53.8346 18.3184 53.7687 18.3107 53.7006C18.303 53.6324 18.3088 53.5634 18.328 53.4976C18.3471 53.4318 18.3791 53.3704 18.4222 53.317C19.2857 52.2502 20.2086 51.2327 21.1863 50.2695C21.2835 50.1725 21.4152 50.1179 21.5526 50.1179C21.6899 50.1179 21.8216 50.1725 21.9188 50.2695C22.0159 50.3667 22.0704 50.4984 22.0704 50.6358C22.0704 50.7731 22.0159 50.9048 21.9188 51.002C20.9771 51.9416 20.0866 52.9312 19.2514 53.9666C19.1979 54.0257 19.1313 54.0715 19.0569 54.1003C18.9825 54.1291 18.9024 54.1401 18.823 54.1324V54.16ZM24.0196 48.8529C23.9442 48.8527 23.8698 48.8359 23.8017 48.8037C23.7337 48.7714 23.6735 48.7245 23.6257 48.6663C23.5381 48.5604 23.4956 48.4243 23.5072 48.2874C23.5189 48.1504 23.5837 48.0235 23.6879 47.9338C24.7399 47.059 25.8354 46.2379 26.9703 45.4737C27.0817 45.4054 27.2148 45.3817 27.3429 45.4073C27.4711 45.4329 27.5848 45.506 27.6613 45.6119C27.7385 45.7267 27.7672 45.8673 27.7413 46.0031C27.7155 46.139 27.637 46.2591 27.5231 46.3375C26.4159 47.081 25.348 47.8813 24.3236 48.7354C24.2368 48.805 24.1306 48.846 24.0196 48.8529Z" fill="#E0E0E0"/>
<path d="M28.5113 103.175C28.4372 103.176 28.3639 103.159 28.2971 103.127C27.6544 102.837 27.0187 102.526 26.4106 102.194C26.3511 102.163 26.2984 102.12 26.2555 102.068C26.2125 102.017 26.1802 101.957 26.1603 101.893C26.1404 101.829 26.1333 101.761 26.1395 101.694C26.1457 101.627 26.165 101.562 26.1964 101.503C26.2609 101.384 26.3692 101.295 26.4983 101.255C26.6274 101.215 26.767 101.227 26.8874 101.289C27.4817 101.607 28.0967 101.911 28.7186 102.194C28.8253 102.244 28.9119 102.328 28.9642 102.433C29.0166 102.539 29.0315 102.659 29.0066 102.774C28.9816 102.889 28.9183 102.992 28.8271 103.066C28.7358 103.14 28.622 103.181 28.5044 103.182L28.5113 103.175Z" fill="#E0E0E0"/>
<path d="M264.88 78.0976L294.111 59.3843L306.985 63.5167L264.88 78.0976Z" fill="#92E3A9"/>
<path d="M264.88 78.0976L290.145 57.0348L284.527 50.5528L264.88 78.0976Z" fill="#92E3A9"/>
<path d="M290.145 57.0348V61.9204L264.88 78.0976L290.145 57.0348Z" fill="#455A64"/>
<path d="M295.846 54.9962C295.721 54.9967 295.6 54.9498 295.507 54.8649C295.405 54.7733 295.343 54.6454 295.334 54.5085C295.325 54.3716 295.37 54.2366 295.459 54.1324C296.359 53.1286 297.157 52.0384 297.843 50.8776C297.913 50.7585 298.027 50.6719 298.16 50.6369C298.294 50.6019 298.436 50.6214 298.555 50.691C298.674 50.7607 298.76 50.8748 298.795 51.0083C298.83 51.1418 298.811 51.2837 298.741 51.4028C298.018 52.6196 297.18 53.765 296.24 54.8234C296.19 54.8788 296.13 54.9228 296.062 54.9526C295.994 54.9824 295.92 54.9973 295.846 54.9962ZM299.799 48.5557C299.737 48.5656 299.674 48.5656 299.612 48.5557C299.547 48.5307 299.487 48.4927 299.437 48.444C299.386 48.3953 299.346 48.3369 299.319 48.2723C299.292 48.2077 299.278 48.1383 299.279 48.0682C299.279 47.9982 299.294 47.9289 299.322 47.8647C299.81 46.606 300.176 45.3031 300.414 43.9742C300.438 43.8385 300.516 43.7183 300.629 43.6399C300.743 43.5615 300.883 43.5313 301.018 43.5561C301.154 43.5808 301.274 43.6584 301.353 43.7718C301.431 43.8852 301.461 44.0251 301.436 44.1608C301.182 45.5533 300.795 46.9185 300.282 48.2379C300.243 48.3335 300.176 48.4151 300.09 48.4718C300.003 48.5286 299.902 48.5578 299.799 48.5557ZM301.277 41.1409C301.21 41.14 301.143 41.1257 301.081 41.0987C301.018 41.0717 300.962 41.0327 300.915 40.9838C300.868 40.935 300.832 40.8773 300.807 40.8141C300.783 40.7509 300.771 40.6835 300.773 40.6157C300.773 40.4361 300.773 40.2564 300.773 40.0767C300.77 38.9035 300.678 37.7323 300.497 36.5732C300.477 36.4368 300.511 36.2981 300.593 36.1869C300.674 36.0757 300.796 36.001 300.932 35.9789C301.068 35.9607 301.206 35.9959 301.317 36.0771C301.427 36.1582 301.502 36.279 301.526 36.4142C301.713 37.6261 301.808 38.8505 301.81 40.0767C301.81 40.2633 301.81 40.4499 301.81 40.6365C301.804 40.7733 301.745 40.9027 301.646 40.9969C301.547 41.0911 301.414 41.1428 301.277 41.1409ZM300.234 33.6501C300.123 33.6497 300.015 33.6131 299.926 33.5457C299.838 33.4784 299.773 33.384 299.743 33.2769C299.347 31.9803 298.85 30.7165 298.258 29.4969C298.227 29.4358 298.209 29.3693 298.205 29.3012C298.201 29.2331 298.21 29.1648 298.233 29.1004C298.255 29.036 298.291 28.9768 298.336 28.9262C298.382 28.8756 298.438 28.8347 298.499 28.8059C298.623 28.7465 298.765 28.7386 298.895 28.7839C299.025 28.8293 299.131 28.9242 299.191 29.0478C299.809 30.3151 300.324 31.63 300.732 32.9798C300.752 33.0446 300.759 33.1129 300.752 33.1805C300.746 33.2481 300.726 33.3137 300.694 33.3736C300.661 33.4334 300.618 33.4862 300.565 33.5289C300.512 33.5717 300.451 33.6035 300.386 33.6224C300.338 33.6416 300.286 33.651 300.234 33.6501ZM297.028 26.7881C296.94 26.7889 296.854 26.767 296.778 26.7246C296.702 26.6822 296.638 26.6208 296.592 26.5462C295.851 25.409 295.036 24.3217 294.153 23.2914C294.108 23.2398 294.074 23.1798 294.053 23.115C294.032 23.0502 294.023 22.9818 294.028 22.9137C294.033 22.8456 294.052 22.7793 294.083 22.7184C294.114 22.6575 294.156 22.6033 294.208 22.5589C294.259 22.5145 294.319 22.4807 294.383 22.4594C294.447 22.4381 294.515 22.4298 294.582 22.435C294.65 22.4401 294.716 22.4586 294.776 22.4894C294.836 22.5201 294.89 22.5626 294.934 22.6142C295.851 23.6807 296.696 24.8073 297.463 25.9865C297.527 26.1003 297.546 26.2335 297.518 26.3609C297.49 26.4883 297.417 26.601 297.311 26.6775C297.228 26.7383 297.13 26.7743 297.028 26.7812V26.7881ZM292.19 20.9765C292.058 20.976 291.932 20.9239 291.838 20.8313C290.843 19.9 289.798 19.0234 288.707 18.2054C288.653 18.1646 288.607 18.1134 288.572 18.0548C288.538 17.9963 288.515 17.9315 288.505 17.8641C288.496 17.7967 288.499 17.7281 288.516 17.6621C288.533 17.5962 288.563 17.5343 288.604 17.4798C288.645 17.4254 288.696 17.3795 288.754 17.3448C288.813 17.3101 288.878 17.2873 288.945 17.2777C289.013 17.2681 289.081 17.2718 289.147 17.2887C289.213 17.3056 289.275 17.3353 289.329 17.3762C290.453 18.2157 291.528 19.1178 292.55 20.0781C292.627 20.1493 292.68 20.2422 292.703 20.3444C292.726 20.4466 292.717 20.5534 292.679 20.6507C292.64 20.748 292.572 20.8312 292.485 20.8894C292.398 20.9475 292.295 20.9779 292.19 20.9765ZM286.13 16.3742C286.032 16.3732 285.936 16.3445 285.854 16.2912C285.384 16.001 284.893 15.7108 284.395 15.4274C283.704 15.0404 283.013 14.6535 282.281 14.2872C282.214 14.2604 282.153 14.2199 282.103 14.1684C282.053 14.1169 282.014 14.0554 281.988 13.988C281.963 13.9205 281.952 13.8485 281.956 13.7766C281.96 13.7047 281.979 13.6344 282.012 13.5702C282.045 13.5061 282.091 13.4495 282.147 13.404C282.203 13.3586 282.267 13.3253 282.337 13.3063C282.406 13.2873 282.479 13.2829 282.55 13.2936C282.622 13.3042 282.69 13.3296 282.751 13.3681C283.476 13.7413 284.202 14.1283 284.907 14.5291C285.418 14.8124 285.916 15.1096 286.399 15.4136C286.511 15.4849 286.591 15.5962 286.623 15.7247C286.655 15.8533 286.637 15.9892 286.572 16.1046C286.528 16.1835 286.463 16.2497 286.386 16.2968C286.309 16.344 286.22 16.3706 286.13 16.3742ZM224.178 16.0217C224.087 16.0207 223.998 15.996 223.919 15.95C223.84 15.9039 223.775 15.8381 223.729 15.7591C223.664 15.6424 223.647 15.5047 223.681 15.3755C223.716 15.2463 223.801 15.136 223.916 15.0681C225.118 14.3771 226.355 13.686 227.606 13.1055C227.729 13.0457 227.87 13.0367 228 13.0807C228.129 13.1248 228.236 13.2181 228.297 13.3405C228.355 13.4645 228.362 13.6061 228.316 13.7351C228.271 13.8641 228.177 13.9705 228.055 14.0315C226.825 14.6327 225.609 15.2754 224.427 15.9595C224.35 15.9972 224.264 16.0138 224.178 16.0079V16.0217ZM279.392 12.8637C279.32 12.8641 279.249 12.8476 279.185 12.8153C277.941 12.2694 276.656 11.758 275.37 11.3019C275.24 11.2552 275.134 11.1587 275.075 11.0336C275.016 10.9086 275.009 10.7652 275.056 10.6351C275.103 10.505 275.199 10.3987 275.324 10.3398C275.449 10.2808 275.593 10.2739 275.723 10.3207C277.029 10.7906 278.335 11.3089 279.607 11.8686C279.717 11.9157 279.808 12 279.864 12.107C279.919 12.2139 279.936 12.3368 279.91 12.4546C279.885 12.5724 279.819 12.6776 279.725 12.7523C279.63 12.8269 279.513 12.8663 279.392 12.8637ZM230.985 12.6495C230.883 12.6502 230.783 12.6202 230.698 12.5636C230.613 12.5069 230.547 12.4261 230.508 12.3316C230.48 12.2682 230.465 12.1998 230.463 12.1304C230.462 12.061 230.474 11.992 230.5 11.9276C230.526 11.8631 230.565 11.8045 230.613 11.7552C230.662 11.7059 230.721 11.6669 230.785 11.6405C232.063 11.1015 233.376 10.604 234.689 10.1548C234.755 10.1275 234.826 10.1141 234.897 10.1154C234.969 10.1168 235.039 10.1329 235.104 10.1628C235.169 10.1926 235.227 10.2356 235.274 10.2889C235.322 10.3422 235.358 10.4048 235.38 10.4727C235.405 10.5393 235.417 10.6103 235.414 10.6814C235.411 10.7526 235.394 10.8225 235.364 10.8869C235.334 10.9513 235.291 11.009 235.238 11.0566C235.185 11.1041 235.123 11.1406 235.055 11.1637C233.763 11.606 232.464 12.0966 231.213 12.6218C231.139 12.6425 231.061 12.6472 230.985 12.6356V12.6495ZM272.261 10.2585C272.213 10.2652 272.164 10.2652 272.116 10.2585C270.81 9.87841 269.469 9.56744 268.135 9.24265C268.069 9.22813 268.005 9.20061 267.949 9.16167C267.893 9.12274 267.845 9.07313 267.809 9.0157C267.772 8.95827 267.746 8.89414 267.734 8.82696C267.722 8.75978 267.723 8.69087 267.738 8.62417C267.752 8.55747 267.78 8.49429 267.819 8.43822C267.858 8.38215 267.907 8.33431 267.965 8.29741C268.022 8.26051 268.086 8.23529 268.154 8.22318C268.221 8.21107 268.29 8.21231 268.356 8.22683C269.739 8.52397 271.079 8.8764 272.406 9.26338C272.526 9.29831 272.629 9.37528 272.696 9.48014C272.764 9.585 272.792 9.71072 272.774 9.83422C272.756 9.95773 272.695 10.0707 272.6 10.1525C272.506 10.2342 272.386 10.2792 272.261 10.2792V10.2585ZM238.158 10.1548C238.045 10.1544 237.935 10.117 237.845 10.0484C237.756 9.97979 237.691 9.88369 237.661 9.77475C237.642 9.70986 237.636 9.64187 237.643 9.57468C237.651 9.5075 237.671 9.44247 237.704 9.38335C237.737 9.32423 237.781 9.27219 237.834 9.23025C237.887 9.18831 237.948 9.15729 238.013 9.13899C239.347 8.76583 240.715 8.44796 242.076 8.1439C242.145 8.12188 242.218 8.11457 242.29 8.12242C242.362 8.13027 242.432 8.15313 242.494 8.18951C242.557 8.22589 242.611 8.27498 242.654 8.33362C242.696 8.39227 242.726 8.45916 242.741 8.53C242.756 8.60083 242.756 8.67403 242.741 8.74488C242.726 8.81572 242.696 8.88264 242.654 8.94132C242.611 9 242.557 9.04914 242.495 9.08557C242.432 9.12199 242.363 9.1449 242.291 9.15282C240.95 9.43614 239.609 9.76784 238.296 10.1341L238.158 10.1548ZM264.853 8.59307H264.749C263.402 8.37885 262.027 8.20609 260.672 8.08171C260.601 8.08093 260.53 8.06541 260.465 8.03613C260.4 8.00685 260.342 7.96444 260.294 7.91155C260.246 7.85867 260.209 7.79645 260.187 7.7288C260.164 7.66115 260.155 7.58952 260.161 7.51841C260.168 7.4473 260.189 7.37824 260.223 7.31555C260.257 7.25287 260.303 7.19791 260.36 7.15413C260.416 7.11035 260.481 7.07868 260.55 7.06112C260.619 7.04355 260.692 7.04047 260.762 7.05206C262.144 7.17645 263.526 7.34921 264.908 7.57034C265.043 7.59407 265.163 7.66945 265.243 7.78044C265.323 7.89144 265.357 8.02928 265.337 8.16463C265.312 8.27646 265.252 8.3771 265.164 8.45086C265.077 8.52461 264.967 8.56732 264.853 8.57234V8.59307ZM245.58 8.5447C245.457 8.54465 245.338 8.50082 245.244 8.42106C245.15 8.3413 245.088 8.23081 245.068 8.10935C245.049 7.97298 245.083 7.83424 245.165 7.72307C245.246 7.61189 245.368 7.53718 245.504 7.51506C246.886 7.30775 248.268 7.13499 249.65 7.01751C249.718 7.01161 249.787 7.01918 249.852 7.03977C249.917 7.06037 249.977 7.09359 250.03 7.13755C250.082 7.1815 250.125 7.23533 250.157 7.29596C250.188 7.35658 250.207 7.42281 250.213 7.49087C250.219 7.55893 250.212 7.62749 250.191 7.69263C250.17 7.75776 250.137 7.81821 250.093 7.8705C250.049 7.9228 249.995 7.96593 249.935 7.99743C249.874 8.02892 249.808 8.04817 249.74 8.05407C248.358 8.17154 247.01 8.33048 245.663 8.5447H245.58ZM257.293 7.85366C255.911 7.80529 254.529 7.79838 253.181 7.85366C253.113 7.8574 253.045 7.84734 252.981 7.8241C252.917 7.80086 252.859 7.76492 252.809 7.71844C252.759 7.67195 252.72 7.61589 252.692 7.55362C252.665 7.49136 252.65 7.42417 252.649 7.35612C252.646 7.28782 252.657 7.21965 252.681 7.15566C252.705 7.09166 252.742 7.03313 252.789 6.98352C252.836 6.93391 252.893 6.89424 252.955 6.86685C253.018 6.83945 253.085 6.82489 253.154 6.82402C254.536 6.77565 255.918 6.78256 257.3 6.82402C257.368 6.82581 257.435 6.841 257.497 6.86871C257.559 6.89643 257.615 6.93612 257.662 6.98554C257.709 7.03495 257.746 7.09312 257.77 7.1567C257.795 7.22029 257.806 7.28805 257.804 7.35612C257.794 7.48575 257.736 7.60697 257.642 7.69633C257.547 7.78569 257.423 7.83683 257.293 7.83985V7.85366Z" fill="#E0E0E0"/>
<path d="M254.688 88.2005V87.0949H254.418C254.008 86.346 253.385 85.7352 252.628 85.3396C251.084 84.556 249.377 84.1476 247.646 84.1476C245.915 84.1476 244.208 84.556 242.664 85.3396C241.907 85.7352 241.284 86.346 240.874 87.0949H240.604V88.166C240.604 89.2233 241.295 90.2875 242.677 91.096C244.223 91.8759 245.929 92.2822 247.66 92.2822C249.391 92.2822 251.097 91.8759 252.642 91.096C254.01 90.3151 254.695 89.2509 254.688 88.2005Z" fill="#37474F"/>
<path d="M247.646 91.1651C251.535 91.1651 254.688 89.3428 254.688 87.0949C254.688 84.847 251.535 83.0247 247.646 83.0247C243.757 83.0247 240.604 84.847 240.604 87.0949C240.604 89.3428 243.757 91.1651 247.646 91.1651Z" fill="#455A64"/>
<path d="M245.836 53.2064V86.618C245.85 86.7766 245.907 86.9284 245.999 87.0583C246.091 87.1881 246.216 87.2913 246.361 87.3575C246.758 87.5585 247.197 87.6632 247.643 87.6632C248.088 87.6632 248.527 87.5585 248.925 87.3575C249.071 87.2928 249.198 87.1902 249.291 87.0602C249.385 86.9302 249.442 86.7775 249.457 86.618V53.2064H245.836Z" fill="#37474F"/>
<path d="M255.766 28.1978C254.004 27.182 252.4 27.099 251.198 27.7694L228.815 40.7056L240.045 63.2265L262.503 50.235V40.3808C262.503 35.7992 259.484 30.3469 255.766 28.1978Z" fill="#455A64"/>
<path d="M240.045 53.3654V63.2265L226.576 55.4454V45.5912C226.576 41.0096 229.589 39.0402 233.307 41.1893C235.691 42.5714 237.785 45.294 238.98 48.2793C239.649 49.8935 240.01 51.6185 240.045 53.3654Z" fill="#37474F"/>
<path d="M240.045 53.3654V63.2265L226.576 55.4454L238.98 48.2793C239.649 49.8935 240.01 51.6185 240.045 53.3654Z" fill="#263238"/>
<path d="M237.799 56.7445C236.562 53.165 232.54 48.5212 228.815 46.379C225.091 44.2368 223.087 45.3908 224.324 48.9704L226.569 55.4523L240.045 63.2334C240.045 63.2334 239.043 60.3241 237.799 56.7445Z" fill="#455A64"/>
<path d="M247.066 53.7385L246.312 53.3032C246.151 53.2289 245.972 53.1987 245.795 53.2157C245.618 53.2326 245.448 53.2962 245.303 53.3999C244.887 53.6723 244.541 54.0388 244.292 54.4697C244.044 54.9007 243.9 55.384 243.873 55.8807C243.854 56.0587 243.883 56.2384 243.957 56.4012C244.032 56.5641 244.148 56.7041 244.295 56.8067L244.986 57.2075L245.117 56.9933C245.26 56.9623 245.398 56.9087 245.525 56.8344C245.941 56.5635 246.287 56.1983 246.536 55.7685C246.784 55.3386 246.928 54.8562 246.955 54.3605C246.954 54.2368 246.938 54.1138 246.907 53.9942L247.066 53.7385Z" fill="#263238"/>
<path d="M246.022 53.8214C245.606 54.0923 245.26 54.4575 245.011 54.8873C244.763 55.3172 244.619 55.7996 244.592 56.2954C244.592 57.2075 245.234 57.5738 246.022 57.1177C246.439 56.8472 246.785 56.4821 247.034 56.0522C247.283 55.6223 247.426 55.1397 247.453 54.6438C247.473 53.7316 246.782 53.3654 246.022 53.8214Z" fill="#37474F"/>
<path d="M246.022 55.86C245.968 55.86 245.914 55.8493 245.863 55.8284C245.813 55.8076 245.767 55.7771 245.729 55.7386C245.69 55.7001 245.66 55.6543 245.639 55.604C245.618 55.5537 245.607 55.4998 245.607 55.4454V41.1893C245.607 41.0793 245.651 40.9739 245.729 40.8961C245.807 40.8183 245.912 40.7747 246.022 40.7747C246.132 40.7747 246.237 40.8183 246.315 40.8961C246.393 40.9739 246.437 41.0793 246.437 41.1893V55.4454C246.437 55.5553 246.393 55.6608 246.315 55.7386C246.237 55.8163 246.132 55.86 246.022 55.86Z" fill="#263238"/>
<path d="M246.395 41.5624V45.2802L250.383 41.1893L246.395 41.5624Z" fill="#37474F"/>
<path d="M36.7623 164.885C36.4168 165.071 30.0731 166.868 27.7235 163.765C25.374 160.663 29.2784 155.825 27.074 154.043C24.8695 152.26 18.6917 154.043 17.2059 150.297C15.7202 146.552 20.1221 144.935 17.6482 141.155C16.0865 138.771 11.7191 137.458 11.9195 135.239C12.2098 131.998 18.1803 131.093 23.3907 134.597C28.6011 138.1 31.0336 135.226 32.6852 134.991C34.3368 134.756 37.9025 135.274 37.7919 141.079C37.6814 146.883 36.7623 164.885 36.7623 164.885Z" fill="#92E3A9"/>
<path d="M37.1838 156.655C37.1014 156.654 37.0216 156.625 36.9585 156.572C36.8954 156.519 36.8528 156.446 36.8383 156.364C35.0209 145.308 22.216 136.373 15.5544 134.452C15.5103 134.44 15.4691 134.419 15.4332 134.391C15.3973 134.363 15.3675 134.328 15.3455 134.288C15.3236 134.247 15.31 134.203 15.3055 134.158C15.301 134.113 15.3057 134.067 15.3194 134.023C15.3451 133.935 15.4046 133.861 15.485 133.817C15.5653 133.773 15.6599 133.763 15.7478 133.788C22.5546 135.758 35.6566 144.942 37.5224 156.254C37.5364 156.344 37.5145 156.435 37.4615 156.509C37.4085 156.583 37.3286 156.632 37.2391 156.648L37.1838 156.655Z" fill="white"/>
<path d="M22.0778 147.402C22.0018 147.402 21.9277 147.378 21.8669 147.332C21.8061 147.287 21.7621 147.222 21.7416 147.149C21.7212 147.076 21.7254 146.998 21.7537 146.928C21.782 146.857 21.8327 146.798 21.8981 146.759C22.1054 146.635 27.0394 143.753 31.8905 145.101C31.9821 145.124 32.0606 145.184 32.1085 145.265C32.1565 145.347 32.17 145.444 32.1462 145.536C32.1224 145.628 32.0631 145.706 31.9815 145.754C31.8998 145.802 31.8025 145.815 31.7108 145.792C27.1362 144.52 22.2989 147.346 22.2505 147.374C22.1968 147.4 22.1368 147.409 22.0778 147.402Z" fill="white"/>
<path d="M217.413 106.499C220.136 106.872 224.773 105.297 225.104 100.764C225.436 96.2304 227.309 95.0003 230.743 94.2609C234.178 93.5215 235.187 92.326 235.581 90.17C235.974 88.014 233.362 85.4364 234.095 82.1885C234.827 78.9406 237.274 78.9476 239.678 75.2781C241.219 72.9148 238.061 69.3076 232.803 70.8555C227.544 72.4034 227.965 75.7964 222.707 76.2318C217.448 76.6671 214.151 79.8597 214.048 83.8332C213.944 87.8066 217.413 106.499 217.413 106.499Z" fill="#92E3A9"/>
<path opacity="0.2" d="M217.413 106.499C220.136 106.872 224.773 105.297 225.104 100.764C225.436 96.2304 227.309 95.0003 230.743 94.2609C234.178 93.5215 235.187 92.326 235.581 90.17C235.974 88.014 233.362 85.4364 234.095 82.1885C234.827 78.9406 237.274 78.9476 239.678 75.2781C241.219 72.9148 238.061 69.3076 232.803 70.8555C227.544 72.4034 227.965 75.7964 222.707 76.2318C217.448 76.6671 214.151 79.8597 214.048 83.8332C213.944 87.8066 217.413 106.499 217.413 106.499Z" fill="black"/>
<path d="M216.418 97.8059H216.377C216.332 97.7969 216.29 97.7791 216.252 97.7537C216.215 97.7283 216.182 97.6958 216.157 97.6579C216.132 97.6201 216.115 97.5776 216.106 97.5331C216.098 97.4885 216.098 97.4427 216.107 97.3982C218.65 84.8283 232.519 73.3225 235.898 72.1478C235.99 72.1175 236.09 72.1249 236.176 72.1683C236.262 72.2117 236.328 72.2876 236.358 72.3792C236.388 72.4709 236.381 72.5708 236.337 72.657C236.294 72.7431 236.218 72.8086 236.126 72.8388C232.823 73.9859 219.272 85.2775 216.777 97.571C216.752 97.6443 216.703 97.707 216.638 97.7495C216.573 97.792 216.495 97.8118 216.418 97.8059Z" fill="white"/>
<path d="M33.86 93.3488C33.8937 92.7256 34.074 92.1193 34.3862 91.5789C34.6984 91.0386 35.1337 90.5795 35.6567 90.2391L127.502 37.2089C128.059 36.9293 128.673 36.7837 129.296 36.7837C129.918 36.7837 130.532 36.9293 131.089 37.2089L133.114 38.3837C133.638 38.7229 134.074 39.1817 134.386 39.7222C134.699 40.2628 134.878 40.8698 134.91 41.4933V111.896C134.875 112.519 134.694 113.125 134.382 113.665C134.07 114.205 133.635 114.664 133.114 115.006L41.2679 168.029C40.7112 168.312 40.0956 168.459 39.4712 168.459C38.8468 168.459 38.2312 168.312 37.6745 168.029L35.6567 166.861C35.1345 166.52 34.6998 166.061 34.3877 165.521C34.0756 164.98 33.8948 164.374 33.86 163.752V93.3488Z" fill="#92E3A9"/>
<path opacity="0.3" d="M33.86 93.3488C33.8937 92.7256 34.074 92.1193 34.3862 91.5789C34.6984 91.0386 35.1337 90.5795 35.6567 90.2391L127.502 37.2089C128.059 36.9293 128.673 36.7837 129.296 36.7837C129.918 36.7837 130.532 36.9293 131.089 37.2089L133.114 38.3837C133.638 38.7229 134.074 39.1817 134.386 39.7222C134.699 40.2628 134.878 40.8698 134.91 41.4933V111.896C134.875 112.519 134.694 113.125 134.382 113.665C134.07 114.205 133.635 114.664 133.114 115.006L41.2679 168.029C40.7112 168.312 40.0956 168.459 39.4712 168.459C38.8468 168.459 38.2312 168.312 37.6745 168.029L35.6567 166.861C35.1345 166.52 34.6998 166.061 34.3877 165.521C34.0756 164.98 33.8948 164.374 33.86 163.752V93.3488Z" fill="black"/>
<path d="M42.2768 96.1405L34.3852 91.5797C34.0626 92.1152 33.8818 92.724 33.86 93.3488V163.752C33.8948 164.374 34.0756 164.98 34.3877 165.521C34.6998 166.061 35.1345 166.52 35.6567 166.861L37.6745 168.029C38.2312 168.312 38.8468 168.459 39.4712 168.459C40.0956 168.459 40.7112 168.312 41.2679 168.029L42.2768 167.449V96.1405Z" fill="#92E3A9"/>
<path opacity="0.5" d="M42.2768 96.1405L34.3852 91.5797C34.0626 92.1152 33.8818 92.724 33.86 93.3488V163.752C33.8948 164.374 34.0756 164.98 34.3877 165.521C34.6998 166.061 35.1345 166.52 35.6567 166.861L37.6745 168.029C38.2312 168.312 38.8468 168.459 39.4712 168.459C40.0956 168.459 40.7112 168.312 41.2679 168.029L42.2768 167.449V96.1405Z" fill="black"/>
<path d="M134.91 41.4933V111.896C134.887 112.541 134.694 113.168 134.351 113.714C134.085 114.173 133.728 114.573 133.3 114.888L133.231 114.93L133.114 115.006L41.2679 168.029C41.0922 168.153 40.8879 168.231 40.6741 168.255C40.4603 168.279 40.2439 168.249 40.0448 168.167C39.8535 168.047 39.6989 167.876 39.5978 167.674C39.4966 167.472 39.4529 167.246 39.4713 167.02V96.5897C39.4556 96.3377 39.5014 96.0856 39.6045 95.8551C39.7077 95.6245 39.8652 95.4225 40.0636 95.2662C40.262 95.11 40.4954 95.0041 40.7436 94.9578C40.9919 94.9115 41.2477 94.9261 41.4891 95.0003L80.1111 104.184L85.1695 105.387C85.7666 105.498 86.3829 105.445 86.9517 105.232C87.5205 105.019 88.0202 104.654 88.3967 104.177L94.2567 96.0162L133.701 41.0995C134.364 40.1735 134.91 40.3462 134.91 41.4933Z" fill="#92E3A9"/>
<path opacity="0.2" d="M134.91 41.4933V111.896C134.887 112.541 134.694 113.168 134.351 113.714C134.085 114.173 133.728 114.573 133.3 114.888L133.231 114.93L133.114 115.006L41.2679 168.029C41.0922 168.153 40.8879 168.231 40.6741 168.255C40.4603 168.279 40.2439 168.249 40.0448 168.167C39.8535 168.047 39.6989 167.876 39.5978 167.674C39.4966 167.472 39.4529 167.246 39.4713 167.02V96.5897C39.4556 96.3377 39.5014 96.0856 39.6045 95.8551C39.7077 95.6245 39.8652 95.4225 40.0636 95.2662C40.262 95.11 40.4954 95.0041 40.7436 94.9578C40.9919 94.9115 41.2477 94.9261 41.4891 95.0003L80.1111 104.184L85.1695 105.387C85.7666 105.498 86.3829 105.445 86.9517 105.232C87.5205 105.019 88.0202 104.654 88.3967 104.177L94.2567 96.0162L133.701 41.0995C134.364 40.1735 134.91 40.3462 134.91 41.4933Z" fill="black"/>
<path d="M133.114 115.006L133.231 114.93L133.3 114.888C133.728 114.573 134.085 114.173 134.351 113.714C134.69 113.176 134.883 112.559 134.91 111.924L94.2566 96.03L121.483 121.737L133.114 115.006Z" fill="#92E3A9"/>
<path opacity="0.6" d="M133.114 115.006L133.231 114.93L133.3 114.888C133.728 114.573 134.085 114.173 134.351 113.714C134.69 113.176 134.883 112.559 134.91 111.924L94.2566 96.03L121.483 121.737L133.114 115.006Z" fill="black"/>
<path d="M39.4712 167.02C39.4448 167.25 39.4833 167.482 39.5822 167.691C39.6811 167.9 39.8366 168.077 40.031 168.202C40.23 168.284 40.4465 168.314 40.6603 168.29C40.8741 168.265 41.0783 168.188 41.2541 168.064L72.8898 149.744L80.1111 104.136L39.4712 165.825V167.02Z" fill="#92E3A9"/>
<path opacity="0.6" d="M39.4712 167.02C39.4448 167.25 39.4833 167.482 39.5822 167.691C39.6811 167.9 39.8366 168.077 40.031 168.202C40.23 168.284 40.4465 168.314 40.6603 168.29C40.8741 168.265 41.0783 168.188 41.2541 168.064L72.8898 149.744L80.1111 104.136L39.4712 165.825V167.02Z" fill="black"/>
<path d="M134.351 113.714C134.085 114.173 133.728 114.573 133.3 114.888L133.231 114.93L41.2679 168.029C41.0922 168.153 40.8879 168.231 40.6741 168.255C40.4603 168.279 40.2438 168.249 40.0448 168.167L84.0293 97.9511C84.9133 96.5446 86.2744 95.5037 87.8633 95.0189C89.4522 94.5341 91.1625 94.6379 92.6811 95.3113L134.351 113.714Z" fill="#92E3A9"/>
<path opacity="0.2" d="M134.351 113.714C134.085 114.173 133.728 114.573 133.3 114.888L133.231 114.93L41.2679 168.029C41.0922 168.153 40.8879 168.231 40.6741 168.255C40.4603 168.279 40.2438 168.249 40.0448 168.167L84.0293 97.9511C84.9133 96.5446 86.2744 95.5037 87.8633 95.0189C89.4522 94.5341 91.1625 94.6379 92.6811 95.3113L134.351 113.714Z" fill="black"/>
<path d="M39.4712 94.5166L81.7143 113.175C83.2352 113.846 84.9473 113.947 86.5364 113.458C88.1255 112.969 89.4852 111.924 90.3661 110.514L134.724 39.5239L39.4712 94.5166Z" fill="#92E3A9"/>
<path opacity="0.6" d="M39.4712 94.5166L81.7143 113.175C83.2352 113.846 84.9473 113.947 86.5364 113.458C88.1255 112.969 89.4852 111.924 90.3661 110.514L134.724 39.5239L39.4712 94.5166Z" fill="black"/>
<path d="M39.4712 94.5166L82.0114 110.41C83.4815 110.959 85.0946 110.991 86.5854 110.502C88.0762 110.012 89.3559 109.029 90.214 107.715L134.724 39.5239L39.4712 94.5166Z" fill="#92E3A9"/>
<path opacity="0.2" d="M39.4712 94.5166L82.0114 110.41C83.4815 110.959 85.0946 110.991 86.5854 110.502C88.0762 110.012 89.3559 109.029 90.214 107.715L134.724 39.5239L39.4712 94.5166Z" fill="black"/>
<path d="M49.5465 102.021C49.5786 101.398 49.7582 100.791 50.0706 100.25C50.3829 99.7096 50.8191 99.2508 51.3432 98.9116L143.189 45.8814C143.746 45.5986 144.361 45.4512 144.986 45.4512C145.61 45.4512 146.226 45.5986 146.782 45.8814L148.807 47.0493C149.329 47.3905 149.763 47.8499 150.074 48.3902C150.385 48.9305 150.564 49.5364 150.597 50.1589V120.562C150.563 121.184 150.383 121.79 150.072 122.33C149.761 122.87 149.328 123.329 148.807 123.671L56.9544 176.695C56.398 176.974 55.7839 177.12 55.1612 177.12C54.5385 177.12 53.9244 176.974 53.3679 176.695L51.3432 175.527C50.8214 175.185 50.387 174.726 50.0749 174.186C49.7629 173.646 49.5819 173.04 49.5465 172.417V102.021Z" fill="#455A64"/>
<path d="M49.5465 102.021C49.5786 101.398 49.7582 100.791 50.0706 100.25C50.3829 99.7096 50.8191 99.2508 51.3432 98.9116L143.189 45.8814C143.746 45.5986 144.361 45.4512 144.986 45.4512C145.61 45.4512 146.226 45.5986 146.782 45.8814L148.807 47.0493C149.329 47.3905 149.763 47.8499 150.074 48.3902C150.385 48.9305 150.564 49.5364 150.597 50.1589V120.562C150.563 121.184 150.383 121.79 150.072 122.33C149.761 122.87 149.328 123.329 148.807 123.671L56.9544 176.695C56.398 176.974 55.7839 177.12 55.1612 177.12C54.5385 177.12 53.9244 176.974 53.3679 176.695L51.3432 175.527C50.8214 175.185 50.387 174.726 50.0749 174.186C49.7629 173.646 49.5819 173.04 49.5465 172.417V102.021Z" fill="#455A64"/>
<path d="M57.9702 104.827L50.0717 100.273C49.7482 100.808 49.5674 101.417 49.5465 102.042V172.424C49.5819 173.047 49.7629 173.653 50.0749 174.193C50.387 174.733 50.8214 175.192 51.3432 175.534L53.3679 176.702C53.9244 176.981 54.5385 177.127 55.1612 177.127C55.7839 177.127 56.398 176.981 56.9544 176.702L57.9702 176.114V104.827Z" fill="#263238"/>
<path d="M150.604 50.1589V120.562C150.581 121.206 150.387 121.833 150.044 122.379C149.779 122.839 149.421 123.239 148.994 123.554L148.925 123.595L148.807 123.671L56.9614 176.695C56.7856 176.819 56.5814 176.897 56.3675 176.921C56.1537 176.945 55.9373 176.915 55.7382 176.833C55.5439 176.708 55.3884 176.531 55.2895 176.322C55.1905 176.113 55.1521 175.881 55.1785 175.651V105.255C55.1629 105.003 55.2086 104.751 55.3118 104.521C55.415 104.29 55.5725 104.088 55.7709 103.932C55.9693 103.776 56.2026 103.67 56.4509 103.623C56.6992 103.577 56.9549 103.592 57.1963 103.666L95.8184 112.85L100.877 114.052C101.474 114.164 102.09 114.111 102.659 113.897C103.228 113.684 103.727 113.32 104.104 112.843L109.957 104.682L149.401 49.7651C150.037 48.8529 150.604 49.0118 150.604 50.1589Z" fill="#37474F"/>
<path d="M148.807 123.671L148.925 123.595L148.994 123.554C149.421 123.239 149.779 122.839 150.044 122.379C150.379 121.843 150.57 121.228 150.597 120.596L109.95 104.702L137.17 130.395L148.807 123.671Z" fill="#263238"/>
<path d="M55.1647 175.658C55.1383 175.888 55.1767 176.12 55.2757 176.329C55.3746 176.538 55.5301 176.715 55.7244 176.84C55.9235 176.922 56.1399 176.952 56.3537 176.928C56.5675 176.903 56.7718 176.826 56.9476 176.702L88.5694 158.444L95.7908 112.836L55.1509 174.476L55.1647 175.658Z" fill="#263238"/>
<path d="M150.037 122.379C149.772 122.839 149.414 123.239 148.987 123.554L148.918 123.595L56.9614 176.695C56.7856 176.819 56.5814 176.897 56.3676 176.921C56.1538 176.945 55.9373 176.915 55.7383 176.833L99.7159 106.624C100.598 105.215 101.958 104.171 103.547 103.684C105.136 103.196 106.847 103.298 108.368 103.97L150.037 122.379Z" fill="#37474F"/>
<path d="M55.1647 103.189L97.4078 121.847C98.9279 122.517 100.638 122.616 102.226 122.128C103.814 121.639 105.172 120.595 106.053 119.187L150.41 48.1618L55.1647 103.189Z" fill="#263238"/>
<path d="M55.1647 103.189L97.698 119.083C99.169 119.634 100.784 119.667 102.276 119.177C103.768 118.687 105.049 117.703 105.908 116.388L150.41 48.1618L55.1647 103.189Z" fill="#37474F"/>
<path d="M116.916 157.905V87.5026C116.98 86.1668 117.397 84.8721 118.125 83.7502L161.93 22.7524C162.729 21.638 163.842 20.7867 165.127 20.3067C166.412 19.8268 167.81 19.74 169.144 20.0574L210.337 29.8494C211.664 30.2027 212.945 30.713 214.152 31.3696L216.176 32.5375C216.697 32.8799 217.13 33.3396 217.441 33.8796C217.752 34.4197 217.931 35.025 217.966 35.6472V106.05C217.93 106.672 217.75 107.277 217.439 107.817C217.129 108.357 216.696 108.816 216.176 109.16L124.324 162.183C123.768 162.464 123.153 162.611 122.53 162.611C121.907 162.611 121.293 162.464 120.737 162.183L118.712 161.015C118.19 160.674 117.756 160.215 117.443 159.674C117.131 159.134 116.951 158.528 116.916 157.905Z" fill="#92E3A9"/>
<path opacity="0.3" d="M116.916 157.905V87.5026C116.98 86.1668 117.397 84.8721 118.125 83.7502L161.93 22.7524C162.729 21.638 163.842 20.7867 165.127 20.3067C166.412 19.8268 167.81 19.74 169.144 20.0574L210.337 29.8494C211.664 30.2027 212.945 30.713 214.152 31.3696L216.176 32.5375C216.697 32.8799 217.13 33.3396 217.441 33.8796C217.752 34.4197 217.931 35.025 217.966 35.6472V106.05C217.93 106.672 217.75 107.277 217.439 107.817C217.129 108.357 216.696 108.816 216.176 109.16L124.324 162.183C123.768 162.464 123.153 162.611 122.53 162.611C121.907 162.611 121.293 162.464 120.737 162.183L118.712 161.015C118.19 160.674 117.756 160.215 117.443 159.674C117.131 159.134 116.951 158.528 116.916 157.905Z" fill="white"/>
<path d="M125.333 53.4759V143.311C125.333 144.451 126.141 144.921 127.129 144.347L213.364 94.5926C213.887 94.2526 214.323 93.7936 214.635 93.2532C214.947 92.7128 215.127 92.1062 215.16 91.4829V1.64815C215.16 0.501032 214.359 0.0380371 213.364 0.611598L127.129 50.3663C126.606 50.7067 126.171 51.1658 125.859 51.7061C125.547 52.2464 125.366 52.8528 125.333 53.4759Z" fill="#FAFAFA"/>
<path d="M126.328 144.948C126.105 144.95 125.886 144.893 125.692 144.783C125.455 144.625 125.266 144.406 125.145 144.149C125.023 143.892 124.973 143.607 125.001 143.325V53.4897C125.034 52.805 125.229 52.1381 125.572 51.5443C125.915 50.9505 126.394 50.4471 126.97 50.076L213.205 0.321362C213.43 0.138015 213.705 0.0275002 213.995 0.00449801C214.284 -0.0185041 214.574 0.0470947 214.825 0.192584C215.076 0.338072 215.277 0.556561 215.401 0.81902C215.525 1.08148 215.567 1.37549 215.52 1.66198V91.4968C215.488 92.1807 215.292 92.8469 214.949 93.4397C214.607 94.0324 214.127 94.5344 213.55 94.9036L127.316 144.658C127.018 144.841 126.677 144.941 126.328 144.948ZM214.165 0.673792C213.942 0.686558 213.726 0.755492 213.537 0.874194L127.302 50.6634C126.833 50.975 126.442 51.3911 126.16 51.879C125.878 52.367 125.713 52.9136 125.678 53.4759V143.311C125.637 143.473 125.649 143.644 125.714 143.798C125.779 143.952 125.892 144.081 126.037 144.165C126.182 144.248 126.35 144.283 126.516 144.262C126.682 144.241 126.837 144.167 126.957 144.05L213.191 94.2955C213.661 93.9843 214.052 93.5683 214.334 93.0803C214.616 92.5922 214.78 92.0454 214.815 91.483V1.64816C214.834 1.48609 214.812 1.32173 214.751 1.1706C214.689 1.01946 214.59 0.886534 214.463 0.784361C214.375 0.721277 214.273 0.683059 214.165 0.673792Z" fill="#E0E0E0"/>
<path d="M123.474 89.2163L117.254 85.623C117.053 86.23 116.941 86.8632 116.923 87.5026V157.905C116.957 158.528 117.138 159.134 117.45 159.674C117.762 160.215 118.197 160.674 118.719 161.015L120.737 162.183C121.293 162.466 121.907 162.613 122.53 162.613C123.154 162.613 123.768 162.466 124.324 162.183L125.187 161.692L123.474 89.2163Z" fill="#92E3A9"/>
<g opacity="0.1">
<path d="M123.474 89.2163L117.254 85.623C117.053 86.23 116.941 86.8632 116.923 87.5026V157.905C116.957 158.528 117.138 159.134 117.45 159.674C117.762 160.215 118.197 160.674 118.719 161.015L120.737 162.183C121.293 162.466 121.907 162.613 122.53 162.613C123.154 162.613 123.768 162.466 124.324 162.183L125.187 161.692L123.474 89.2163Z" fill="black"/>
</g>
<path d="M217.973 35.6472V106.05C217.95 106.695 217.757 107.321 217.413 107.867C217.148 108.327 216.79 108.727 216.363 109.042L216.294 109.084L216.176 109.16L124.331 162.183C124.155 162.307 123.951 162.385 123.737 162.409C123.523 162.433 123.306 162.403 123.107 162.321C122.913 162.196 122.758 162.019 122.659 161.81C122.56 161.601 122.521 161.369 122.548 161.139V90.7435C122.532 90.4915 122.578 90.2394 122.681 90.0089C122.784 89.7784 122.942 89.5763 123.14 89.42C123.338 89.2638 123.572 89.158 123.82 89.1116C124.068 89.0653 124.324 89.0799 124.565 89.1542L163.167 98.338L168.225 99.5405C168.823 99.6536 169.441 99.6008 170.011 99.3876C170.581 99.1744 171.082 98.809 171.459 98.3311L177.319 90.17L216.764 35.2533C217.427 34.3411 217.973 34.5001 217.973 35.6472Z" fill="#92E3A9"/>
<path opacity="0.3" d="M217.973 35.6472V106.05C217.95 106.695 217.757 107.321 217.413 107.867C217.148 108.327 216.79 108.727 216.363 109.042L216.294 109.084L216.176 109.16L124.331 162.183C124.155 162.307 123.951 162.385 123.737 162.409C123.523 162.433 123.306 162.403 123.107 162.321C122.913 162.196 122.758 162.019 122.659 161.81C122.56 161.601 122.521 161.369 122.548 161.139V90.7435C122.532 90.4915 122.578 90.2394 122.681 90.0089C122.784 89.7784 122.942 89.5763 123.14 89.42C123.338 89.2638 123.572 89.158 123.82 89.1116C124.068 89.0653 124.324 89.0799 124.565 89.1542L163.167 98.338L168.225 99.5405C168.823 99.6536 169.441 99.6008 170.011 99.3876C170.581 99.1744 171.082 98.809 171.459 98.3311L177.319 90.17L216.764 35.2533C217.427 34.3411 217.973 34.5001 217.973 35.6472Z" fill="white"/>
<path d="M216.176 109.16L216.294 109.084L216.363 109.042C216.79 108.727 217.148 108.327 217.413 107.867C217.749 107.329 217.939 106.712 217.966 106.078L177.319 90.1838L204.539 115.883L216.176 109.16Z" fill="#92E3A9"/>
<path d="M122.534 161.146C122.507 161.376 122.546 161.608 122.645 161.817C122.744 162.026 122.899 162.203 123.094 162.328C123.293 162.41 123.509 162.44 123.723 162.416C123.937 162.392 124.141 162.314 124.317 162.19L155.939 143.933L163.16 98.3242L122.52 159.965L122.534 161.146Z" fill="#92E3A9"/>
<path d="M217.413 107.867C217.148 108.327 216.79 108.727 216.363 109.042L216.294 109.084L124.331 162.183C124.155 162.307 123.951 162.385 123.737 162.409C123.523 162.433 123.306 162.403 123.107 162.321L167.085 92.1118C167.967 90.7046 169.326 89.6619 170.913 89.1746C172.501 88.6874 174.211 88.788 175.73 89.4582L217.413 107.867Z" fill="#92E3A9"/>
<path opacity="0.3" d="M217.413 107.867C217.148 108.327 216.79 108.727 216.363 109.042L216.294 109.084L124.331 162.183C124.155 162.307 123.951 162.385 123.737 162.409C123.523 162.433 123.306 162.403 123.107 162.321L167.085 92.1118C167.967 90.7046 169.326 89.6619 170.913 89.1746C172.501 88.6874 174.211 88.788 175.73 89.4582L217.413 107.867Z" fill="white"/>
<path d="M163.305 74.1656C162.499 74.2903 161.674 74.2171 160.903 73.9523C160.131 73.6874 159.435 73.2389 158.876 72.6453C157.825 71.4774 157.3 69.6738 157.3 67.2483C157.302 64.5115 157.888 61.8067 159.021 59.3152C160.183 56.7513 161.788 54.4122 163.761 52.4048C165.883 50.2044 168.302 48.3111 170.948 46.7798C173.542 45.2871 175.755 44.4602 177.589 44.299C179.434 44.1331 180.823 44.6099 181.776 45.7156C182.73 46.8212 183.2 48.5143 183.2 50.7809C183.24 53.0288 182.707 55.25 181.652 57.2352C180.722 59.033 179.304 60.5323 177.561 61.5611C176.959 61.9886 176.222 62.1804 175.488 62.1001C175.227 62.0484 174.986 61.9225 174.795 61.7374C174.604 61.5522 174.47 61.3159 174.41 61.0566C173.835 62.145 173.104 63.1437 172.24 64.0212C171.367 64.9225 170.371 65.6971 169.283 66.3223C167.403 67.3865 165.903 67.7044 164.798 67.3381C163.692 66.9719 163.167 65.8524 163.167 63.9866C163.183 61.6419 163.905 59.3564 165.24 57.4287C166.693 55.2915 168.624 53.5218 170.879 52.2597C171.821 51.6988 172.844 51.2884 173.912 51.0435C174.707 50.8283 175.544 50.8283 176.338 51.0435V58.3201C176.338 58.9075 176.442 59.2668 176.642 59.405C176.842 59.5432 177.174 59.4741 177.644 59.2046C178.519 58.6352 179.167 57.7769 179.475 56.7791C179.943 55.4312 180.165 54.0106 180.132 52.5845C180.132 50.7694 179.736 49.4495 178.943 48.6248C178.52 48.2109 178.003 47.9045 177.437 47.7313C176.871 47.5582 176.271 47.5233 175.688 47.6298C174.001 47.8875 172.385 48.4897 170.941 49.3988C167.886 51.0936 165.252 53.4557 163.236 56.3092C161.373 58.9871 160.383 62.1756 160.403 65.4378C160.403 67.4234 160.81 68.8722 161.626 69.7844C162.049 70.241 162.578 70.5859 163.166 70.7885C163.754 70.991 164.384 71.0449 164.998 70.9453C166.718 70.7017 168.366 70.0964 169.835 69.1694C170.849 68.583 171.809 67.9077 172.703 67.1515C173.536 66.4641 174.293 65.6905 174.963 64.8435C175.032 64.7543 175.114 64.6752 175.205 64.6085C175.267 64.574 175.329 64.6085 175.384 64.6915L176.145 66.0735C176.172 66.1283 176.193 66.1864 176.207 66.2463C176.183 66.4002 176.107 66.5415 175.992 66.6471C175.157 67.651 174.232 68.5763 173.228 69.4112C172.171 70.298 171.041 71.0933 169.849 71.7884C167.864 73.042 165.632 73.8529 163.305 74.1656ZM172.289 61.1741C172.946 60.3977 173.33 59.4263 173.38 58.4099V54.1946C172.394 54.2779 171.444 54.6056 170.616 55.1482C169.298 55.8897 168.175 56.9343 167.341 58.1957C166.558 59.3529 166.137 60.7168 166.131 62.1139C166.131 63.2817 166.422 63.9797 167.009 64.187C167.596 64.3943 168.502 64.187 169.739 63.4476C170.74 62.8682 171.616 62.0954 172.316 61.1741H172.289Z" fill="#E0E0E0"/>
<path d="M75.2945 81.0898L68.5569 77.1854H68.5085C66.2073 75.8863 63.0355 76.0797 59.525 78.1045C52.4695 82.1747 46.7546 92.0773 46.7546 100.218C46.7546 104.288 48.1782 107.128 50.4793 108.51L56.747 112.097L57.8803 110.21C59.1657 109.922 60.4003 109.442 61.5428 108.787C68.5914 104.709 74.3132 94.8068 74.3132 86.6733C74.3094 85.5741 74.1748 84.4791 73.9124 83.4116L75.2945 81.0898Z" fill="#F28F8F"/>
<path d="M75.2945 81.0898L68.5569 77.1854H68.5085C66.2073 75.8863 63.0355 76.0797 59.525 78.1045C52.4695 82.1747 46.7546 92.0773 46.7546 100.218C46.7546 104.288 48.1782 107.128 50.4793 108.51L56.747 112.097L57.8803 110.21C59.1657 109.922 60.4003 109.442 61.5428 108.787C68.5914 104.709 74.3132 94.8068 74.3132 86.6733C74.3094 85.5741 74.1748 84.4791 73.9124 83.4116L75.2945 81.0898Z" fill="#92E3A9"/>
<path opacity="0.4" d="M75.2945 81.0898L68.5569 77.1854H68.5085C66.2073 75.8863 63.0355 76.0797 59.525 78.1045C52.4695 82.1747 46.7546 92.0773 46.7546 100.218C46.7546 104.288 48.1782 107.128 50.4793 108.51L56.747 112.097L57.8803 110.21C59.1657 109.922 60.4003 109.442 61.5428 108.787C68.5914 104.709 74.3132 94.8068 74.3132 86.6733C74.3094 85.5741 74.1748 84.4791 73.9124 83.4116L75.2945 81.0898Z" fill="black"/>
<path d="M66 81.8153C58.9445 85.8925 53.2296 95.795 53.2296 103.929C53.2296 112.062 58.9445 115.372 66 111.302C73.0555 107.232 78.7703 97.3291 78.7703 89.1887C78.7703 81.0483 73.0555 77.7451 66 81.8153Z" fill="#92E3A9"/>
<path d="M61.0107 105.877C60.8794 105.877 60.8103 105.801 60.8103 105.684C60.8239 105.554 60.8614 105.427 60.9209 105.311L61.5635 103.866C61.6061 103.725 61.6904 103.6 61.8054 103.507C61.9011 103.464 62.0045 103.44 62.1095 103.438C62.6845 103.404 63.2519 103.29 63.7956 103.099C64.5185 102.856 65.2134 102.536 65.8687 102.146C66.8883 101.593 67.7824 100.836 68.4946 99.9205C69.0288 99.2283 69.3267 98.383 69.3446 97.5088C69.3446 95.9816 68.4117 95.7605 66.5459 96.8178L64.7285 97.9165C64.4313 98.0824 64.224 98.1445 64.0996 98.0893C63.9753 98.034 63.9131 97.8681 63.9131 97.5917V97.0182C63.9032 96.7742 63.9683 96.533 64.0996 96.3271C64.2661 96.1024 64.481 95.9182 64.7285 95.7881L66.5321 94.7446C67.2548 94.3514 67.8677 93.7836 68.315 93.0931C68.6898 92.5136 68.8956 91.8412 68.9093 91.1513C68.9093 89.6724 67.8681 89.5342 65.7858 90.7366C64.5052 91.4663 63.3521 92.4 62.372 93.5008C62.28 93.6047 62.1781 93.6996 62.068 93.7841C62.0273 93.8034 61.9814 93.8084 61.9375 93.7984C61.8936 93.7884 61.8544 93.7639 61.8261 93.7288L61.2111 93.0378C61.1768 93.006 61.1493 92.9675 61.1303 92.9247C61.1113 92.882 61.1012 92.8358 61.1005 92.789C61.1145 92.6304 61.1829 92.4815 61.294 92.3675C61.9062 91.6018 62.6015 90.9065 63.3671 90.2944C64.2587 89.5678 65.2086 88.9161 66.2073 88.3456C67.1089 87.7845 68.1035 87.389 69.1442 87.1778C69.4717 87.098 69.8127 87.0906 70.1433 87.1563C70.4739 87.2219 70.7862 87.359 71.0584 87.5579C71.3038 87.7945 71.4932 88.0829 71.6127 88.4022C71.7323 88.7214 71.779 89.0633 71.7494 89.4029C71.7338 90.1638 71.5646 90.9136 71.2519 91.6073C70.9179 92.4081 70.4506 93.1464 69.8698 93.791C70.1681 93.691 70.4868 93.6684 70.7962 93.7252C71.1056 93.782 71.3956 93.9164 71.6389 94.1158C71.8518 94.3636 72.0134 94.6513 72.1142 94.9621C72.215 95.2729 72.2531 95.6007 72.2262 95.9263C72.1734 97.4583 71.6363 98.9341 70.6921 100.142C69.5331 101.696 68.053 102.983 66.3524 103.915C63.92 105.338 62.1394 105.992 61.0107 105.877Z" fill="white"/>
<path d="M205.921 180.903L206.053 180.786C206.149 180.703 206.253 180.62 206.343 180.53L206.654 180.226L206.965 179.929C207.147 179.758 207.32 179.578 207.483 179.39L209.943 181.228L211.581 182.451C210.985 183.097 210.499 183.837 210.144 184.642C210.144 184.642 209.653 185.436 207.987 185.036C205.928 184.559 205.603 181.532 205.921 180.903Z" fill="#FFA8A7"/>
<path d="M181.825 180.06C179.945 177.876 181.618 174.248 183.442 169.542C185.446 164.367 188.542 155.57 188.542 155.57L210.524 151.03C210.524 151.03 233.943 150.58 236.092 155.058C237.833 158.645 222.409 164.042 220.198 164.235L206.661 164.947L205.237 165.638L195.728 177.669L181.825 180.06Z" fill="#92E3A9"/>
<path d="M222.326 158.728C220.619 160.464 219.029 162.311 217.565 164.256C213.606 169.784 207.338 179.825 207.338 179.825C207.338 179.825 208.312 183.004 211.304 182.866C211.304 182.866 231.897 163.634 233.583 161.858C236.133 159.163 238.179 154.72 233.77 154.354C229.361 153.987 224.04 156.876 222.326 158.728Z" fill="#92E3A9"/>
<path d="M217.455 164.367C217.455 164.367 221.131 158.99 224.939 156.765C224.939 156.765 221.152 157.512 215.416 164.491L217.455 164.367Z" fill="#92E3A9"/>
<path opacity="0.1" d="M217.455 164.367C217.455 164.367 221.131 158.99 224.939 156.765C224.939 156.765 221.152 157.512 215.416 164.491L217.455 164.367Z" fill="black"/>
<path d="M219.956 171.166L218.512 171.443L219.853 176.398C219.853 176.398 221.152 176.273 221.601 176.301C222.255 176.146 222.885 175.901 223.474 175.575L223.128 172.548L221.539 170.89L219.956 171.166Z" fill="#FFA8A7"/>
<path d="M231.358 172.334C232.048 172.612 232.672 173.029 233.193 173.56C233.714 174.09 234.12 174.722 234.385 175.416C234.693 176.142 234.945 176.891 235.138 177.655C235.366 178.457 235.256 179.818 234.24 180.039C233.91 180.078 233.575 180.018 233.279 179.867C231.241 179.079 229.251 178.167 227.164 177.503C225.375 176.841 223.503 176.434 221.601 176.294C222.033 175.629 222.249 174.846 222.22 174.053C222.19 173.26 221.916 172.496 221.435 171.864C221.026 171.486 220.509 171.244 219.956 171.173C220.481 170.938 220.972 170.634 221.476 170.351C222.416 169.694 223.566 169.411 224.704 169.556C225.574 169.743 226.238 170.434 226.977 170.938C228.387 171.857 229.748 171.795 231.358 172.334Z" fill="#263238"/>
<path d="M184.789 175.313C186.607 174.753 189.509 174.255 198.119 173.813C206.73 173.371 218.512 171.436 218.512 171.436C220.516 173.364 219.853 176.391 219.853 176.391C219.853 176.391 204.56 181.228 199.578 181.871C191.644 182.893 188.908 182.817 185.328 182.05C181.307 181.186 178.77 177.158 184.789 175.313Z" fill="#92E3A9"/>
<path d="M216.259 134.3L222.727 149.758L218.097 152.605L209.197 137.534L216.259 134.3Z" fill="#F28F8F"/>
<path d="M202.881 119.733C206.419 119.774 210.309 121.059 211.65 123.83L217.178 135.233C217.178 135.233 214.055 139.807 209.093 139.482L202.881 119.733Z" fill="#E0E0E0"/>
<path d="M179.358 143.76C179.399 143.159 180.263 140.222 181.189 137.057L187.906 139.379L186.102 145.066L180.443 150.435C179.217 148.44 178.827 146.041 179.358 143.76Z" fill="#FFA8A7"/>
<path d="M195.645 119.947C191.43 120.963 185.688 122.282 184.022 126.857C182.357 131.432 179.973 139.51 179.973 139.51C180.899 141.113 185.978 142.44 187.74 141.514L188.569 138.75V155.556C191.866 159.142 208.126 158.223 210.551 151.016V128.122C210.551 124.459 208.52 120.057 202.901 119.733L195.645 119.947Z" fill="#FAFAFA"/>
<path d="M188.549 138.764L190.663 132.109L188.549 141.742V138.764Z" fill="#E0E0E0"/>
<path d="M194.042 101.213C193.667 101.164 193.286 101.201 192.927 101.321C192.568 101.44 192.24 101.64 191.969 101.904C191.078 102.816 191.278 104.502 191.969 108.372L194.733 108.683L194.042 101.213Z" fill="#263238"/>
<path d="M210.081 100.093C210.673 100.096 211.259 99.9759 211.802 99.7408C212.645 99.2571 212.866 100.218 212.403 101.047C212.097 101.645 211.643 102.154 211.084 102.527C210.525 102.9 209.88 103.123 209.211 103.175C209.211 103.058 208.423 101.026 208.423 101.026L210.081 100.093Z" fill="#263238"/>
<path d="M195.335 108.724C194.927 108.966 194.339 108.185 193.835 107.653C193.637 107.427 193.385 107.255 193.102 107.153C192.819 107.051 192.515 107.023 192.218 107.072C191.922 107.12 191.642 107.243 191.406 107.43C191.171 107.616 190.986 107.859 190.87 108.137C190.034 109.899 191.935 112.242 193.047 113.016C193.359 113.285 193.749 113.449 194.16 113.483C194.57 113.518 194.982 113.422 195.335 113.209L195.625 119.947C196.118 121.027 196.87 121.967 197.816 122.685C198.761 123.402 199.87 123.874 201.043 124.058C204.995 124.591 204.18 121.329 202.881 119.733V117.266C203.87 117.477 204.888 117.528 205.894 117.418C206.405 117.279 207.635 115.794 208.43 114.128C209.321 112.262 210.807 108.945 209.487 103.327C208.063 97.3015 201.588 97.108 197.739 99.5474C193.89 101.987 195.335 108.724 195.335 108.724Z" fill="#FFA8A7"/>
<path d="M195.335 109.408C195.127 109.408 194.346 108.116 193.835 107.653C193.144 107.011 194.042 101.213 194.042 101.213C194.042 101.213 193.351 99.0084 194.733 97.5503C196.115 96.0922 198.824 96.334 200.801 96.2649C203.222 96.2782 205.621 95.7961 207.849 94.8483C210.655 93.6321 210.862 93.4662 211.208 94.717C211.553 95.9678 211.691 98.7665 210.019 100.653L209.107 102.139C209.107 102.139 208.257 102.83 205.652 103.175C203.047 103.521 198.582 102.09 198.05 102.014C197.29 101.911 197.131 102.643 196.724 104.647C196.337 106.409 196.026 109.395 195.335 109.408Z" fill="#263238"/>
<path d="M194.049 101.662L191.575 100.335C191.657 100.171 191.77 100.024 191.909 99.9039C192.047 99.7837 192.208 99.6924 192.383 99.6351C192.557 99.5779 192.741 99.5559 192.924 99.5705C193.107 99.5851 193.285 99.636 193.448 99.7201C193.777 99.9056 194.023 100.21 194.135 100.571C194.247 100.933 194.216 101.323 194.049 101.662Z" fill="#263238"/>
<path d="M202.874 117.266C202.874 117.266 199.211 116.526 197.933 115.883C197.181 115.489 196.564 114.877 196.164 114.128C196.358 114.88 196.701 115.585 197.173 116.201C198.106 117.397 202.874 118.274 202.874 118.274V117.266Z" fill="#F28F8F"/>
<path d="M202.991 108.586C202.986 108.73 202.938 108.869 202.855 108.985C202.771 109.102 202.655 109.192 202.52 109.243C202.386 109.294 202.24 109.305 202.1 109.273C201.959 109.242 201.831 109.17 201.732 109.067C201.632 108.963 201.565 108.833 201.539 108.692C201.513 108.55 201.529 108.404 201.585 108.272C201.641 108.14 201.735 108.027 201.855 107.948C201.975 107.868 202.115 107.826 202.259 107.826C202.357 107.828 202.453 107.849 202.543 107.888C202.633 107.927 202.714 107.984 202.782 108.054C202.85 108.125 202.904 108.208 202.94 108.299C202.976 108.391 202.993 108.488 202.991 108.586Z" fill="#263238"/>
<path d="M202.217 105.822L200.642 106.686C200.533 106.47 200.51 106.22 200.578 105.988C200.646 105.756 200.8 105.558 201.008 105.435C201.112 105.378 201.227 105.343 201.345 105.332C201.463 105.321 201.582 105.334 201.695 105.37C201.808 105.406 201.913 105.465 202.003 105.542C202.092 105.62 202.165 105.715 202.217 105.822Z" fill="#263238"/>
<path d="M202.556 113.492L204.235 114.128C204.198 114.24 204.139 114.344 204.061 114.433C203.983 114.521 203.888 114.594 203.782 114.645C203.675 114.697 203.56 114.726 203.442 114.733C203.324 114.739 203.206 114.721 203.095 114.681C202.869 114.591 202.686 114.417 202.585 114.196C202.485 113.974 202.474 113.722 202.556 113.492Z" fill="#F28F8F"/>
<path d="M209.535 106.43L208.105 105.324C208.173 105.228 208.259 105.147 208.359 105.085C208.459 105.024 208.571 104.983 208.687 104.966C208.803 104.948 208.922 104.954 209.036 104.984C209.149 105.014 209.256 105.066 209.349 105.138C209.54 105.288 209.666 105.506 209.701 105.747C209.735 105.987 209.676 106.232 209.535 106.43Z" fill="#263238"/>
<path d="M209.093 108.379C209.088 108.522 209.04 108.661 208.956 108.778C208.873 108.895 208.757 108.984 208.622 109.036C208.488 109.087 208.342 109.097 208.202 109.066C208.061 109.035 207.933 108.963 207.834 108.859C207.734 108.756 207.667 108.625 207.641 108.484C207.615 108.343 207.631 108.197 207.687 108.065C207.743 107.933 207.837 107.82 207.957 107.74C208.076 107.661 208.217 107.619 208.361 107.619C208.459 107.62 208.555 107.642 208.645 107.681C208.735 107.72 208.816 107.776 208.884 107.847C208.952 107.918 209.006 108.001 209.042 108.092C209.077 108.183 209.095 108.281 209.093 108.379Z" fill="#263238"/>
<path d="M205.638 108.289L204.947 112.656L207.366 112.373L205.638 108.289Z" fill="#F28F8F"/>
<path d="M230.847 157.885L215.955 149.288C215.825 149.214 215.677 149.174 215.527 149.174C215.376 149.174 215.229 149.214 215.098 149.288L188.984 164.367L204.297 173.24L230.847 157.885Z" fill="#37474F"/>
<path d="M204.159 171.947L196.129 167.317L219.611 153.759L227.682 158.368L204.159 171.947Z" fill="#263238"/>
<path d="M200.213 159.066L200.365 159.149L204.297 161.423L211.297 157.38L211.443 157.297L207.359 154.941L200.213 159.066Z" fill="#263238"/>
<path d="M200.365 159.149L204.297 161.423L211.298 157.38L207.359 155.107L200.365 159.149Z" fill="#263238"/>
<path d="M188.984 164.367V164.719C188.982 164.968 189.045 165.214 189.166 165.432C189.287 165.65 189.462 165.833 189.675 165.963L203.551 173.972C203.769 174.099 204.017 174.166 204.27 174.166C204.522 174.166 204.77 174.099 204.988 173.972L230.101 159.46C230.313 159.33 230.488 159.147 230.609 158.929C230.73 158.711 230.793 158.466 230.792 158.216V157.864L204.297 173.24L188.984 164.367Z" fill="#263238"/>
<path d="M204.297 173.24V174.193C204.541 174.191 204.779 174.124 204.988 174L230.101 159.488C230.313 159.357 230.488 159.174 230.609 158.956C230.73 158.739 230.793 158.493 230.792 158.244V157.892L204.297 173.24Z" fill="#263238"/>
<path d="M204.705 173.426C204.943 173.517 205.197 173.553 205.451 173.533C205.704 173.513 205.95 173.436 206.17 173.309L231.172 158.873C231.389 158.748 231.575 158.577 231.717 158.372C231.86 158.166 231.954 157.931 231.994 157.684L234.758 141.369C234.765 141.275 234.765 141.18 234.758 141.086C234.757 140.632 234.576 140.197 234.254 139.876L208.271 154.879C208.111 154.971 207.974 155.098 207.868 155.249C207.763 155.401 207.693 155.574 207.663 155.756L204.705 173.426Z" fill="#263238"/>
<path d="M204.297 173.24L204.47 173.336C204.546 173.38 204.625 173.419 204.705 173.454L207.663 155.784C207.693 155.602 207.763 155.429 207.868 155.277C207.974 155.125 208.111 154.999 208.271 154.906L234.254 139.904C234.148 139.805 234.032 139.717 233.908 139.641L207.877 154.644C207.716 154.736 207.578 154.863 207.472 155.014C207.366 155.166 207.294 155.339 207.262 155.521L204.297 173.24Z" fill="#455A64"/>
<path d="M218.781 158.355C219.175 156.99 220.078 155.83 221.304 155.114C222.513 154.423 223.342 154.734 223.163 155.805C222.769 157.169 221.866 158.329 220.64 159.046C219.431 159.771 218.602 159.419 218.781 158.355Z" fill="#37474F"/>
<path d="M186.102 145.052C186.102 145.052 190.587 162.328 192.481 163.565C194.374 164.802 197.898 165.707 199.584 166.329C201.271 166.951 202.038 167.801 201.747 168.036C201.457 168.271 199.025 168.527 198.182 168.824C197.339 169.121 198.43 170.482 200.296 171.927C202.162 173.371 203.751 173.24 203.544 174.2C203.337 175.161 199.177 176.121 195.666 174.062C192.156 172.003 191.092 169.225 188.998 166.868C186.904 164.512 182.122 154.72 180.443 150.435C180.443 150.435 180.602 142.475 183.207 142.979C185.812 143.483 186.102 145.052 186.102 145.052Z" fill="#FFA8A7"/>
<path d="M207.442 180.06C207.759 180.827 208.858 182.942 211.304 182.824L217.316 177.199L207.442 180.06Z" fill="#92E3A9"/>
<path opacity="0.1" d="M207.442 180.06C207.759 180.827 208.858 182.942 211.304 182.824L217.316 177.199L207.442 180.06Z" fill="black"/>
<path d="M209.259 189.956C209.201 188.146 209.499 186.343 210.137 184.649C209.847 184.851 209.513 184.98 209.163 185.026C208.813 185.071 208.457 185.032 208.126 184.911C206.115 184.31 205.61 181.504 205.928 180.896C205.638 181.152 205.334 181.394 205.037 181.643C204.084 182.282 203.406 183.256 203.136 184.372C202.998 185.25 203.406 186.114 203.606 186.984C203.993 188.643 203.606 190.37 203.544 192.07C203.558 192.812 203.724 193.543 204.032 194.218C204.34 194.894 204.783 195.498 205.334 195.995C205.9 196.548 206.51 197.054 207.158 197.509C207.394 197.774 207.706 197.959 208.052 198.039C208.397 198.119 208.759 198.09 209.087 197.956C209.415 197.822 209.694 197.589 209.884 197.29C210.075 196.991 210.168 196.64 210.15 196.286C209.888 194.13 209.383 192.202 209.259 189.956Z" fill="#263238"/>
<path d="M211.539 182.465C211.353 182.817 211.187 183.156 211.042 183.495C211.215 183.163 211.38 182.817 211.539 182.465Z" fill="#37474F"/>
</svg>
