<svg width="322" height="301" viewBox="0 0 322 301" fill="none" xmlns="http://www.w3.org/2000/svg">
<path d="M160.923 300.496C249.798 300.496 321.846 258.898 321.846 207.585C321.846 156.272 249.798 114.675 160.923 114.675C72.0477 114.675 0 156.272 0 207.585C0 258.898 72.0477 300.496 160.923 300.496Z" fill="#F0F0F0"/>
<path d="M127.624 277.989C158.271 277.989 183.116 263.646 183.116 245.953C183.116 228.26 158.271 213.917 127.624 213.917C96.9763 213.917 72.1316 228.26 72.1316 245.953C72.1316 263.646 96.9763 277.989 127.624 277.989Z" fill="#E0E0E0"/>
<path d="M285.432 205.871L278.922 202.114C278.922 202.114 277.331 188.18 278.39 177.387C279.879 162.223 289.674 143.972 301.354 148.261C313.035 152.551 295.999 167.988 292.208 180.85C288.417 193.712 285.432 205.871 285.432 205.871Z" fill="#92E3A9"/>
<path opacity="0.15" d="M285.432 205.871L278.922 202.114C278.922 202.114 277.331 188.18 278.39 177.387C279.879 162.223 289.674 143.972 301.354 148.261C313.035 152.551 295.999 167.988 292.208 180.85C288.417 193.712 285.432 205.871 285.432 205.871Z" fill="black"/>
<path d="M282.01 204.293C282.114 204.288 282.211 204.242 282.282 204.165C282.352 204.088 282.389 203.987 282.386 203.883C281.245 170.188 298.021 153.234 298.185 153.07C298.259 152.996 298.301 152.895 298.301 152.79C298.301 152.685 298.259 152.584 298.185 152.51C298.149 152.473 298.106 152.444 298.058 152.425C298.011 152.405 297.96 152.395 297.908 152.395C297.857 152.395 297.806 152.405 297.758 152.425C297.711 152.444 297.668 152.473 297.632 152.51C297.454 152.674 280.439 169.873 281.593 203.91C281.595 203.963 281.607 204.015 281.629 204.063C281.651 204.111 281.682 204.154 281.721 204.189C281.76 204.225 281.806 204.252 281.855 204.27C281.905 204.288 281.957 204.296 282.01 204.293Z" fill="white"/>
<path d="M289.524 208.214L284.892 205.543C284.892 205.543 284.1 195.98 288.793 184.368C292.891 174.259 303 165.864 308.096 167.626C313.192 169.388 313.062 173.002 310.576 176.793C308.089 180.584 292.987 189.607 289.524 208.214Z" fill="#92E3A9"/>
<path d="M287.078 207.203C287.183 207.201 287.282 207.159 287.356 207.085C287.43 207.011 287.473 206.911 287.474 206.807C287.379 185.495 307.386 171.096 307.591 170.953C307.633 170.923 307.67 170.886 307.697 170.842C307.725 170.798 307.744 170.75 307.752 170.698C307.76 170.647 307.758 170.595 307.746 170.545C307.733 170.495 307.711 170.447 307.679 170.406C307.619 170.322 307.528 170.265 307.426 170.247C307.323 170.229 307.218 170.252 307.133 170.311C306.928 170.454 286.593 185.099 286.682 206.807C286.682 206.912 286.724 207.013 286.798 207.087C286.872 207.161 286.973 207.203 287.078 207.203Z" fill="white"/>
<path d="M44.5699 197.503L50.5809 193.446C50.5809 193.446 53.2243 177.735 50.7653 163.876C47.309 144.436 33.8731 137.974 29.0917 140.024C24.3102 142.073 23.2856 147.858 32.2133 158.951C37.507 165.474 44.3855 179.402 44.5699 197.503Z" fill="#92E3A9"/>
<g opacity="0.15">
<path d="M44.5699 197.503L50.5809 193.446C50.5809 193.446 53.2243 177.735 50.7653 163.876C47.309 144.436 33.8731 137.974 29.0917 140.024C24.3102 142.073 23.2856 147.858 32.2133 158.951C37.507 165.474 44.3855 179.402 44.5699 197.503Z" fill="black"/>
</g>
<path d="M46.6328 189.716H46.5713C46.5099 189.713 46.45 189.696 46.3955 189.667C46.341 189.639 46.2932 189.599 46.2552 189.55C46.2172 189.502 46.1897 189.446 46.1748 189.387C46.1598 189.327 46.1576 189.265 46.1683 189.204C48.3404 170.905 40.615 151.041 32.2064 143.138C32.1255 143.056 32.0801 142.946 32.0801 142.831C32.0801 142.716 32.1255 142.605 32.2064 142.524C32.2465 142.483 32.2943 142.45 32.3471 142.428C32.3999 142.406 32.4566 142.394 32.5138 142.394C32.5711 142.394 32.6278 142.406 32.6805 142.428C32.7333 142.45 32.7811 142.483 32.8212 142.524C41.3868 150.57 49.2557 170.761 47.0563 189.327C47.0434 189.432 46.9937 189.528 46.9161 189.6C46.8385 189.671 46.7381 189.712 46.6328 189.716Z" fill="white"/>
<path d="M28.8321 208.118C27.8759 208.692 25.089 206.622 24.3171 206.124C22.9943 205.26 21.9167 204.069 21.1887 202.667C20.3719 201.077 20.0688 199.273 20.3212 197.503C20.4611 196.58 20.6642 195.667 20.9291 194.771C21.1682 193.876 21.4072 192.981 21.6122 192.08C21.9151 191.203 22.0314 190.272 21.9537 189.348C21.6873 187.524 20.0411 186.274 18.5384 185.201C16.8854 184.006 15.123 182.428 15.123 180.229C15.2073 178.501 15.8687 176.851 17.0015 175.543C18.0261 174.177 19.2556 172.988 20.1777 171.561C20.8988 170.571 21.2668 169.369 21.2228 168.145C21.1041 167.391 20.8346 166.669 20.4305 166.021C19.6244 164.6 18.5794 163.289 18.0124 161.779C17.4455 160.27 17.4864 158.33 18.6955 157.203C19.6586 156.28 21.1272 156.13 22.4592 156.192C23.7143 156.317 24.9267 156.715 26.0111 157.36C29.5425 159.238 31.619 163.337 35.3554 164.764C36.7967 165.311 38.3677 165.406 39.8636 165.775C41.3595 166.144 42.9033 166.875 43.6205 168.234C45.0344 170.932 42.5686 174.334 43.5795 177.196C44.4811 179.737 46.9948 180.666 48.4156 182.94C48.9922 183.951 49.2315 185.118 49.0987 186.274C49.0185 188.224 48.5809 190.144 47.8077 191.936C46.9183 193.796 45.9146 195.598 44.8022 197.333C44.8022 197.333 28.9756 208.029 28.8321 208.118Z" fill="#92E3A9"/>
<path d="M38.0672 202.456C38.0098 202.455 37.9531 202.442 37.9004 202.42C37.8477 202.397 37.8 202.364 37.76 202.323C37.7201 202.281 37.6886 202.233 37.6675 202.179C37.6463 202.126 37.6359 202.069 37.6368 202.012C38.0194 184.716 29.5084 165.809 23.4838 160.345C23.3981 160.267 23.3465 160.159 23.3401 160.044C23.3337 159.929 23.3731 159.816 23.4496 159.73C23.4897 159.689 23.5375 159.657 23.5903 159.634C23.643 159.612 23.6997 159.601 23.757 159.601C23.8142 159.601 23.8709 159.612 23.9237 159.634C23.9765 159.657 24.0243 159.689 24.0644 159.73C30.2119 165.263 38.8937 184.498 38.5043 202.032C38.5034 202.089 38.4914 202.144 38.469 202.196C38.4465 202.248 38.4141 202.295 38.3735 202.334C38.3329 202.374 38.2849 202.405 38.2324 202.425C38.1798 202.446 38.1237 202.456 38.0672 202.456Z" fill="white"/>
<path d="M34.8772 181.383C34.8369 181.393 34.7947 181.393 34.7543 181.383C29.1668 179.771 22.2406 179.607 22.1723 179.6C22.1151 179.599 22.0588 179.587 22.0065 179.564C21.9541 179.541 21.9069 179.508 21.8675 179.467C21.8281 179.426 21.7973 179.377 21.7769 179.324C21.7565 179.27 21.7469 179.213 21.7488 179.156C21.7477 179.099 21.7586 179.041 21.7808 178.988C21.803 178.935 21.836 178.887 21.8778 178.847C21.9195 178.807 21.969 178.776 22.0233 178.757C22.0775 178.737 22.1352 178.729 22.1927 178.733C22.2611 178.733 29.2966 178.904 34.9934 180.543C35.1035 180.576 35.196 180.651 35.251 180.752C35.306 180.853 35.3189 180.972 35.2871 181.082C35.2605 181.17 35.2062 181.247 35.1323 181.301C35.0584 181.355 34.9689 181.384 34.8772 181.383Z" fill="white"/>
<path d="M195.869 185.611L193.28 184.115C192.848 183.835 192.489 183.457 192.232 183.012C191.974 182.567 191.825 182.067 191.798 181.554V73.9576C191.826 73.4449 191.974 72.946 192.23 72.5011C192.486 72.0562 192.844 71.6777 193.273 71.3961L265.234 29.8521C265.692 29.6199 266.199 29.4989 266.713 29.4989C267.226 29.4989 267.733 29.6199 268.191 29.8521L270.78 31.3481C271.212 31.6281 271.571 32.0061 271.828 32.4512C272.086 32.8963 272.235 33.396 272.262 33.9095V141.506C272.234 142.018 272.086 142.517 271.83 142.962C271.574 143.407 271.216 143.786 270.787 144.067L198.826 185.618C198.368 185.851 197.861 185.972 197.347 185.97C196.832 185.969 196.326 185.846 195.869 185.611Z" fill="#455A64"/>
<path d="M272.262 33.6705C272.16 32.9054 271.538 32.6254 270.794 33.0557L198.826 74.6065C198.391 74.8795 198.032 75.2577 197.781 75.7062L192.228 72.5027C192.476 72.0508 192.836 71.6699 193.273 71.3961L265.234 29.8521C265.692 29.6199 266.199 29.4989 266.713 29.4989C267.226 29.4989 267.733 29.6199 268.191 29.8521L270.78 31.3481C271.18 31.6055 271.52 31.9463 271.775 32.3471C272.031 32.748 272.197 33.1994 272.262 33.6705Z" fill="#455A64"/>
<path d="M198.574 185.734C198.136 185.911 197.666 185.993 197.195 185.973C196.723 185.952 196.262 185.832 195.841 185.618L193.246 184.115C192.816 183.834 192.459 183.455 192.203 183.01C191.947 182.565 191.798 182.066 191.77 181.554V73.9576C191.788 73.4439 191.936 72.9432 192.201 72.5027L197.754 75.7062C197.484 76.1474 197.333 76.6511 197.317 77.168V184.764C197.344 185.611 197.877 186.001 198.574 185.734Z" fill="#263238"/>
<path d="M197.344 77.1816V184.764C197.344 185.707 198.027 186.089 198.826 185.618L270.787 144.067C271.216 143.786 271.574 143.407 271.83 142.962C272.086 142.517 272.234 142.018 272.262 141.506V33.9095C272.262 32.9669 271.579 32.5844 270.787 33.0557L198.826 74.6065C198.393 74.8879 198.033 75.268 197.775 75.7157C197.518 76.1633 197.37 76.6658 197.344 77.1816Z" fill="#37474F"/>
<path d="M180.541 118.165C179.612 117.612 175.302 115.16 175.076 115.03C174.9 114.925 174.751 114.783 174.638 114.612C174.525 114.442 174.451 114.248 174.423 114.045C174.395 113.843 174.412 113.636 174.475 113.442C174.537 113.247 174.642 113.068 174.782 112.92L191.798 94.6681L197.344 97.8512L180.336 116.116C180.202 116.259 180.101 116.428 180.038 116.612C179.975 116.797 179.953 116.993 179.972 117.187C179.992 117.382 180.052 117.569 180.15 117.738C180.248 117.907 180.382 118.053 180.541 118.165Z" fill="#455A64"/>
<path d="M197.344 97.8716L180.336 116.116C180.147 116.318 180.024 116.572 179.982 116.845C179.941 117.119 179.983 117.398 180.104 117.646C180.224 117.895 180.417 118.101 180.658 118.238C180.898 118.374 181.174 118.435 181.449 118.411L197.344 117.1V97.8716Z" fill="#37474F"/>
<path d="M234.803 65.0231C243.191 60.1802 249.988 64.1078 249.988 73.7936C249.988 83.4795 243.191 95.2487 234.803 100.092C226.415 104.935 219.619 101.007 219.619 91.3279C219.619 81.6489 226.415 69.866 234.803 65.0231Z" fill="#92E3A9"/>
<path d="M234.694 72.6461C237.426 71.0751 239.619 72.3456 239.619 75.4876C239.526 77.1957 239.031 78.8577 238.176 80.3388C237.32 81.8199 236.127 83.0785 234.694 84.0123C231.962 85.5833 229.762 84.3128 229.762 81.1707C229.856 79.4621 230.352 77.7997 231.208 76.3185C232.065 74.8374 233.259 73.5791 234.694 72.6461Z" fill="white"/>
<path d="M244.407 89.3948C244.407 84.2377 240.78 82.1407 236.313 84.7227L233.519 86.3347C229.052 88.9167 225.425 95.2145 225.425 100.358V101.772C226.268 102.042 227.149 102.178 228.034 102.175C230.431 102.093 232.764 101.387 234.803 100.126C238.686 97.734 241.971 94.4865 244.407 90.6312V89.3948Z" fill="white"/>
<path d="M225.186 148.036L244.421 136.929C245.24 136.458 245.903 136.84 245.903 137.783V143.978C245.875 144.492 245.726 144.992 245.469 145.437C245.211 145.882 244.852 146.26 244.421 146.54L225.186 157.647C224.366 158.118 223.703 157.735 223.703 156.793V150.597C223.731 150.084 223.88 149.584 224.138 149.139C224.395 148.694 224.754 148.316 225.186 148.036Z" fill="#92E3A9"/>
<path d="M215.766 134.197L253.82 112.216C254.797 111.649 255.596 112.107 255.596 113.241V115.543C255.562 116.158 255.384 116.758 255.076 117.292C254.767 117.826 254.337 118.28 253.82 118.616L215.746 140.597C214.769 141.164 213.977 140.707 213.977 139.573V137.291C214.008 136.67 214.186 136.066 214.498 135.528C214.809 134.99 215.244 134.534 215.766 134.197Z" fill="#FAFAFA"/>
<path d="M220.22 118.288C220.739 117.988 221.142 117.94 221.429 118.152C221.716 118.364 221.859 118.835 221.859 119.559C221.874 120.22 221.726 120.874 221.429 121.465C221.16 121.998 220.74 122.441 220.22 122.735L219.195 123.329V125.536C219.193 125.612 219.175 125.686 219.141 125.754C219.117 125.816 219.073 125.869 219.018 125.905L218.499 126.205C218.481 126.218 218.459 126.226 218.437 126.226C218.415 126.226 218.393 126.218 218.376 126.205C218.339 126.159 218.322 126.1 218.328 126.041V119.655C218.327 119.579 218.344 119.504 218.376 119.436C218.401 119.375 218.444 119.323 218.499 119.286L220.22 118.288ZM219.195 122.093L220.186 121.519C220.425 121.384 220.627 121.192 220.773 120.959C220.928 120.685 221.004 120.373 220.992 120.058C220.992 119.689 220.917 119.477 220.773 119.415C220.672 119.391 220.566 119.39 220.464 119.412C220.363 119.435 220.267 119.48 220.186 119.545L219.195 120.119V122.093Z" fill="#FAFAFA"/>
<path d="M224.721 115.686C224.79 115.645 224.844 115.645 224.878 115.686C224.922 115.747 224.952 115.817 224.967 115.891L226.545 121.232C226.545 121.232 226.545 121.273 226.545 121.294C226.544 121.37 226.525 121.445 226.49 121.512C226.466 121.574 226.423 121.627 226.367 121.663L225.903 121.929C225.821 121.977 225.759 121.984 225.725 121.929C225.692 121.895 225.669 121.852 225.657 121.806L225.377 120.87L223.328 122.045L223.055 123.302C223.035 123.37 223.01 123.436 222.979 123.5C222.946 123.583 222.882 123.651 222.802 123.691L222.337 123.958C222.32 123.972 222.298 123.98 222.276 123.98C222.253 123.98 222.232 123.972 222.214 123.958C222.179 123.914 222.161 123.857 222.167 123.801C222.163 123.776 222.163 123.751 222.167 123.726L223.738 116.567C223.757 116.462 223.786 116.359 223.826 116.26C223.86 116.188 223.915 116.128 223.984 116.089L224.721 115.686ZM225.076 119.825L224.393 117.414L223.71 120.638L225.076 119.825Z" fill="#FAFAFA"/>
<path d="M228.936 113.152C229.164 113.008 229.424 112.921 229.694 112.899C229.884 112.882 230.076 112.925 230.24 113.022C230.39 113.119 230.507 113.26 230.575 113.425C230.65 113.593 230.691 113.774 230.698 113.958C230.703 114.034 230.686 114.109 230.65 114.176C230.626 114.238 230.583 114.291 230.527 114.327L230.076 114.586C230.001 114.627 229.947 114.634 229.912 114.586C229.87 114.558 229.835 114.521 229.81 114.477C229.783 114.415 229.743 114.36 229.694 114.314C229.645 114.269 229.586 114.233 229.523 114.211C229.315 114.181 229.104 114.235 228.936 114.361C228.825 114.432 228.72 114.512 228.621 114.6C228.52 114.693 228.431 114.799 228.355 114.914C228.282 115.025 228.223 115.144 228.177 115.269C228.137 115.388 228.116 115.513 228.116 115.638C228.108 115.753 228.129 115.868 228.177 115.973C228.198 116.01 228.228 116.041 228.264 116.063C228.3 116.086 228.34 116.099 228.382 116.103C228.509 116.125 228.638 116.125 228.765 116.103L229.359 115.973C229.581 115.907 229.812 115.88 230.042 115.891C230.207 115.89 230.368 115.943 230.5 116.041C230.625 116.146 230.715 116.287 230.759 116.444C230.826 116.665 230.856 116.896 230.848 117.127C230.848 117.432 230.804 117.736 230.718 118.029C230.635 118.33 230.513 118.619 230.356 118.89C230.191 119.166 229.994 119.423 229.769 119.655C229.539 119.893 229.277 120.097 228.99 120.263C228.78 120.391 228.549 120.481 228.307 120.529C228.111 120.567 227.908 120.55 227.72 120.481C227.549 120.402 227.408 120.27 227.317 120.105C227.205 119.895 227.144 119.661 227.139 119.422C227.139 119.345 227.155 119.268 227.187 119.197C227.217 119.139 227.262 119.089 227.317 119.053L227.768 118.794C227.836 118.753 227.891 118.739 227.932 118.76C227.973 118.78 228 118.814 228.027 118.876C228.055 118.946 228.092 119.013 228.137 119.074C228.179 119.133 228.239 119.179 228.307 119.204C228.397 119.224 228.491 119.224 228.58 119.204C228.726 119.17 228.864 119.112 228.99 119.033C229.123 118.957 229.249 118.871 229.366 118.773C229.596 118.592 229.778 118.357 229.899 118.09C229.954 117.954 229.981 117.807 229.981 117.66C229.987 117.607 229.983 117.552 229.967 117.501C229.952 117.449 229.926 117.401 229.892 117.359C229.855 117.327 229.812 117.303 229.764 117.289C229.717 117.274 229.668 117.271 229.619 117.278C229.464 117.284 229.31 117.309 229.161 117.353C228.984 117.394 228.779 117.441 228.54 117.482C228.357 117.528 228.167 117.542 227.979 117.523C227.832 117.514 227.692 117.454 227.583 117.353C227.465 117.237 227.382 117.09 227.344 116.929C227.289 116.692 227.264 116.449 227.269 116.205C227.269 115.904 227.312 115.605 227.399 115.317C227.48 115.021 227.6 114.736 227.754 114.47C227.902 114.206 228.081 113.961 228.287 113.739C228.474 113.514 228.693 113.316 228.936 113.152Z" fill="#FAFAFA"/>
<path d="M233.423 110.57C233.65 110.421 233.911 110.332 234.182 110.31C234.372 110.294 234.563 110.337 234.728 110.433C234.874 110.533 234.988 110.673 235.056 110.836C235.131 111.004 235.172 111.185 235.179 111.369C235.187 111.445 235.17 111.522 235.131 111.588C235.107 111.649 235.064 111.702 235.008 111.738L234.557 111.997C234.489 112.038 234.434 112.052 234.393 111.997C234.35 111.97 234.316 111.929 234.298 111.881C234.235 111.761 234.131 111.669 234.004 111.622C233.902 111.607 233.798 111.612 233.699 111.638C233.599 111.664 233.505 111.709 233.423 111.772C233.309 111.842 233.202 111.922 233.102 112.011C233.003 112.105 232.916 112.21 232.843 112.325C232.768 112.435 232.708 112.554 232.665 112.68C232.623 112.799 232.6 112.924 232.597 113.049C232.589 113.164 232.61 113.279 232.658 113.384C232.679 113.421 232.709 113.452 232.745 113.474C232.78 113.497 232.821 113.511 232.863 113.514C232.99 113.536 233.119 113.536 233.246 113.514L233.84 113.384C234.062 113.322 234.293 113.294 234.523 113.302C234.688 113.301 234.849 113.353 234.981 113.452C235.106 113.559 235.198 113.699 235.247 113.855C235.308 114.078 235.335 114.308 235.329 114.538C235.329 114.844 235.285 115.147 235.199 115.44C235.116 115.741 234.994 116.03 234.837 116.301C234.673 116.58 234.476 116.839 234.25 117.073C234.019 117.305 233.76 117.507 233.478 117.674C233.267 117.801 233.036 117.891 232.795 117.94C232.601 117.977 232.4 117.961 232.214 117.892C232.04 117.815 231.896 117.683 231.805 117.517C231.692 117.306 231.634 117.072 231.634 116.834C231.626 116.757 231.643 116.681 231.682 116.615C231.706 116.553 231.749 116.501 231.805 116.465L232.255 116.205C232.324 116.164 232.385 116.15 232.419 116.171C232.443 116.182 232.464 116.198 232.481 116.218C232.497 116.238 232.509 116.262 232.515 116.287C232.546 116.356 232.582 116.422 232.624 116.485C232.669 116.545 232.731 116.59 232.802 116.615C232.892 116.636 232.985 116.636 233.075 116.615C233.22 116.581 233.359 116.523 233.485 116.444C233.614 116.367 233.737 116.28 233.854 116.185C233.974 116.091 234.08 115.981 234.168 115.857C234.256 115.739 234.33 115.61 234.387 115.474C234.441 115.337 234.469 115.191 234.469 115.044C234.475 114.99 234.47 114.936 234.455 114.884C234.44 114.833 234.414 114.785 234.38 114.743C234.343 114.711 234.299 114.687 234.252 114.672C234.205 114.658 234.155 114.655 234.107 114.661C233.954 114.671 233.803 114.696 233.656 114.736C233.478 114.777 233.266 114.825 233.034 114.866C232.849 114.912 232.657 114.926 232.467 114.907C232.319 114.899 232.178 114.839 232.071 114.736C231.955 114.62 231.874 114.473 231.839 114.313C231.778 114.079 231.75 113.838 231.757 113.596C231.759 113.293 231.803 112.992 231.887 112.701C231.971 112.406 232.09 112.121 232.242 111.854C232.39 111.588 232.571 111.343 232.781 111.123C232.965 110.906 233.182 110.72 233.423 110.57Z" fill="#FAFAFA"/>
<path d="M238.403 111.424L237.85 114.696C237.833 114.794 237.806 114.89 237.768 114.982C237.741 115.056 237.691 115.119 237.624 115.16L237.105 115.461C237.037 115.502 236.989 115.502 236.955 115.461C236.909 115.404 236.883 115.335 236.88 115.262L236.06 109.491C236.06 109.491 236.06 109.436 236.06 109.415C236.062 109.339 236.081 109.265 236.115 109.197C236.141 109.136 236.183 109.084 236.238 109.047L236.709 108.773C236.748 108.757 236.792 108.757 236.832 108.773C236.873 108.773 236.9 108.828 236.914 108.937L237.454 112.824L237.925 109.907C237.937 109.835 237.958 109.763 237.986 109.696C238.013 109.609 238.072 109.536 238.15 109.491L238.676 109.183C238.751 109.142 238.806 109.149 238.84 109.183C238.87 109.227 238.89 109.275 238.902 109.327L239.38 111.697L239.919 107.189C239.926 107.1 239.951 107.014 239.995 106.936C240.026 106.885 240.068 106.841 240.117 106.806L240.589 106.533C240.607 106.52 240.628 106.512 240.65 106.512C240.672 106.512 240.694 106.52 240.712 106.533C240.731 106.555 240.746 106.581 240.755 106.609C240.765 106.638 240.769 106.667 240.766 106.697C240.769 106.724 240.769 106.752 240.766 106.779L239.947 113.493C239.933 113.592 239.908 113.688 239.872 113.78C239.84 113.853 239.788 113.915 239.721 113.958L239.195 114.258C239.134 114.293 239.086 114.293 239.052 114.258C239.017 114.196 238.99 114.129 238.97 114.06L238.403 111.424Z" fill="#FAFAFA"/>
<path d="M241.6 108.527C241.615 108.149 241.661 107.772 241.736 107.4C241.814 107.037 241.934 106.684 242.092 106.348C242.242 106.022 242.435 105.716 242.665 105.44C242.899 105.166 243.179 104.935 243.492 104.757C243.732 104.594 244.014 104.501 244.305 104.491C244.522 104.493 244.73 104.578 244.885 104.73C245.051 104.916 245.17 105.138 245.234 105.379C245.322 105.692 245.37 106.016 245.377 106.342C245.377 106.465 245.377 106.601 245.377 106.751C245.377 106.902 245.377 107.059 245.377 107.223C245.377 107.387 245.377 107.544 245.377 107.694C245.377 107.844 245.377 107.988 245.377 108.118C245.362 108.494 245.317 108.869 245.24 109.238C245.162 109.6 245.045 109.952 244.892 110.29C244.737 110.615 244.542 110.921 244.311 111.198C244.078 111.47 243.801 111.701 243.492 111.881C243.246 112.043 242.96 112.135 242.665 112.148C242.559 112.15 242.453 112.13 242.355 112.09C242.256 112.051 242.166 111.991 242.092 111.915C241.913 111.724 241.791 111.488 241.736 111.232C241.655 110.917 241.609 110.594 241.6 110.269C241.6 110.146 241.6 110.01 241.6 109.859C241.6 109.709 241.6 109.552 241.6 109.388C241.6 109.224 241.6 109.074 241.6 108.917C241.6 108.76 241.593 108.65 241.6 108.527ZM244.51 106.895C244.525 106.728 244.506 106.559 244.454 106.4C244.403 106.24 244.319 106.093 244.209 105.966C244.031 105.809 243.786 105.816 243.492 105.966C243.173 106.153 242.92 106.435 242.768 106.772C242.574 107.17 242.471 107.607 242.467 108.049C242.467 108.302 242.467 108.582 242.467 108.889C242.467 109.197 242.467 109.47 242.467 109.716C242.452 109.883 242.471 110.052 242.522 110.211C242.574 110.371 242.658 110.518 242.768 110.645C242.945 110.795 243.191 110.782 243.492 110.611C243.805 110.422 244.055 110.144 244.209 109.812C244.403 109.416 244.506 108.982 244.51 108.541C244.51 108.282 244.51 108.001 244.51 107.694C244.51 107.387 244.516 107.141 244.51 106.895Z" fill="#FAFAFA"/>
<path d="M248.355 102.032C248.895 101.724 249.298 101.676 249.578 101.902C249.744 102.085 249.867 102.302 249.939 102.538C250.011 102.774 250.03 103.024 249.995 103.268C250 103.732 249.929 104.193 249.783 104.634C249.644 105.044 249.428 105.424 249.148 105.754L250.036 107.687C250.038 107.719 250.038 107.751 250.036 107.783C250.036 107.844 250.022 107.905 249.995 107.961C249.976 108.01 249.942 108.053 249.899 108.083L249.353 108.398C249.264 108.445 249.202 108.452 249.161 108.398C249.125 108.362 249.095 108.32 249.072 108.275L248.232 106.451L247.378 106.943V109.252C247.379 109.327 247.363 109.402 247.331 109.47C247.303 109.529 247.26 109.581 247.208 109.62L246.689 109.921C246.671 109.935 246.65 109.943 246.627 109.943C246.605 109.943 246.583 109.935 246.566 109.921C246.546 109.9 246.531 109.875 246.522 109.848C246.512 109.821 246.509 109.792 246.511 109.764V103.377C246.513 103.301 246.532 103.227 246.566 103.159C246.59 103.097 246.633 103.044 246.689 103.008L248.355 102.032ZM247.392 105.706L248.355 105.187C248.591 105.056 248.792 104.871 248.943 104.648C249.101 104.384 249.177 104.08 249.161 103.773C249.161 103.404 249.086 103.2 248.943 103.159C248.735 103.13 248.524 103.184 248.355 103.309L247.426 103.842L247.392 105.706Z" fill="#FAFAFA"/>
<path d="M252.932 99.4017C253.18 99.24 253.463 99.1415 253.758 99.1148C253.972 99.107 254.18 99.183 254.339 99.3266C254.52 99.5169 254.645 99.7531 254.701 100.01C254.793 100.348 254.843 100.697 254.851 101.048C254.851 101.526 254.851 102.018 254.851 102.516C254.837 102.923 254.787 103.328 254.701 103.726C254.623 104.095 254.504 104.455 254.346 104.798C254.193 105.113 254 105.407 253.772 105.672C253.544 105.944 253.271 106.175 252.966 106.355L251.347 107.236C251.33 107.251 251.308 107.259 251.286 107.259C251.263 107.259 251.241 107.251 251.224 107.236C251.204 107.216 251.189 107.191 251.18 107.164C251.17 107.137 251.167 107.108 251.169 107.079V100.693C251.171 100.617 251.19 100.542 251.224 100.474C251.248 100.412 251.291 100.36 251.347 100.324L252.932 99.4017ZM253.984 101.526C253.981 101.341 253.953 101.157 253.902 100.98C253.87 100.845 253.801 100.722 253.704 100.624C253.661 100.582 253.61 100.548 253.553 100.526C253.497 100.503 253.436 100.493 253.376 100.495C253.205 100.506 253.04 100.563 252.898 100.659L252.037 101.15V105.604L252.932 105.092C253.105 104.991 253.26 104.862 253.389 104.709C253.517 104.559 253.625 104.394 253.71 104.217C253.796 104.029 253.86 103.832 253.902 103.63C253.949 103.419 253.977 103.204 253.984 102.988C254.004 102.489 254.004 102.004 253.984 101.526Z" fill="#FAFAFA"/>
<path d="M159.133 0.261807C160.312 0.524158 161.448 0.951891 162.508 1.53231C163.522 2.07758 164.431 2.79925 165.192 3.66347C165.92 4.49479 166.461 5.4733 166.777 6.53233C167.099 7.66597 167.123 8.86371 166.845 10.0091C166.662 10.9173 166.302 11.7806 165.786 12.5501C165.316 13.2082 164.754 13.7968 164.12 14.2988C163.496 14.7827 162.831 15.2102 162.132 15.5761L160.165 16.6212C159.572 16.9303 159.01 17.2939 158.485 17.7073C158.009 18.0717 157.645 18.5613 157.433 19.1212C157.329 19.377 157.156 19.5991 156.934 19.7633C156.829 19.8449 156.707 19.9015 156.576 19.9287C156.446 19.9559 156.312 19.9531 156.183 19.9204L153.286 19.2783C153.147 19.2491 153.015 19.1923 152.897 19.1114C152.78 19.0305 152.68 18.927 152.603 18.807C152.522 18.6954 152.467 18.5662 152.445 18.4297C152.422 18.2933 152.432 18.1534 152.474 18.0215C152.707 17.1245 153.118 16.2836 153.683 15.5488C154.198 14.8988 154.795 14.3179 155.459 13.8206C156.105 13.3472 156.791 12.9291 157.508 12.5706C158.191 12.2223 158.874 11.8876 159.468 11.5529C160.021 11.2557 160.541 10.9008 161.019 10.4941C161.438 10.143 161.729 9.66242 161.845 9.12798C161.954 8.6639 161.948 8.1804 161.83 7.71885C161.711 7.2573 161.482 6.83144 161.162 6.47769C160.363 5.60562 159.296 5.02609 158.129 4.83151C155.971 4.35336 154.149 5.07969 152.665 7.01048C152.521 7.22124 152.341 7.4041 152.132 7.5501C151.896 7.66698 151.624 7.6866 151.374 7.60474L148.293 6.92168C148.073 6.87922 147.879 6.75153 147.754 6.56649C147.686 6.46762 147.641 6.35546 147.621 6.2376C147.601 6.11974 147.607 5.99895 147.637 5.88342C147.899 4.93427 148.387 4.0625 149.058 3.34243C149.816 2.50735 150.715 1.8135 151.715 1.29324C152.809 0.721099 153.987 0.328998 155.206 0.132026C156.511 -0.0802772 157.845 -0.0361958 159.133 0.261807ZM155.862 22.2428C156.133 22.3064 156.368 22.4735 156.517 22.7084C156.667 22.9433 156.718 23.2273 156.661 23.4996L155.923 26.8467C155.898 26.9868 155.844 27.1201 155.764 27.2378C155.684 27.3555 155.58 27.455 155.459 27.5297C155.344 27.6086 155.215 27.6626 155.078 27.6885C154.942 27.7144 154.801 27.7115 154.666 27.68L151.36 26.9218C151.22 26.8981 151.086 26.8443 150.968 26.7642C150.85 26.684 150.751 26.5793 150.677 26.4573C150.601 26.3419 150.548 26.2122 150.524 26.0759C150.499 25.9397 150.502 25.7998 150.534 25.665L151.278 22.3179C151.342 22.0466 151.509 21.8107 151.743 21.6603C151.978 21.5098 152.262 21.4566 152.535 21.5119L155.862 22.2428Z" fill="#92E3A9"/>
<path d="M162.781 32.3043C163.603 32.1724 164.44 32.1563 165.267 32.2565C166.057 32.3504 166.825 32.5816 167.535 32.9396C168.212 33.2906 168.807 33.7792 169.284 34.374C169.712 34.9562 170.014 35.6217 170.169 36.3276C170.324 37.0336 170.33 37.7642 170.185 38.4724C170.055 39.0169 169.846 39.5393 169.564 40.023C169.292 40.4934 168.976 40.9371 168.621 41.3481C168.273 41.7579 167.938 42.1473 167.631 42.523C167.33 42.873 167.062 43.2503 166.832 43.65C166.615 44.0004 166.506 44.4064 166.517 44.8181C166.511 45.0105 166.457 45.1983 166.36 45.3645C166.311 45.4411 166.246 45.5063 166.169 45.5558C166.093 45.6052 166.006 45.6378 165.916 45.6514L163.867 45.9793C163.771 45.9967 163.673 45.9947 163.578 45.9736C163.483 45.9525 163.393 45.9126 163.314 45.8563C163.233 45.8056 163.166 45.7364 163.117 45.6545C163.068 45.5725 163.04 45.4802 163.034 45.385C162.948 44.7494 162.994 44.1029 163.17 43.4861C163.331 42.9401 163.56 42.4167 163.853 41.9287C164.141 41.4604 164.47 41.0191 164.837 40.6104C165.199 40.2006 165.52 39.818 165.834 39.4492C166.115 39.1198 166.358 38.7601 166.558 38.3768C166.736 38.0469 166.801 37.6678 166.743 37.2975C166.691 36.9717 166.562 36.663 166.366 36.3978C166.17 36.1326 165.912 35.9187 165.616 35.7743C164.881 35.4196 164.05 35.3187 163.252 35.4874C162.53 35.5931 161.858 35.9196 161.328 36.4222C160.799 36.9248 160.438 37.5789 160.295 38.2948C160.255 38.467 160.185 38.6311 160.09 38.7798C159.968 38.9094 159.802 38.9897 159.625 39.0052L157.467 39.3536C157.315 39.3826 157.158 39.3507 157.03 39.2648C156.964 39.2196 156.908 39.1608 156.867 39.0925C156.826 39.0242 156.8 38.9478 156.791 38.8686C156.726 38.1908 156.832 37.5076 157.098 36.8809C157.368 36.1516 157.766 35.4762 158.273 34.8863C158.828 34.2405 159.483 33.6871 160.213 33.247C161 32.7696 161.872 32.4495 162.781 32.3043ZM166.306 47.2293C166.4 47.2144 166.496 47.2182 166.588 47.2404C166.681 47.2627 166.768 47.303 166.845 47.3591C166.926 47.412 166.994 47.4814 167.046 47.5626C167.098 47.6438 167.132 47.7351 167.146 47.8304L167.528 50.1733C167.558 50.3633 167.511 50.5574 167.399 50.7134C167.286 50.8694 167.117 50.9748 166.927 51.0066L164.639 51.3823C164.449 51.4117 164.255 51.3651 164.099 51.2525C164.02 51.1989 163.953 51.1293 163.902 51.0481C163.852 50.9669 163.819 50.876 163.806 50.7812L163.423 48.4383C163.406 48.3443 163.408 48.2477 163.431 48.1547C163.453 48.0618 163.495 47.9745 163.553 47.8987C163.606 47.8195 163.676 47.7524 163.757 47.7018C163.838 47.6512 163.929 47.6182 164.024 47.605L166.306 47.2293Z" fill="#92E3A9"/>
<g opacity="0.2">
<path d="M162.781 32.3043C163.603 32.1724 164.44 32.1563 165.267 32.2565C166.057 32.3504 166.825 32.5816 167.535 32.9396C168.212 33.2906 168.807 33.7792 169.284 34.374C169.712 34.9562 170.014 35.6217 170.169 36.3276C170.324 37.0336 170.33 37.7642 170.185 38.4724C170.055 39.0169 169.846 39.5393 169.564 40.023C169.292 40.4934 168.976 40.9371 168.621 41.3481C168.273 41.7579 167.938 42.1473 167.631 42.523C167.33 42.873 167.062 43.2503 166.832 43.65C166.615 44.0004 166.506 44.4064 166.517 44.8181C166.511 45.0105 166.457 45.1983 166.36 45.3645C166.311 45.4411 166.246 45.5063 166.169 45.5558C166.093 45.6052 166.006 45.6378 165.916 45.6514L163.867 45.9793C163.771 45.9967 163.673 45.9947 163.578 45.9736C163.483 45.9525 163.393 45.9126 163.314 45.8563C163.233 45.8056 163.166 45.7364 163.117 45.6545C163.068 45.5725 163.04 45.4802 163.034 45.385C162.948 44.7494 162.994 44.1029 163.17 43.4861C163.331 42.9401 163.56 42.4167 163.853 41.9287C164.141 41.4604 164.47 41.0191 164.837 40.6104C165.199 40.2006 165.52 39.818 165.834 39.4492C166.115 39.1198 166.358 38.7601 166.558 38.3768C166.736 38.0469 166.801 37.6678 166.743 37.2975C166.691 36.9717 166.562 36.663 166.366 36.3978C166.17 36.1326 165.912 35.9187 165.616 35.7743C164.881 35.4196 164.05 35.3187 163.252 35.4874C162.53 35.5931 161.858 35.9196 161.328 36.4222C160.799 36.9248 160.438 37.5789 160.295 38.2948C160.255 38.467 160.185 38.6311 160.09 38.7798C159.968 38.9094 159.802 38.9897 159.625 39.0052L157.467 39.3536C157.315 39.3826 157.158 39.3507 157.03 39.2648C156.964 39.2196 156.908 39.1608 156.867 39.0925C156.826 39.0242 156.8 38.9478 156.791 38.8686C156.726 38.1908 156.832 37.5076 157.098 36.8809C157.368 36.1516 157.766 35.4762 158.273 34.8863C158.828 34.2405 159.483 33.6871 160.213 33.247C161 32.7696 161.872 32.4495 162.781 32.3043ZM166.306 47.2293C166.4 47.2144 166.496 47.2182 166.588 47.2404C166.681 47.2627 166.768 47.303 166.845 47.3591C166.926 47.412 166.994 47.4814 167.046 47.5626C167.098 47.6438 167.132 47.7351 167.146 47.8304L167.528 50.1733C167.558 50.3633 167.511 50.5574 167.399 50.7134C167.286 50.8694 167.117 50.9748 166.927 51.0066L164.639 51.3823C164.449 51.4117 164.255 51.3651 164.099 51.2525C164.02 51.1989 163.953 51.1293 163.902 51.0481C163.852 50.9669 163.819 50.876 163.806 50.7812L163.423 48.4383C163.406 48.3443 163.408 48.2477 163.431 48.1547C163.453 48.0618 163.495 47.9745 163.553 47.8987C163.606 47.8195 163.676 47.7524 163.757 47.7018C163.838 47.6512 163.929 47.6182 164.024 47.605L166.306 47.2293Z" fill="black"/>
</g>
<path d="M182.098 35.986C182.191 36.0508 182.27 36.1339 182.33 36.2302C182.39 36.3265 182.43 36.434 182.446 36.5462C182.468 36.6573 182.467 36.7717 182.442 36.8822C182.417 36.9927 182.37 37.0969 182.303 37.1882L180.677 39.4765C180.613 39.5696 180.529 39.6486 180.433 39.7085C180.337 39.7684 180.229 39.808 180.117 39.8249C180.006 39.8466 179.892 39.8451 179.781 39.8204C179.671 39.7957 179.566 39.7484 179.475 39.6814L177.235 38.0899C177.141 38.026 177.063 37.943 177.004 37.8465C176.945 37.7499 176.907 37.642 176.893 37.5298C176.871 37.4186 176.873 37.3042 176.898 37.1937C176.922 37.0832 176.97 36.979 177.037 36.8877L178.683 34.5994C178.816 34.414 179.017 34.2884 179.242 34.2501C179.467 34.2117 179.698 34.2636 179.885 34.3945L182.098 35.986ZM191.552 20.4873C192.369 21.0598 193.096 21.7504 193.71 22.5365C194.309 23.2677 194.772 24.1006 195.076 24.9955C195.36 25.8531 195.455 26.7617 195.356 27.6595C195.241 28.6169 194.878 29.5278 194.304 30.303C193.878 30.9297 193.33 31.4641 192.692 31.874C192.131 32.2258 191.521 32.4928 190.882 32.6664C190.26 32.8291 189.624 32.9388 188.983 32.9942L187.166 33.1582C186.622 33.2017 186.082 33.2955 185.554 33.4382C185.068 33.5487 184.622 33.7951 184.27 34.1486C184.111 34.3102 183.91 34.4238 183.69 34.4765C183.585 34.5066 183.474 34.5111 183.367 34.4897C183.26 34.4683 183.16 34.4216 183.075 34.3535L181.094 32.9464C180.905 32.8112 180.775 32.6081 180.732 32.3795C180.706 32.2687 180.707 32.1534 180.735 32.0431C180.762 31.9327 180.815 31.8303 180.889 31.7442C181.352 31.1438 181.93 30.6421 182.59 30.2688C183.184 29.9444 183.818 29.6987 184.475 29.5379C185.11 29.384 185.757 29.2857 186.408 29.2442C187.05 29.2032 187.651 29.1554 188.211 29.1008C188.724 29.0555 189.23 28.9547 189.721 28.8002C190.15 28.6572 190.52 28.3762 190.773 28.001C191.001 27.6842 191.15 27.3169 191.206 26.9304C191.261 26.5439 191.223 26.1496 191.094 25.7811C190.771 24.8707 190.153 24.0942 189.339 23.5748C187.863 22.5229 186.253 22.4887 184.509 23.4723C184.334 23.584 184.139 23.6627 183.935 23.7046C183.829 23.7119 183.723 23.6982 183.622 23.6642C183.521 23.6302 183.428 23.5766 183.348 23.5065L181.244 22.0106C181.168 21.96 181.103 21.8946 181.052 21.8184C181.002 21.7421 180.967 21.6565 180.951 21.5666C180.934 21.4736 180.937 21.3783 180.96 21.2866C180.982 21.1949 181.023 21.1088 181.08 21.0338C181.577 20.3978 182.222 19.8935 182.959 19.5652C183.796 19.1859 184.693 18.9548 185.609 18.8821C186.617 18.7979 187.632 18.8786 188.614 19.1212C189.675 19.3767 190.673 19.8411 191.552 20.4873Z" fill="#92E3A9"/>
<g opacity="0.6">
<path d="M182.098 35.986C182.191 36.0508 182.27 36.1339 182.33 36.2302C182.39 36.3265 182.43 36.434 182.446 36.5462C182.468 36.6573 182.467 36.7717 182.442 36.8822C182.417 36.9927 182.37 37.0969 182.303 37.1882L180.677 39.4765C180.613 39.5696 180.529 39.6486 180.433 39.7085C180.337 39.7684 180.229 39.808 180.117 39.8249C180.006 39.8466 179.892 39.8451 179.781 39.8204C179.671 39.7957 179.566 39.7484 179.475 39.6814L177.235 38.0899C177.141 38.026 177.063 37.943 177.004 37.8465C176.945 37.7499 176.907 37.642 176.893 37.5298C176.871 37.4186 176.873 37.3042 176.898 37.1937C176.922 37.0832 176.97 36.979 177.037 36.8877L178.683 34.5994C178.816 34.414 179.017 34.2884 179.242 34.2501C179.467 34.2117 179.698 34.2636 179.885 34.3945L182.098 35.986ZM191.552 20.4873C192.369 21.0598 193.096 21.7504 193.71 22.5365C194.309 23.2677 194.772 24.1006 195.076 24.9955C195.36 25.8531 195.455 26.7617 195.356 27.6595C195.241 28.6169 194.878 29.5278 194.304 30.303C193.878 30.9297 193.33 31.4641 192.692 31.874C192.131 32.2258 191.521 32.4928 190.882 32.6664C190.26 32.8291 189.624 32.9388 188.983 32.9942L187.166 33.1582C186.622 33.2017 186.082 33.2955 185.554 33.4382C185.068 33.5487 184.622 33.7951 184.27 34.1486C184.111 34.3102 183.91 34.4238 183.69 34.4765C183.585 34.5066 183.474 34.5111 183.367 34.4897C183.26 34.4683 183.16 34.4216 183.075 34.3535L181.094 32.9464C180.905 32.8112 180.775 32.6081 180.732 32.3795C180.706 32.2687 180.707 32.1534 180.735 32.0431C180.762 31.9327 180.815 31.8303 180.889 31.7442C181.352 31.1438 181.93 30.6421 182.59 30.2688C183.184 29.9444 183.818 29.6987 184.475 29.5379C185.11 29.384 185.757 29.2857 186.408 29.2442C187.05 29.2032 187.651 29.1554 188.211 29.1008C188.724 29.0555 189.23 28.9547 189.721 28.8002C190.15 28.6572 190.52 28.3762 190.773 28.001C191.001 27.6842 191.15 27.3169 191.206 26.9304C191.261 26.5439 191.223 26.1496 191.094 25.7811C190.771 24.8707 190.153 24.0942 189.339 23.5748C187.863 22.5229 186.253 22.4887 184.509 23.4723C184.334 23.584 184.139 23.6627 183.935 23.7046C183.829 23.7119 183.723 23.6982 183.622 23.6642C183.521 23.6302 183.428 23.5766 183.348 23.5065L181.244 22.0106C181.168 21.96 181.103 21.8946 181.052 21.8184C181.002 21.7421 180.967 21.6565 180.951 21.5666C180.934 21.4736 180.937 21.3783 180.96 21.2866C180.982 21.1949 181.023 21.1088 181.08 21.0338C181.577 20.3978 182.222 19.8935 182.959 19.5652C183.796 19.1859 184.693 18.9548 185.609 18.8821C186.617 18.7979 187.632 18.8786 188.614 19.1212C189.675 19.3767 190.673 19.8411 191.552 20.4873Z" fill="white"/>
</g>
<path d="M131.23 96.4509H106.961V37.6527C106.961 32.5458 108.99 27.6481 112.601 24.037C116.212 20.4259 121.11 18.3972 126.217 18.3972H128.457C133.564 18.3972 138.462 20.4259 142.073 24.037C145.684 27.6481 147.713 32.5458 147.713 37.6527V80.0027C147.703 84.3682 145.963 88.5517 142.873 91.6354C139.783 94.719 135.596 96.4509 131.23 96.4509Z" fill="#263238"/>
<path d="M104.598 238.002C104.168 240.438 103.94 242.906 103.914 245.379C103.826 249.86 103.006 251.452 102.897 255.127C102.767 259.327 103.498 260.899 105.199 263.262C106.899 265.625 111.346 267.763 113.272 263.774C115.199 259.785 114.919 257.169 114.311 253.05C113.689 248.788 113.628 246.431 113.245 243.187C112.931 240.325 112.562 238.146 112.562 238.146L104.598 238.002Z" fill="#263238"/>
<path d="M117.316 208.241L102.562 207.975C102.781 217.825 104.345 228.76 104.611 238.03C104.666 239.771 104.57 251.547 105.226 255.106C106.216 260.489 112.596 259.758 112.938 256.541C113.279 253.323 112.528 239.573 112.548 238.152C112.487 232.223 115.281 222.217 116.722 211.574C116.783 211.062 117.248 208.753 117.316 208.241Z" fill="#FFA8A7"/>
<path d="M136.271 230.338C136.271 230.338 135.691 230.024 135.588 230.646C135.445 231.383 135.226 232.907 134.905 234.122C134.482 235.81 134.126 238.59 134.379 239.969C134.632 241.349 137.842 243.112 139.926 243.754C142.493 244.546 144.835 245.939 146.756 247.818C148.805 249.758 153.266 251.588 156.319 251.568C159.905 251.568 162.405 250.373 163.587 248.453C164.769 246.534 162.508 246.301 158.409 243.672L155.233 241.622C148.737 237.381 146.353 235.113 144.529 230.871L136.271 230.338Z" fill="#263238"/>
<path d="M144.584 227.708C144.475 224.662 146.579 198.767 146.579 198.767L132.569 205.154C135.568 223.064 136.21 227.292 136.258 230.222C136.196 230.468 136.171 230.721 136.182 230.973C136.182 234.45 140.124 236.329 143.184 238.651C145.785 240.689 148.557 242.499 151.469 244.061C153.696 245.174 158.218 245.277 158.778 243.849C155.049 241.001 149.625 236.739 146.661 233.487C145.213 231.957 144.693 230.762 144.584 227.708Z" fill="#FFA8A7"/>
<path d="M108.607 112.127C103.225 123.937 103.225 133.077 104.119 148.152C104.912 161.984 106.23 174.177 106.23 174.177C106.025 176.629 102.617 181.417 102.173 192.264C101.763 202.401 102.856 215.29 102.856 215.29C102.856 215.29 110.513 219.532 116.175 215.249C116.175 215.249 121.64 189.163 123.238 176.472C124.604 165.399 127.063 151.253 127.063 151.253L132.234 176.397C131.118 179.964 130.309 183.62 129.816 187.326C129.092 194.792 133.273 209.45 133.273 209.45C133.273 209.45 141.182 211.807 146.012 207.524C146.012 207.524 147.815 183.692 148.491 174.703C149.393 162.66 147.494 130.064 146.012 112.803L108.607 112.127Z" fill="#455A64"/>
<path d="M127.077 151.233L129.202 132.284C129.202 132.284 138.723 131.014 143.04 126.957C141.805 128.89 140.159 130.527 138.219 131.752C136.28 132.978 134.094 133.761 131.818 134.047L128.744 151.677L132.234 176.397L127.077 151.233Z" fill="#263238"/>
<path d="M165.636 107.469C166.03 104.011 166.203 100.532 166.155 97.052C165.944 94.0465 165.404 93.5547 161.203 88.2336C155.534 81.0409 150.691 74.5723 145.568 68.1447C141.907 63.5545 138.054 62.851 134.311 63.0559C131.688 63.1993 136.811 75.8155 139.386 83.2814L154.092 99.1148C154.548 99.7397 154.757 100.511 154.68 101.28L153.792 114.75L158.198 120.652C158.198 120.652 164.871 114.9 165.636 107.469Z" fill="#FFA8A7"/>
<path d="M120.13 63.4657C117.282 63.6638 112.104 64.1488 112.104 64.1488C109.119 65.8154 108.361 67.1884 107.808 71.1502C107.569 72.8442 108.949 77.3456 110.13 83.7459L112.371 95.6107L112.125 101.499C110.964 105.092 108.334 109.552 106.011 116.13C117.419 122.496 126.982 122.735 135.656 121.594C142.269 120.741 145.773 119.142 146.941 117.558C146.695 111.062 146.258 107.045 146.121 100.256C146.073 97.4072 146.244 94.5246 146.36 91.2459C150.793 87.5984 150.848 81.5327 148.409 77.5846C142.788 68.4794 137.316 62.7485 133.696 63.0422L120.13 63.4657Z" fill="#92E3A9"/>
<path opacity="0.6" d="M120.13 63.4657C117.282 63.6638 112.104 64.1488 112.104 64.1488C109.119 65.8154 108.361 67.1884 107.808 71.1502C107.569 72.8442 108.949 77.3456 110.13 83.7459L112.371 95.6107L112.125 101.499C110.964 105.092 108.334 109.552 106.011 116.13C117.419 122.496 126.982 122.735 135.656 121.594C142.269 120.741 145.773 119.142 146.941 117.558C146.695 111.062 146.258 107.045 146.121 100.256C146.073 97.4072 146.244 94.5246 146.36 91.2459C150.793 87.5984 150.848 81.5327 148.409 77.5846C142.788 68.4794 137.316 62.7485 133.696 63.0422L120.13 63.4657Z" fill="white"/>
<path opacity="0.1" d="M137.528 91.3347C137.528 91.3347 132.323 95.3785 126.374 93.2678C124.703 92.7414 123.196 91.7927 122 90.5135C120.803 89.2343 119.957 87.6679 119.543 85.9659C119.543 85.9659 118.915 92.7623 126.408 95.0779C133.669 97.3115 137.528 91.3347 137.528 91.3347Z" fill="black"/>
<path d="M144.591 44.8112C144.366 54.6747 141.176 57.1064 139.564 57.7894C137.952 58.4725 134.864 58.0627 131.859 57.564V63.5204C131.859 63.5204 135.329 67.1543 135.069 69.866C134.809 72.5778 129.605 72.8852 125.725 70.228C123.584 68.7575 121.648 67.0096 119.967 65.0299C119.644 64.648 119.467 64.1639 119.468 63.6638V49.7293C119.468 49.7293 117.822 51.4711 114.912 49.4766C114.284 49.0759 113.746 48.5489 113.333 47.9292C112.92 47.3095 112.64 46.6106 112.512 45.877C112.383 45.1433 112.409 44.391 112.587 43.6677C112.765 42.9445 113.091 42.2662 113.546 41.676C114.816 40.1801 118.04 40.0776 119.584 42.359C120.458 44.0599 120.574 45.7743 121.551 45.0913C124.147 43.2197 122.753 38.9437 125.889 36.8945C126.918 36.3575 127.986 35.9008 129.085 35.5284C134.68 33.5953 139.529 31.9696 140.698 28.1445C142.897 29.4013 144.864 33.1787 144.591 44.8112Z" fill="#FFA8A7"/>
<path d="M133.559 53.6228C134.276 53.6228 134.857 53.0417 134.857 52.3249C134.857 51.6082 134.276 51.0271 133.559 51.0271C132.843 51.0271 132.262 51.6082 132.262 52.3249C132.262 53.0417 132.843 53.6228 133.559 53.6228Z" fill="#B16668"/>
<path d="M132.699 43.3153C132.698 43.5825 132.62 43.8438 132.472 44.0667C132.325 44.2897 132.116 44.4645 131.87 44.5696C131.624 44.6747 131.353 44.7055 131.09 44.6581C130.827 44.6107 130.584 44.4872 130.391 44.3029C130.197 44.1186 130.062 43.8816 130.002 43.6213C129.941 43.3609 129.959 43.0886 130.052 42.8381C130.145 42.5876 130.309 42.3699 130.525 42.2119C130.74 42.0539 130.997 41.9626 131.264 41.9492C131.449 41.9399 131.634 41.9684 131.808 42.0329C131.982 42.0974 132.141 42.1966 132.275 42.3244C132.409 42.4522 132.516 42.6059 132.589 42.7763C132.662 42.9466 132.699 43.13 132.699 43.3153Z" fill="#263238"/>
<path d="M143.047 43.4519C143.061 43.6191 143.042 43.7873 142.99 43.9468C142.938 44.1064 142.855 44.254 142.746 44.3812C142.637 44.5083 142.503 44.6125 142.353 44.6875C142.203 44.7625 142.04 44.8069 141.872 44.8181C141.703 44.8337 141.533 44.8132 141.373 44.7579C141.213 44.7027 141.066 44.614 140.943 44.4977C140.819 44.3814 140.722 44.2402 140.657 44.0835C140.593 43.9267 140.562 43.758 140.568 43.5885C140.55 43.4202 140.567 43.25 140.617 43.0884C140.668 42.9269 140.751 42.7773 140.861 42.6489C140.972 42.5205 141.107 42.416 141.259 42.3418C141.411 42.2676 141.577 42.2252 141.746 42.2173C141.915 42.2094 142.084 42.2361 142.242 42.2957C142.401 42.3554 142.545 42.4468 142.667 42.5643C142.789 42.6818 142.886 42.823 142.951 42.9792C143.016 43.1353 143.049 43.3032 143.047 43.4724V43.4519Z" fill="#263238"/>
<path d="M130.943 46.8263C129.765 46.8263 128.635 46.3587 127.801 45.5263C126.968 44.6938 126.498 43.5645 126.497 42.3864C126.497 39.3672 129.611 39.3672 130.943 39.3672C132.275 39.3672 135.383 39.3672 135.383 42.3864C135.381 43.5633 134.913 44.6916 134.081 45.5239C133.249 46.3561 132.12 46.8245 130.943 46.8263ZM130.943 40.0639C128.211 40.0639 127.2 40.747 127.2 42.3864C127.2 43.3827 127.596 44.3383 128.3 45.0429C129.005 45.7474 129.961 46.1432 130.957 46.1432C131.953 46.1432 132.909 45.7474 133.613 45.0429C134.318 44.3383 134.714 43.3827 134.714 42.3864C134.687 40.7129 133.635 40.0639 130.943 40.0639Z" fill="#455A64"/>
<path d="M142.221 46.8263C141.043 46.8263 139.913 46.3587 139.079 45.5263C138.245 44.6938 137.776 43.5645 137.774 42.3864C137.774 39.3672 140.889 39.3672 142.221 39.3672C143.553 39.3672 146.661 39.3672 146.661 42.3864C146.659 43.5633 146.19 44.6916 145.358 45.5239C144.526 46.3561 143.398 46.8245 142.221 46.8263ZM142.221 40.0639C139.529 40.0639 138.478 40.747 138.478 42.3864C138.478 43.3827 138.873 44.3383 139.578 45.0429C140.282 45.7474 141.238 46.1432 142.234 46.1432C143.231 46.1432 144.186 45.7474 144.891 45.0429C145.595 44.3383 145.991 43.3827 145.991 42.3864C145.964 40.7129 144.912 40.0639 142.221 40.0639Z" fill="#455A64"/>
<path d="M136.073 40.9519L136.292 49.2512L140.656 47.8987L136.073 40.9519Z" fill="#F28F8F"/>
<path d="M131.852 57.5845C128.682 57.1679 122.159 55.2963 121.141 52.7143C121.551 54.0192 122.349 55.1679 123.43 56.0067C125.376 57.6802 131.852 59.5586 131.852 59.5586V57.5845Z" fill="#F28F8F"/>
<path d="M132.009 36.9218L129.113 38.691C128.884 38.2934 128.818 37.8232 128.928 37.3779C129.037 36.9327 129.314 36.5468 129.7 36.3003C129.891 36.1843 130.104 36.1083 130.325 36.0769C130.546 36.0454 130.772 36.0591 130.987 36.1172C131.203 36.1753 131.405 36.2766 131.581 36.4149C131.756 36.5532 131.902 36.7256 132.009 36.9218Z" fill="#263238"/>
<path d="M143.792 38.8891L140.568 37.762C140.63 37.5484 140.736 37.3497 140.878 37.1783C141.02 37.0069 141.195 36.8663 141.393 36.7652C141.592 36.6641 141.809 36.6047 142.031 36.5905C142.253 36.5763 142.476 36.6077 142.685 36.6828C143.118 36.8382 143.474 37.1539 143.68 37.5646C143.886 37.9754 143.926 38.4496 143.792 38.8891Z" fill="#263238"/>
<path d="M135.035 42.7416C134.989 42.7416 134.943 42.7323 134.9 42.7144C134.857 42.6965 134.819 42.6702 134.786 42.6371C134.754 42.604 134.728 42.5648 134.711 42.5218C134.694 42.4787 134.686 42.4327 134.687 42.3864C134.687 41.8194 135.807 41.4506 136.818 41.4506C137.829 41.4506 138.478 41.8194 138.478 42.3864C138.456 42.4606 138.412 42.5259 138.35 42.5724C138.288 42.6188 138.213 42.644 138.136 42.644C138.059 42.644 137.984 42.6188 137.922 42.5724C137.86 42.5259 137.816 42.4606 137.794 42.3864C137.794 42.318 137.446 42.1473 136.838 42.1473C136.349 42.1369 135.862 42.2203 135.404 42.3932C135.404 42.4407 135.394 42.4878 135.375 42.5314C135.357 42.5751 135.329 42.6144 135.295 42.6471C135.26 42.6797 135.219 42.7049 135.175 42.7212C135.13 42.7374 135.082 42.7443 135.035 42.7416Z" fill="#455A64"/>
<path d="M126.859 42.441H126.818L119.01 41.7579C118.645 41.3964 118.211 41.1128 117.733 40.9246L126.9 41.7716C126.991 41.7836 127.075 41.831 127.132 41.9037C127.19 41.9765 127.217 42.0688 127.207 42.161C127.191 42.2411 127.147 42.313 127.084 42.3642C127.02 42.4154 126.94 42.4426 126.859 42.441Z" fill="#455A64"/>
<path d="M94.8024 50.5831C97.3571 47.1678 99.0989 44.5927 101.428 41.7033C102.753 40.0435 103.6 38.8549 104.843 37.1541C105.718 35.9792 106.21 34.9888 107.207 34.6268C108.284 34.1853 109.255 33.5193 110.055 32.6732C110.547 32.1292 111.003 31.5543 111.421 30.9519C112.885 28.9813 114.624 27.2308 116.585 25.7538C118.635 24.21 120.923 23.0215 123.033 21.5529C124.29 20.6718 125.636 19.21 124.106 17.8439C123.637 17.4487 123.075 17.1784 122.473 17.0583C118.751 16.2523 115.513 17.5297 111.872 18.4586C110.291 18.8533 108.744 19.3765 107.248 20.0228C106.512 20.3139 105.822 20.7096 105.199 21.1977C104.328 22.076 103.614 23.0972 103.088 24.2169C101.496 27.0584 98.0811 29.5994 95.6904 31.8467C92.8967 34.4765 90.3967 36.8877 87.2067 39.7839C84.3379 42.4 81.5305 44.8044 78.9007 47.6596C76.7217 50.0162 77.5346 51.8605 77.8214 52.5025C79.5974 56.1501 81.5851 57.4616 83.969 59.7225C88.0674 63.6365 102.241 74.9002 106.934 78.6229C107.942 79.4148 108.734 80.4486 109.236 81.6284L110.137 83.7117C115.492 84.6953 119.065 76.6557 114.632 66.9767C113.898 65.4115 112.776 64.0596 111.374 63.049C105.772 58.9712 94.8024 50.5831 94.8024 50.5831Z" fill="#FFA8A7"/>
<path d="M94.8024 50.5831C93.0979 52.68 90.8264 54.2425 88.2587 55.0845C88.2587 55.0845 91.674 55.9588 96.353 51.758L94.8024 50.5831Z" fill="#F28F8F"/>
<path d="M164.243 100.344L163.368 99.593C163.238 99.5069 163.089 99.4528 162.933 99.435C162.778 99.4172 162.62 99.4362 162.474 99.4905L152.986 102.072C152.508 102.232 152.07 102.493 151.702 102.837C151.334 103.181 151.045 103.601 150.855 104.067L144.024 123.76C143.942 123.92 143.909 124.102 143.931 124.281C143.953 124.46 144.028 124.628 144.147 124.764L145.049 125.543C145.18 125.633 145.331 125.69 145.489 125.709C145.648 125.728 145.808 125.709 145.957 125.652L155.458 123.07C155.936 122.911 156.374 122.65 156.742 122.306C157.11 121.961 157.399 121.542 157.59 121.075C158.956 117.202 163.054 105.256 164.42 101.383C164.584 100.898 164.502 100.529 164.243 100.344Z" fill="#455A64"/>
<path d="M144.919 124.518L151.749 104.825C151.939 104.359 152.228 103.94 152.596 103.597C152.964 103.254 153.402 102.994 153.881 102.838L163.362 100.256C164.243 100.016 164.728 100.522 164.413 101.383C163.047 105.256 158.949 117.202 157.583 121.075C157.392 121.542 157.103 121.961 156.735 122.306C156.367 122.65 155.93 122.911 155.452 123.07L145.971 125.679C145.096 125.884 144.625 125.379 144.919 124.518Z" fill="#92E3A9"/>
<path d="M152.849 103.384C152.356 103.758 151.973 104.258 151.743 104.832L144.912 124.518C144.834 124.674 144.801 124.85 144.818 125.024C144.835 125.198 144.901 125.363 145.008 125.502L144.161 124.778C144.039 124.643 143.962 124.475 143.939 124.296C143.915 124.116 143.948 123.934 144.031 123.773L150.861 104.081C151.077 103.545 151.428 103.075 151.879 102.715L152.849 103.384Z" fill="#37474F"/>
<path d="M161.64 109.32C160.957 111.321 158.587 112.66 154.666 113.589C150.745 114.518 148.58 118.678 149.202 119.941C149.823 121.205 156.162 122.387 158.696 122.025C161.23 121.663 163.771 118.002 164.543 116.868C165.315 115.734 166.203 107.824 165.39 106.738C164.577 105.652 162.863 105.823 162.863 105.823L161.64 109.32Z" fill="#F28F8F"/>
</svg>
