<svg width="238" height="234" viewBox="0 0 238 234" fill="none" xmlns="http://www.w3.org/2000/svg">
<path d="M16.3883 132.501V28.9438H24.5272" stroke="#E0E0E0" stroke-linecap="round" stroke-linejoin="round"/>
<path d="M16.3939 149.432V145.656" stroke="#E0E0E0" stroke-linecap="round" stroke-linejoin="round"/>
<path d="M45.4503 28.9438H129.395V162.687H16.3883" stroke="#E0E0E0" stroke-linecap="round" stroke-linejoin="round"/>
<path d="M35.156 28.9438H42.5326" stroke="#E0E0E0" stroke-linecap="round" stroke-linejoin="round"/>
<path d="M125.144 33.5384H20.6388V158.098H125.144V33.5384Z" stroke="#E0E0E0" stroke-linecap="round" stroke-linejoin="round"/>
<path d="M120.285 42.2766V90.7222H25.498V86.3056" stroke="#E0E0E0" stroke-linecap="round" stroke-linejoin="round"/>
<path d="M25.498 75.9409V38.3468H120.285" stroke="#E0E0E0" stroke-linecap="round" stroke-linejoin="round"/>
<path d="M25.5035 82.9041V78.6063" stroke="#E0E0E0" stroke-linecap="round" stroke-linejoin="round"/>
<path d="M104.282 95.8155H125.144" stroke="#263238" stroke-linecap="round" stroke-linejoin="round"/>
<path d="M96.8613 95.8155H99.8119" stroke="#263238" stroke-linecap="round" stroke-linejoin="round"/>
<path d="M20.6388 95.8155H93.3348" stroke="#E0E0E0" stroke-linecap="round" stroke-linejoin="round"/>
<path d="M67.6403 90.7222V88.3952H76.377V89.719H72.8944V90.7222" stroke="#E0E0E0" stroke-linecap="round" stroke-linejoin="round"/>
<path d="M20.8198 137.565C20.8198 137.565 22.2677 138.752 23.2878 145.935C23.2878 145.935 25.0428 134.46 27.1707 134.282C29.2987 134.104 28.849 141.75 28.849 141.75C28.849 141.75 29.2 137.981 30.8672 138.153C32.5345 138.325 30.8672 145.935 30.8672 145.935C30.8672 145.935 32.869 139.999 34.7612 140.106C36.6533 140.213 33.5052 150.856 33.5052 150.856C33.5052 150.856 38.3644 147.045 40.3333 148.909C42.3022 150.773 39.2365 155.475 39.2365 155.475C39.2365 155.475 46.2072 153.836 47.2876 158.259" stroke="#E0E0E0" stroke-linecap="round" stroke-linejoin="round"/>
<path d="M47.3041 153.973C47.3041 153.973 50.3424 151.818 52.7282 152.821C52.7282 152.821 51.209 150.316 52.7282 148.784C54.2474 147.253 56.1998 152.821 56.1998 152.821C56.1998 152.821 56.4192 143.495 59.4576 143.964C62.4959 144.433 59.4576 152.821 59.4576 152.821C59.4576 152.821 64.8817 147.621 66.1815 149.432C67.4813 151.242 65.3149 153.973 65.3149 153.973C65.3149 153.973 68.5672 152.845 70.9529 155.475C70.9529 155.475 74.5891 151.456 78.6311 150.88C78.6311 150.88 75.9437 142.439 77.249 140.735C78.5543 139.031 80.9126 148.102 80.9126 148.102C80.9126 148.102 81.9492 142.201 85.344 141.75C85.344 141.75 82.5141 140.082 83.3532 137.565C84.1923 135.048 88.0972 138.159 88.0972 138.159C88.0972 138.159 86.4903 133.724 89.0296 132.507C91.5689 131.29 92.6273 136.217 92.6273 136.217C92.6273 136.217 93.3348 131.053 96.3184 131.338C99.3019 131.623 98.3366 137.571 98.3366 137.571C98.3366 137.571 101.15 132.822 102.658 133.327C105.669 134.288 104.753 141.756 104.753 141.756C104.753 141.756 108.96 138.592 110.04 140.046C111.209 141.619 105.653 145.662 105.653 145.662C105.653 145.662 109.827 146.161 112.421 148.79" stroke="#E0E0E0" stroke-linecap="round" stroke-linejoin="round"/>
<path d="M125.144 139.269C125.144 139.269 124.667 134.52 120.285 134.282C115.903 134.045 121.492 144.671 121.492 144.671C121.492 144.671 117.878 141.435 116.583 142.433C115.289 143.43 120.285 148.909 120.285 148.909C120.285 148.909 117.889 146.535 115.349 147.253C112.81 147.971 116.792 155.623 116.792 155.623C113.038 154.803 109.141 155.296 105.664 157.03" stroke="#E0E0E0" stroke-linecap="round" stroke-linejoin="round"/>
<path d="M168.735 202.964V143.792H230.292" stroke="#E0E0E0" stroke-linecap="round" stroke-linejoin="round"/>
<path d="M228.054 149.912H173.687V205.03" stroke="#E0E0E0" stroke-linecap="round" stroke-linejoin="round"/>
<path d="M184.568 179.973V155.475H188.128V160.526H192.877V158.259H197.122V161.007H202.853V155.475H208.716V159.191H211.875V157.03H217.535V171.461" stroke="#E0E0E0" stroke-linecap="round" stroke-linejoin="round"/>
<path d="M211.875 159.191V179.973" stroke="#E0E0E0" stroke-linecap="round" stroke-linejoin="round"/>
<path d="M209.171 162.301V166.011" stroke="#E0E0E0" stroke-linecap="round" stroke-linejoin="round"/>
<path d="M209.171 168.671V183.909" stroke="#E0E0E0" stroke-linecap="round" stroke-linejoin="round"/>
<path d="M202.853 161.013V174.702" stroke="#E0E0E0" stroke-linecap="round" stroke-linejoin="round"/>
<path d="M203.073 179.214V183.476" stroke="#E0E0E0" stroke-linecap="round" stroke-linejoin="round"/>
<path d="M197.122 161.013V168.671" stroke="#E0E0E0" stroke-linecap="round" stroke-linejoin="round"/>
<path d="M197.122 173.378V189.513" stroke="#E0E0E0" stroke-linecap="round" stroke-linejoin="round"/>
<path d="M192.877 160.526V179.546" stroke="#E0E0E0" stroke-linecap="round" stroke-linejoin="round"/>
<path d="M188.128 160.526V167.721" stroke="#E0E0E0" stroke-linecap="round" stroke-linejoin="round"/>
<path d="M188.128 171.461V188.563" stroke="#E0E0E0" stroke-linecap="round" stroke-linejoin="round"/>
<path d="M184.568 183.476V191.199" stroke="#E0E0E0" stroke-linecap="round" stroke-linejoin="round"/>
<path d="M177.225 191.199H220.431" stroke="#E0E0E0" stroke-linecap="round" stroke-linejoin="round"/>
<path d="M211.875 191.199V186.254" stroke="#E0E0E0" stroke-linecap="round" stroke-linejoin="round"/>
<path d="M203.073 187.56V190.967" stroke="#E0E0E0" stroke-linecap="round" stroke-linejoin="round"/>
<path d="M218.018 163.376H222.208" stroke="#E0E0E0" stroke-linecap="round" stroke-linejoin="round"/>
<path d="M177.389 195.509H217.535" stroke="#E0E0E0" stroke-linecap="round" stroke-linejoin="round"/>
<path d="M186.005 208.076V202.317H193.442V206.028H199.425V213.264H202.853V202.537H210.449V205.03H215.116" stroke="#E0E0E0" stroke-linecap="round" stroke-linejoin="round"/>
<path d="M210.449 205.03V211.204" stroke="#E0E0E0" stroke-linecap="round" stroke-linejoin="round"/>
<path d="M203.073 215.876V220.031" stroke="#E0E0E0" stroke-linecap="round" stroke-linejoin="round"/>
<path d="M199.426 213.264V218.737" stroke="#E0E0E0" stroke-linecap="round" stroke-linejoin="round"/>
<path d="M193.442 206.028V209.168" stroke="#E0E0E0" stroke-linecap="round" stroke-linejoin="round"/>
<path d="M228.241 17.4869H96.812V115.773H228.241V17.4869Z" fill="#92E3A9" stroke="#263238" stroke-linecap="round" stroke-linejoin="round"/>
<path d="M228.241 17.4869H96.812V27.2045H228.241V17.4869Z" fill="#263238"/>
<path d="M150.055 84.875L146.972 80.2328C146.972 79.2634 146.926 78.2945 146.835 77.33C146.72 76.8967 144.85 73.7089 144.806 72.955C144.799 72.595 144.757 72.2368 144.68 71.8865C144.68 71.8865 143.72 72.1477 143.731 72.7829C143.742 73.4181 143.846 75.561 143.846 75.561C143.846 75.561 141.345 73.982 141.066 73.5665C140.786 73.1509 137.737 70.7289 137.452 70.3668C137.166 70.0047 136.004 69.981 135.867 70.3668L136.031 70.812L135.071 71.3048L135.713 73.3646C135.529 73.8283 135.418 74.3218 135.384 74.8249C135.488 75.0802 135.828 76.6058 135.828 76.6058C135.828 76.6058 135.62 76.8373 135.647 77.6446C135.675 78.452 139.771 82.5777 140.583 83.0229C141.553 83.4638 142.545 83.8424 143.556 84.1567L146.128 87.76L150.055 84.875Z" fill="white" stroke="#263238" stroke-linecap="round" stroke-linejoin="round"/>
<path d="M143.841 75.561C143.362 76.7405 143.24 78.0533 143.49 79.3127" stroke="#263238" stroke-linecap="round" stroke-linejoin="round"/>
<path d="M136.026 70.812C136.854 71.1563 137.89 72.8304 138.367 73.3468C138.799 73.7681 139.261 74.1513 139.749 74.4925" stroke="#263238" stroke-linecap="round" stroke-linejoin="round"/>
<path d="M135.707 73.3468C136.388 73.1925 136.848 73.4774 136.832 74.1957C136.815 74.914 138.285 76.0063 138.285 76.0063" stroke="#263238" stroke-linecap="round" stroke-linejoin="round"/>
<path d="M135.823 76.588C135.823 76.588 136.3 75.6679 136.678 76.0893C137.057 76.5108 137.177 77.5912 137.874 77.8168" stroke="#263238" stroke-linecap="round" stroke-linejoin="round"/>
<path d="M190.135 79.8292C190.135 79.8292 179.314 80.5534 176.928 81.6101C174.97 82.4827 161.199 92.2953 161.199 92.2953C161.199 92.2953 153.099 85.6823 150.746 83.3909C150.292 83.1535 149.804 83.0009 149.303 82.9398L148.069 82.0909L145.036 86.7152L145.887 87.9915C145.887 87.9915 146.024 90.0514 146.402 90.5678C151.437 97.4123 161.078 106.993 162.526 107.937C163.974 108.881 176.819 100.654 176.819 100.654L179.204 115.791H217.513C217.513 115.791 217.414 89.2263 215.802 87.1901C214.19 85.154 195.707 77.1698 195.707 77.1698L190.135 79.8292Z" fill="#757575" stroke="#263238" stroke-linecap="round" stroke-linejoin="round"/>
<path d="M203.073 70.2184C203.073 70.2184 199.639 72.7116 201.46 80.6781C201.46 80.6781 196.288 84.6791 191.171 80.6424C191.171 80.6424 192.351 74.2907 191.171 73.0144" fill="white"/>
<path d="M203.073 70.2184C203.073 70.2184 199.639 72.7116 201.46 80.6781C201.46 80.6781 196.288 84.6791 191.171 80.6424C191.171 80.6424 192.351 74.2907 191.171 73.0144" stroke="#263238" stroke-linecap="round" stroke-linejoin="round"/>
<path d="M215.116 88.4249C215.116 88.4249 210.449 94.2364 209.906 104.186" stroke="#263238" stroke-linecap="round" stroke-linejoin="round"/>
<path d="M194.577 54.2559C194.577 54.2559 191.517 53.7573 190.448 57.8176C189.825 60.3044 190.077 62.9528 191.155 65.2498L196.782 59.5332L194.577 54.2559Z" fill="#263238"/>
<path d="M202.025 72.6404C205.968 67.5471 208.755 59.0583 202.831 55.6687C191.402 49.127 187.623 61.9077 189.543 73.7802C190.135 77.4428 194.731 75.8104 198.093 74.4866" fill="white"/>
<path d="M202.025 72.6404C205.968 67.5471 208.755 59.0583 202.831 55.6687C191.402 49.127 187.623 61.9077 189.543 73.7802C190.135 77.4428 194.731 75.8104 198.093 74.4866" stroke="#263238" stroke-linecap="round" stroke-linejoin="round"/>
<path d="M194.04 61.5693C194.04 61.5693 195.926 62.1214 196.404 63.2137" stroke="#263238" stroke-linecap="round" stroke-linejoin="round"/>
<path d="M191.309 61.0291C191.086 60.9106 190.839 60.856 190.591 60.8705C190.343 60.8851 190.103 60.9683 189.894 61.1122" stroke="#263238" stroke-linecap="round" stroke-linejoin="round"/>
<path d="M194.007 64.3831C193.974 64.7452 194.122 65.0598 194.336 65.0836C194.55 65.1073 194.753 64.8283 194.786 64.49C194.819 64.1516 194.67 63.8073 194.457 63.7835C194.243 63.7598 194.04 64.0151 194.007 64.3831Z" fill="#263238"/>
<path d="M189.916 63.2849C189.888 63.653 190.036 63.9676 190.25 63.9913C190.464 64.0151 190.667 63.7361 190.7 63.3977C190.733 63.0593 190.585 62.721 190.365 62.6972C190.146 62.6735 189.948 62.9228 189.916 63.2849Z" fill="#263238"/>
<path d="M200.265 66.7635C200.265 66.7635 198.493 69.5417 197.303 70.4321C196.534 70.9651 195.608 71.1644 194.709 70.9901C194.709 70.9901 193.19 68.9599 190.974 68.9303C190.4 68.535 189.748 68.2929 189.071 68.2239L189.197 65.1251C189.197 65.1251 187.513 71.7678 187.672 74.1482C187.831 76.5286 193.239 78.1789 195.943 77.5141C198.647 76.8492 200.023 72.2961 200.846 68.0161C200.906 67.6599 200.265 66.7635 200.265 66.7635Z" fill="#263238"/>
<path d="M189.4 70.4618C189.4 70.4618 191.539 71.5719 193.442 71.3107" stroke="white" stroke-linecap="round" stroke-linejoin="round"/>
<path d="M202.036 58.2985C202.738 57.7048 200.939 55.1523 199.93 55.2057C198.921 55.2591 193.969 55.461 193.969 55.461C193.969 55.461 192.926 49.5603 201.263 52.7481C202.628 53.2705 203.067 54.6536 204.29 55.36C205.513 56.0664 207.17 59.7825 206.698 62.9525C206.226 66.1224 204.663 71.6847 201.828 73.3528C201.828 73.3528 200.851 73.2459 201.444 72.5157C204.235 69.1143 201.312 62.715 200.846 68.0042L199.864 67.369C199.856 66.7882 199.912 66.2085 200.029 65.6416C200.237 64.1872 198.751 61.2132 202.036 58.2985Z" fill="#263238"/>
<path d="M201.608 66.3777C201.608 66.3777 203.402 64.0744 204.488 64.858C205.574 65.6416 204.844 68.4197 204.263 69.1143C203.681 69.8088 203.21 69.9632 202.404 71.0732C201.597 72.1833 200.583 71.8093 200.758 70.9189" fill="white"/>
<path d="M201.608 66.3777C201.608 66.3777 203.402 64.0744 204.488 64.858C205.574 65.6416 204.844 68.4197 204.263 69.1143C203.681 69.8088 203.21 69.9632 202.404 71.0732C201.597 72.1833 200.583 71.8093 200.758 70.9189" stroke="#263238" stroke-linecap="round" stroke-linejoin="round"/>
<path d="M196.124 64.6799C196.184 65.9681 195.46 67.0544 194.479 67.1078C193.497 67.1613 192.696 66.164 192.636 64.8758C192.575 63.5877 193.299 62.5013 194.281 62.4479C195.263 62.3945 196.053 63.3918 196.124 64.6799Z" stroke="#263238" stroke-width="0.5" stroke-miterlimit="10"/>
<path d="M191.067 63.5105C191.133 64.7986 190.404 65.885 189.449 65.9443C188.495 66.0037 187.667 64.9945 187.601 63.7064C187.535 62.4182 188.27 61.3319 189.246 61.2785C190.223 61.225 191.007 62.2223 191.067 63.5105Z" stroke="#263238" stroke-width="0.5" stroke-miterlimit="10"/>
<path d="M191.588 62.4063C191.588 63 188.747 66.5083 188.714 67.28C188.682 68.0517 191.358 68.0992 191.358 68.0992" fill="white"/>
<path d="M191.588 62.4063C191.588 63 188.747 66.5083 188.714 67.28C188.682 68.0517 191.358 68.0992 191.358 68.0992" stroke="#263238" stroke-linecap="round" stroke-linejoin="round"/>
<path d="M191.067 63.5105C191.067 63.5105 191.917 63.279 192.63 64.5196" stroke="#263238" stroke-width="0.5" stroke-miterlimit="10"/>
<path d="M196.135 65.1311L197.056 65.2795L202.228 65.6713" stroke="#263238" stroke-width="0.5" stroke-miterlimit="10"/>
<path d="M211.875 91.5889L210.844 90.2057C210.844 90.2057 202.157 91.2802 198.318 96.884C198.318 96.884 191.188 93.2391 184.771 95.0141L184.585 97.5014L198.619 106.59L204.104 104.12L211.875 91.5889Z" fill="white" stroke="#263238" stroke-linecap="round" stroke-linejoin="round"/>
<path d="M213.285 90.7519L211.804 101.437C211.804 101.437 203.632 105.319 201.932 108.442L201.526 108.501L199.607 108.792L198.57 108.46C196.034 107.66 193.45 107.05 190.837 106.631C189.93 106.48 189.01 106.442 188.095 106.518L182.566 97.1927C182.566 97.1927 191.117 95.9105 197.029 98.1009L199.859 97.8872L199.963 97.7922C200.813 97.0383 206.769 91.9154 213.285 90.7519Z" fill="#92E3A9"/>
<mask id="mask0_63_327" style="mask-type:luminance" maskUnits="userSpaceOnUse" x="182" y="90" width="32" height="19">
<path d="M213.285 90.7519L211.804 101.437C211.804 101.437 203.632 105.319 201.932 108.442L201.526 108.501L199.607 108.792L198.57 108.46C196.034 107.66 193.45 107.05 190.837 106.631C189.93 106.48 189.01 106.442 188.095 106.518L182.566 97.1927C182.566 97.1927 191.117 95.9105 197.029 98.1009L199.859 97.8872L199.963 97.7922C200.813 97.0383 206.769 91.9154 213.285 90.7519Z" fill="white"/>
</mask>
<g mask="url(#mask0_63_327)">
<path opacity="0.3" d="M201.416 106.008L199.963 97.7863C200.808 97.0383 206.764 91.9153 213.279 90.7518L211.798 101.437C211.798 101.437 203.627 105.319 201.926 108.442L201.521 108.501L201.416 106.008Z" fill="black" fill-opacity="0.7"/>
<path opacity="0.3" d="M198.603 106.59L198.564 108.454C196.028 107.655 193.445 107.044 190.831 106.625C190.947 104.74 191.629 102.947 192.772 101.518C193.915 100.09 195.458 99.105 197.166 98.7123L198.603 106.59Z" fill="black" fill-opacity="0.7"/>
</g>
<path d="M213.285 90.7519L211.804 101.437C211.804 101.437 203.632 105.319 201.932 108.442L201.526 108.501L199.607 108.792L198.57 108.46C196.034 107.66 193.45 107.05 190.837 106.631C189.93 106.48 189.01 106.442 188.095 106.518L182.566 97.1927C182.566 97.1927 191.117 95.9105 197.029 98.1009L199.859 97.8872L199.963 97.7922C200.813 97.0383 206.769 91.9154 213.285 90.7519Z" stroke="#263238" stroke-linecap="round" stroke-linejoin="round"/>
<path d="M201.383 111.048C198.455 110.846 192.883 105.99 192.883 105.99C192.547 105.084 192.077 104.244 191.49 103.503C190.694 102.642 191.753 101.924 191.753 101.924C191.753 101.924 190.826 101.277 190.299 100.921C189.773 100.564 190.694 99.6265 190.694 99.6265C190.694 99.6265 194.671 100.22 195.082 100.06C195.493 99.8996 199.31 102.571 199.903 102.642C200.707 102.658 201.5 102.434 202.195 101.995C202.59 101.639 203.813 99.4128 204.608 98.9795C205.404 98.5461 206.802 98.5521 206.133 99.4841C205.464 100.416 205.585 102.494 205.255 102.785C204.926 103.075 204.383 106.198 204.383 107.272L208.716 111.558L206.248 115.197L201.383 111.048Z" fill="white" stroke="#263238" stroke-linecap="round" stroke-linejoin="round"/>
<path d="M191.736 101.924C192.515 102.018 193.275 102.249 193.985 102.607" stroke="#263238" stroke-linecap="round" stroke-linejoin="round"/>
<path d="M194.687 103.622C194.687 103.622 194.44 104.708 194.374 104.874C194.309 105.04 195.192 106.103 195.065 106.59C194.939 107.077 195.959 108.371 195.959 108.371" stroke="#263238" stroke-linecap="round" stroke-linejoin="round"/>
<path d="M193.689 104.874C192.927 104.477 192.193 104.019 191.495 103.503" stroke="#263238" stroke-linecap="round" stroke-linejoin="round"/>
<path d="M191.566 77.8405L193.464 81.9781L201.263 77.3003L202.979 81.4438L195.022 86.9111L193.491 82.6311L190.398 85.8545L189.351 80.6424L191.566 77.8405Z" fill="#757575" stroke="#263238" stroke-linecap="round" stroke-linejoin="round"/>
<path d="M215.824 87.1723C217.716 89.3628 224.445 105.426 225.093 115.773H204.592V114.847L202.354 113.428C202.354 113.428 203.742 108.145 207.696 108.97L208.848 110.751L211.398 112.829C211.398 112.829 215.873 112.953 217.173 114.348" fill="#757575"/>
<path d="M215.824 87.1723C217.716 89.3628 224.445 105.426 225.093 115.773H204.592V114.847L202.354 113.428C202.354 113.428 203.742 108.145 207.696 108.97L208.848 110.751L211.398 112.829C211.398 112.829 215.873 112.953 217.173 114.348" stroke="#263238" stroke-linecap="round" stroke-linejoin="round"/>
<path d="M211.398 112.852C211.398 112.852 213.882 108.976 217.535 110.614" stroke="#263238" stroke-linecap="round" stroke-linejoin="round"/>
<path d="M210.449 106.59C211.247 108.192 211.957 109.843 212.577 111.535" stroke="#263238" stroke-linecap="round" stroke-linejoin="round"/>
<path d="M176.819 100.636C176.819 100.636 175.299 91.0546 175.722 87.7422L176.819 100.636Z" fill="#757575"/>
<path d="M176.819 100.636C176.819 100.636 175.299 91.0546 175.722 87.7422" stroke="#263238" stroke-linecap="round" stroke-linejoin="round"/>
<path d="M173.78 91.4761C173.78 91.4761 174.625 96.1835 176.523 98.7064L173.78 91.4761Z" fill="#757575"/>
<path d="M173.78 91.4761C173.78 91.4761 174.625 96.1835 176.523 98.7064" stroke="#263238" stroke-linecap="round" stroke-linejoin="round"/>
<path d="M161.199 92.3012C161.199 92.3012 163.585 94.4383 162.066 99.769L161.199 92.3012Z" fill="#757575"/>
<path d="M161.199 92.3012C161.199 92.3012 163.585 94.4383 162.066 99.769" stroke="#263238" stroke-linecap="round" stroke-linejoin="round"/>
<path d="M193.102 86.0207C193.102 86.1313 193.072 86.2394 193.015 86.3313C192.958 86.4232 192.877 86.4947 192.782 86.5367C192.688 86.5788 192.584 86.5895 192.484 86.5675C192.384 86.5455 192.292 86.4917 192.22 86.4131C192.148 86.3345 192.099 86.2345 192.08 86.1259C192.061 86.0172 192.072 85.9048 192.112 85.803C192.152 85.7011 192.219 85.6144 192.304 85.5538C192.389 85.4932 192.49 85.4615 192.592 85.4627C192.659 85.4627 192.726 85.4771 192.788 85.5053C192.851 85.5334 192.907 85.5746 192.955 85.6265C193.002 85.6784 193.039 85.7399 193.065 85.8076C193.09 85.8752 193.103 85.9477 193.102 86.0207Z" fill="#263238"/>
<path d="M191.753 94.189C192.038 94.189 192.268 93.9391 192.268 93.6309C192.268 93.3228 192.038 93.0729 191.753 93.0729C191.468 93.0729 191.237 93.3228 191.237 93.6309C191.237 93.9391 191.468 94.189 191.753 94.189Z" fill="#263238"/>
<path d="M190.974 111.327C191.259 111.327 191.49 111.077 191.49 110.769C191.49 110.461 191.259 110.211 190.974 110.211C190.689 110.211 190.458 110.461 190.458 110.769C190.458 111.077 190.689 111.327 190.974 111.327Z" fill="#263238"/>
<path d="M124.245 60.4118H130.706L133.941 54.3509L130.706 48.2959H124.245L121.015 54.3509L124.245 60.4118Z" stroke="#263238" stroke-linecap="round" stroke-linejoin="round"/>
<path d="M123.307 73.6971L120.077 67.6421H113.616" stroke="#263238" stroke-linecap="round" stroke-linejoin="round"/>
<path d="M114.483 54.3509H120.943L124.174 48.2959L120.943 42.235H114.483L111.252 48.2959L114.483 54.3509Z" stroke="#263238" stroke-linecap="round" stroke-linejoin="round"/>
<path d="M124.245 48.2959H130.706L133.941 42.235L130.706 36.1801H124.245L121.015 42.235L124.245 48.2959Z" stroke="#263238" stroke-linecap="round" stroke-linejoin="round"/>
<path d="M123.307 48.2959C123.306 48.1087 123.356 47.9254 123.452 47.7693C123.547 47.6132 123.683 47.4913 123.843 47.4191C124.003 47.347 124.178 47.3278 124.348 47.364C124.518 47.4002 124.674 47.4902 124.796 47.6226C124.918 47.755 125.001 47.9237 125.035 48.1073C125.068 48.291 125.05 48.4812 124.984 48.6539C124.917 48.8266 124.805 48.974 124.66 49.0773C124.516 49.1805 124.347 49.235 124.174 49.2338C123.944 49.2338 123.724 49.135 123.561 48.9591C123.399 48.7832 123.307 48.5447 123.307 48.2959Z" fill="#263238"/>
<path d="M110.682 36.5184C111.161 36.5184 111.549 36.0985 111.549 35.5805C111.549 35.0625 111.161 34.6426 110.682 34.6426C110.203 34.6426 109.816 35.0625 109.816 35.5805C109.816 36.0985 110.203 36.5184 110.682 36.5184Z" fill="#263238"/>
<path d="M122.441 73.697C122.441 73.5115 122.492 73.3302 122.587 73.176C122.682 73.0217 122.817 72.9015 122.976 72.8305C123.134 72.7595 123.308 72.741 123.476 72.7771C123.644 72.8133 123.799 72.9027 123.92 73.0338C124.041 73.165 124.124 73.3321 124.157 73.5141C124.191 73.696 124.173 73.8846 124.108 74.056C124.042 74.2274 123.931 74.3738 123.789 74.4769C123.646 74.58 123.479 74.635 123.307 74.635C123.077 74.635 122.857 74.5362 122.694 74.3603C122.532 74.1844 122.441 73.9458 122.441 73.697Z" fill="#263238"/>
<path d="M113.616 68.58C114.095 68.58 114.483 68.1601 114.483 67.6421C114.483 67.1241 114.095 66.7042 113.616 66.7042C113.138 66.7042 112.75 67.1241 112.75 67.6421C112.75 68.1601 113.138 68.58 113.616 68.58Z" fill="#263238"/>
<path d="M140.183 42.3953C140.183 42.2084 140.234 42.0257 140.33 41.8703C140.426 41.715 140.563 41.594 140.722 41.5227C140.882 41.4515 141.058 41.4331 141.227 41.47C141.396 41.5069 141.552 41.5974 141.673 41.73C141.795 41.8626 141.878 42.0314 141.911 42.2148C141.944 42.3983 141.926 42.5883 141.859 42.7606C141.792 42.933 141.679 43.08 141.535 43.183C141.391 43.286 141.222 43.3403 141.049 43.3392C140.935 43.3392 140.822 43.3147 140.716 43.2672C140.611 43.2197 140.515 43.1501 140.435 43.0624C140.354 42.9746 140.29 42.8705 140.247 42.7561C140.204 42.6416 140.182 42.519 140.183 42.3953Z" fill="#263238"/>
<path d="M120.011 68.58C120.49 68.58 120.878 68.1601 120.878 67.6421C120.878 67.1241 120.49 66.7042 120.011 66.7042C119.532 66.7042 119.145 67.1241 119.145 67.6421C119.145 68.1601 119.532 68.58 120.011 68.58Z" fill="#263238"/>
<path d="M133.053 42.3953C133.053 42.2086 133.104 42.0261 133.2 41.8709C133.296 41.7157 133.432 41.5947 133.591 41.5233C133.751 41.4519 133.926 41.4332 134.095 41.4696C134.264 41.506 134.42 41.5959 134.542 41.7279C134.664 41.8599 134.747 42.0281 134.78 42.2112C134.814 42.3943 134.797 42.584 134.731 42.7565C134.665 42.929 134.553 43.0764 134.41 43.1801C134.266 43.2838 134.098 43.3392 133.925 43.3392C133.694 43.3392 133.472 43.2397 133.308 43.0627C133.145 42.8857 133.053 42.6456 133.053 42.3953Z" fill="#263238"/>
<path d="M123.307 60.4118C123.306 60.2246 123.356 60.0413 123.452 59.8852C123.547 59.729 123.683 59.6071 123.843 59.535C124.003 59.4628 124.178 59.4436 124.348 59.4798C124.518 59.5161 124.674 59.6061 124.796 59.7384C124.918 59.8708 125.001 60.0395 125.035 60.2232C125.068 60.4068 125.05 60.5971 124.984 60.7698C124.917 60.9425 124.805 61.0898 124.66 61.1931C124.516 61.2964 124.347 61.3509 124.174 61.3497C123.944 61.3481 123.725 61.2488 123.563 61.0733C123.4 60.8977 123.309 60.66 123.307 60.4118Z" fill="#263238"/>
<path d="M133.941 42.3953H141.055" stroke="#263238" stroke-linecap="round" stroke-linejoin="round"/>
<path d="M124.174 60.4118L120.011 67.6421" stroke="#263238" stroke-linecap="round" stroke-linejoin="round"/>
<path d="M114.483 42.235L110.682 35.5805" stroke="#263238" stroke-linecap="round" stroke-linejoin="round"/>
<path d="M107.035 89.6833C107.617 89.1157 108.271 88.6401 108.976 88.2705C109.005 88.4611 109.1 88.6326 109.242 88.7497C109.383 88.8667 109.561 88.9205 109.739 88.8997C110.128 88.8344 110.567 88.4189 110.836 88.7217C110.945 88.8404 110.967 89.0303 111.082 89.1431C111.433 89.4934 112.031 88.7395 112.426 89.0244C112.53 89.1016 112.585 89.2322 112.695 89.3093C112.781 89.3499 112.875 89.3708 112.969 89.3708C113.063 89.3708 113.157 89.3499 113.243 89.3093C114.223 89.0677 115.229 88.9738 116.232 89.0303L120.834 89.066L120.483 88.8701" stroke="#263238" stroke-linecap="round" stroke-linejoin="round"/>
<path d="M106.788 93.8387C106.826 93.6436 106.927 93.4692 107.071 93.3457C107.216 93.2221 107.396 93.1572 107.58 93.1621C107.764 93.167 107.941 93.2415 108.08 93.3727C108.219 93.5038 108.311 93.6834 108.34 93.8802C108.454 93.8227 108.556 93.7403 108.639 93.6381C108.722 93.536 108.785 93.4163 108.823 93.2866C109.119 94.0049 110.035 94.0643 110.764 94.0108L114.017 93.7615C114.993 93.6844 116.134 93.4944 116.572 92.5743C117.055 93.5265 117.247 94.6194 117.121 95.6967C117.422 94.9212 117.815 94.191 118.289 93.5241C118.388 93.904 118.486 94.2839 118.58 94.6638C120.845 92.9483 123.943 94.0702 126.686 93.6962" stroke="#263238" stroke-linecap="round" stroke-linejoin="round"/>
<path d="M107.079 99.3416C107.068 99.2324 107.096 99.1228 107.156 99.0341C107.215 98.9453 107.303 98.8836 107.402 98.8608C107.433 98.9684 107.484 99.0681 107.552 99.1538C107.619 99.2394 107.702 99.3091 107.796 99.3586C107.889 99.4081 107.991 99.4363 108.095 99.4416C108.199 99.4468 108.303 99.4289 108.401 99.3891C108.792 99.2112 109.127 98.9143 109.366 98.5343C109.448 98.6061 109.543 98.6582 109.644 98.6871C109.746 98.7161 109.853 98.7212 109.956 98.7021C110.06 98.683 110.159 98.6401 110.246 98.5764C110.334 98.5126 110.407 98.4295 110.463 98.3324C110.707 98.7613 110.91 99.217 111.066 99.6918C111.362 98.8726 112.366 98.742 113.183 98.748H119.764" stroke="#263238" stroke-linecap="round" stroke-linejoin="round"/>
<path d="M157.952 34.7316C156.381 34.6904 154.841 35.2052 153.565 36.1979C151.985 37.2901 150.483 39.1304 150.877 41.1131C151.272 43.0958 153.433 44.1465 155.336 44.5442C156.973 44.8892 158.638 45.0484 160.305 45.0191C160.947 45.0296 161.588 44.9558 162.214 44.7995C162.846 44.6055 163.46 44.3451 164.045 44.0218L168.29 41.861C168.872 41.5642 169.524 41.1843 169.683 40.5076C169.881 39.6706 169.217 38.8929 168.587 38.3883C166.204 36.5439 163.266 35.7424 160.36 36.1444" stroke="#263238" stroke-linecap="round" stroke-linejoin="round"/>
<path d="M152.912 39.1719C153.162 38.8685 153.485 38.6465 153.844 38.5308C153.773 38.7579 153.773 39.0042 153.844 39.2313C153.943 39.445 154.245 39.5518 154.393 39.3738C154.541 39.1957 154.574 38.9107 154.738 38.9998L154.936 39.4747C155.205 39.3738 155.413 39.1363 155.676 39.0116C155.976 38.9028 156.295 38.8703 156.609 38.9167C158.963 39.0475 161.324 38.9701 163.667 38.6852" stroke="#263238" stroke-linecap="round" stroke-linejoin="round"/>
<path d="M156.751 41.7245C156.785 41.6032 156.845 41.4922 156.926 41.4005C157.007 41.3088 157.107 41.2388 157.217 41.1962C157.091 41.3446 157.245 41.5999 157.431 41.6355C157.62 41.6392 157.808 41.5965 157.98 41.5108C158.188 41.4527 158.401 41.4208 158.616 41.4158L162.614 41.119" stroke="#263238" stroke-linecap="round" stroke-linejoin="round"/>
<path d="M158.457 47.7557C157.3 52.2178 154.902 56.186 151.588 59.1206C148.274 62.0553 144.206 63.814 139.936 64.1575" stroke="#263238" stroke-linecap="round" stroke-linejoin="round"/>
<path d="M140.002 62.8694C139.226 63.3881 138.535 64.0419 137.956 64.8046C138.298 64.727 138.654 64.7536 138.983 64.8814C139.312 65.0093 139.602 65.2334 139.821 65.5288" stroke="#263238" stroke-linecap="round" stroke-linejoin="round"/>
<path d="M157.141 64.2822L157.64 65.4695L158.353 64.5553C158.486 64.663 158.58 64.8188 158.616 64.9945C158.671 65.1608 158.753 65.3448 158.907 65.3923C159.06 65.4398 159.252 65.2142 159.137 65.0895C159.238 65.1635 159.352 65.2129 159.473 65.2344C159.593 65.2559 159.716 65.249 159.833 65.2142C159.938 65.2142 160.031 65.1311 160.135 65.1014C160.259 65.0719 160.387 65.06 160.514 65.0658H167.923" stroke="#263238" stroke-linecap="round" stroke-linejoin="round"/>
<path d="M157.486 70.8121C157.521 70.717 157.578 70.6332 157.652 70.569C157.725 70.5048 157.813 70.4623 157.906 70.4456C157.999 70.4288 158.095 70.4385 158.184 70.4736C158.273 70.5087 158.352 70.568 158.413 70.6458C158.437 70.7218 158.475 70.7923 158.523 70.8536C158.589 70.9041 158.67 70.926 158.75 70.915C158.83 70.904 158.904 70.8609 158.956 70.7942C159.077 70.6755 159.153 70.5152 159.28 70.4084C159.625 70.1175 160.119 70.3431 160.541 70.4677C161.082 70.5902 161.637 70.6222 162.186 70.5627L166.393 70.3253" stroke="#263238" stroke-linecap="round" stroke-linejoin="round"/>
<path d="M157.618 75.8579C157.758 75.8619 157.895 75.8149 158.007 75.7245C158.12 75.6341 158.201 75.5054 158.238 75.3592C158.307 75.3719 158.372 75.407 158.422 75.46C158.473 75.5129 158.508 75.5813 158.523 75.656C158.724 75.5213 158.896 75.341 159.027 75.1277C161.737 75.1633 164.45 75.1633 167.166 75.1277" stroke="#263238" stroke-linecap="round" stroke-linejoin="round"/>
<path d="M157.612 79.6273C157.78 79.7024 157.968 79.7076 158.139 79.6418C158.31 79.576 158.453 79.444 158.539 79.2712C158.711 79.4219 158.831 79.6311 158.879 79.8648C158.987 79.7855 159.109 79.7314 159.238 79.7059C159.366 79.6803 159.498 79.6839 159.625 79.7164C159.729 79.7164 159.833 79.7935 159.938 79.8232C160.201 79.8962 160.473 79.9222 160.744 79.9004L170.199 79.752" stroke="#263238" stroke-linecap="round" stroke-linejoin="round"/>
<path d="M132.225 103.628L136.519 103.176C136.561 103.182 136.604 103.177 136.643 103.16C136.682 103.144 136.717 103.117 136.745 103.082C136.772 103.047 136.791 103.006 136.799 102.961C136.808 102.916 136.806 102.87 136.793 102.826V99.858C136.804 99.7594 136.78 99.6601 136.728 99.579C136.692 99.5442 136.65 99.5173 136.605 99.5C136.56 99.4827 136.512 99.4752 136.464 99.4781C135.532 99.3891 133.431 98.8845 132.625 99.5672C131.819 100.25 132.23 102.612 132.225 103.628Z" stroke="#263238" stroke-linecap="round" stroke-linejoin="round"/>
<path d="M133.453 100.98C133.508 101.259 133.558 101.538 133.612 101.823C134.263 101.676 134.931 101.638 135.592 101.71" stroke="#263238" stroke-linecap="round" stroke-linejoin="round"/>
<path d="M135.642 104.91C135.602 104.977 135.579 105.054 135.578 105.134C135.577 105.214 135.596 105.292 135.633 105.361C135.671 105.43 135.726 105.485 135.791 105.522C135.857 105.559 135.93 105.575 136.004 105.569C136.294 105.509 136.525 105.088 136.793 105.218" stroke="#263238" stroke-linecap="round" stroke-linejoin="round"/>
<path d="M132.686 98.0653C132.74 97.9769 132.817 97.9075 132.907 97.8656C132.997 97.8237 133.096 97.8111 133.193 97.8294C133.289 97.8477 133.379 97.896 133.45 97.9684C133.522 98.0409 133.573 98.1344 133.596 98.2374L134.627 98.1068" stroke="#263238" stroke-linecap="round" stroke-linejoin="round"/>
<path d="M141.241 107.908C142.704 107.908 144.166 107.908 145.629 107.908C146.766 107.924 147.902 107.85 149.029 107.688C149.156 107.68 149.276 107.626 149.369 107.534C149.447 107.412 149.48 107.264 149.462 107.118V99.8996C149.462 99.8165 142.744 99.585 141.96 100.173C140.38 101.372 141.241 106.061 141.241 107.908Z" stroke="#263238" stroke-linecap="round" stroke-linejoin="round"/>
<path d="M143.622 102.037L144.669 102.066C144.481 102.838 144.183 103.572 143.786 104.245C143.643 104.453 143.473 104.714 143.578 104.945C144.126 105.04 144.768 105.094 145.113 104.637C145.563 104.043 145.168 103.111 145.508 102.446L145.64 103.853L146.095 104.322C146.213 104.465 146.362 104.575 146.528 104.643C146.612 104.674 146.702 104.673 146.785 104.641C146.868 104.609 146.938 104.546 146.983 104.465" stroke="#263238" stroke-linecap="round" stroke-linejoin="round"/>
<path d="M146.671 109.119C147.016 108.982 147.159 109.683 147.515 109.783C147.872 109.884 148.064 109.374 148.366 109.148C148.509 109.046 148.681 109.002 148.852 109.026C149.022 109.05 149.178 109.14 149.292 109.279" stroke="#263238" stroke-linecap="round" stroke-linejoin="round"/>
<path d="M143.841 97.6972C144.17 97.7863 144.038 98.3799 144.285 98.6352C144.532 98.8904 144.943 98.6352 145.223 98.3918C145.503 98.1484 146.013 98.0415 146.117 98.3918" stroke="#263238" stroke-linecap="round" stroke-linejoin="round"/>
<path d="M228.241 115.637H96.812V125.681H228.241V115.637Z" fill="#BFBFBF" stroke="#263238" stroke-linecap="round" stroke-linejoin="round"/>
<path d="M203.923 119.59H118.048V121.727H203.923V119.59Z" fill="#263238"/>
<path d="M166.749 120.676C166.749 120.985 166.665 121.287 166.506 121.544C166.348 121.801 166.122 122.001 165.859 122.119C165.595 122.237 165.305 122.268 165.026 122.208C164.746 122.147 164.489 121.999 164.287 121.78C164.085 121.562 163.948 121.284 163.892 120.981C163.837 120.678 163.865 120.364 163.974 120.079C164.083 119.794 164.268 119.55 164.506 119.378C164.743 119.207 165.022 119.115 165.307 119.115C165.689 119.115 166.056 119.28 166.327 119.572C166.597 119.865 166.749 120.262 166.749 120.676Z" fill="#92E3A9" stroke="#263238" stroke-linecap="round" stroke-linejoin="round"/>
<path d="M223.985 118.735H220.431V122.582H223.985V118.735Z" stroke="#263238" stroke-linecap="round" stroke-linejoin="round"/>
<path d="M218.023 118.735H214.469V122.582H218.023V118.735Z" stroke="#263238" stroke-linecap="round" stroke-linejoin="round"/>
<path d="M107.073 118.694H100.881V122.623H107.073V118.694Z" stroke="#263238" stroke-linecap="round" stroke-linejoin="round"/>
<path d="M100.81 22.3427H124.174" stroke="white" stroke-linecap="round" stroke-linejoin="round"/>
<path d="M224.912 22.2537C224.913 22.5489 224.833 22.8377 224.682 23.0837C224.531 23.3296 224.316 23.5215 224.064 23.635C223.813 23.7485 223.535 23.7785 223.268 23.7212C223 23.6639 222.755 23.5219 222.562 23.3132C222.369 23.1044 222.238 22.8384 222.185 22.5488C222.132 22.2592 222.159 21.9592 222.264 21.6867C222.369 21.4142 222.546 21.1815 222.774 21.0182C223.001 20.855 223.268 20.7684 223.541 20.7696C223.904 20.7696 224.253 20.926 224.51 21.2043C224.767 21.4826 224.912 21.8601 224.912 22.2537Z" stroke="white" stroke-linecap="round" stroke-linejoin="round"/>
<path d="M219.488 22.3427C219.488 22.6362 219.407 22.9232 219.256 23.1672C219.106 23.4113 218.892 23.6015 218.641 23.7138C218.391 23.8261 218.115 23.8555 217.849 23.7983C217.583 23.741 217.339 23.5996 217.147 23.3921C216.955 23.1845 216.825 22.9201 216.772 22.6322C216.719 22.3444 216.746 22.046 216.85 21.7748C216.953 21.5036 217.129 21.2718 217.355 21.1088C217.58 20.9457 217.845 20.8587 218.116 20.8587C218.48 20.8587 218.829 21.015 219.086 21.2933C219.343 21.5716 219.488 21.9491 219.488 22.3427Z" stroke="white" stroke-linecap="round" stroke-linejoin="round"/>
<path d="M214.063 22.4377C214.062 22.731 213.981 23.0173 213.83 23.2606C213.678 23.5038 213.464 23.6931 213.213 23.8045C212.963 23.916 212.687 23.9445 212.421 23.8866C212.156 23.8286 211.912 23.6868 211.721 23.479C211.53 23.2713 211.4 23.0068 211.347 22.7191C211.295 22.4314 211.322 22.1333 211.426 21.8625C211.53 21.5916 211.706 21.3602 211.931 21.1974C212.156 21.0346 212.421 20.9477 212.692 20.9477C212.873 20.9477 213.052 20.9863 213.218 21.0612C213.385 21.1362 213.536 21.246 213.664 21.3845C213.791 21.5229 213.892 21.6872 213.961 21.8679C214.029 22.0487 214.064 22.2423 214.063 22.4377Z" stroke="white" stroke-linecap="round" stroke-linejoin="round"/>
<path d="M109.892 218.743H96.9052L89.8741 216.333L87.6804 215.579L87.0387 222.744L10.1361 222.898C10.1361 222.898 11.3098 219.693 13.2238 214.991C17.3536 204.846 24.9221 187.714 31.5418 180.715C36.9165 175.035 50.3424 174.874 50.3424 174.874C51.7131 173.891 53.3212 173.366 54.9658 173.366C57.4338 173.497 76.0918 175.687 77.249 176.335C78.0546 176.84 78.746 177.534 79.2727 178.365C79.2727 178.365 85.8102 175.236 92.2324 178.056C98.6547 180.876 109.892 218.743 109.892 218.743Z" fill="#BFBFBF"/>
<mask id="mask1_63_327" style="mask-type:luminance" maskUnits="userSpaceOnUse" x="10" y="173" width="100" height="50">
<path d="M109.892 218.743H96.9052L89.8741 216.333L87.6804 215.579L87.0387 222.744L10.1361 222.898C10.1361 222.898 11.3098 219.693 13.2238 214.991C17.3536 204.846 24.9221 187.714 31.5418 180.715C36.9165 175.035 50.3424 174.874 50.3424 174.874C51.7131 173.891 53.3212 173.366 54.9658 173.366C57.4338 173.497 76.0918 175.687 77.249 176.335C78.0546 176.84 78.746 177.534 79.2727 178.365C79.2727 178.365 85.8102 175.236 92.2324 178.056C98.6547 180.876 109.892 218.743 109.892 218.743Z" fill="white"/>
</mask>
<g mask="url(#mask1_63_327)">
<path opacity="0.2" d="M89.8741 216.333L87.6804 215.579L87.0387 222.744L10.1361 222.898C10.1361 222.898 11.3098 219.693 13.2238 214.991C16.1909 214.914 19.5364 214.748 19.5364 214.748L21.2585 208.651C21.2585 208.651 23.9623 205.559 27.3407 207.381C27.2281 206.92 27.2516 206.432 27.4079 205.986C27.5643 205.54 27.8457 205.158 28.2128 204.894C29.5181 203.956 34.8709 206.965 34.8709 206.965C34.8709 206.965 37.4485 201.623 38.326 198.126C39.2035 194.63 39.7849 203.071 39.7849 203.071C39.7849 203.071 41.9787 199.189 41.9787 198.126C41.9787 197.064 46.0262 208.651 46.0262 208.651C46.0262 208.651 51.379 209.346 52.8269 209.94C54.2747 210.533 68.6878 211.127 73.3276 209.94C77.9674 208.752 70.037 215.876 70.037 215.876C70.037 215.876 78.1868 218.844 82.7937 216.897C87.4007 214.95 89.4628 212.866 89.4628 212.866C89.4628 212.866 89.6328 214.309 89.8741 216.333Z" fill="black" fill-opacity="0.7"/>
</g>
<path d="M109.892 218.743H96.9052L89.8741 216.333L87.6804 215.579L87.0387 222.744L10.1361 222.898C10.1361 222.898 11.3098 219.693 13.2238 214.991C17.3536 204.846 24.9221 187.714 31.5418 180.715C36.9165 175.035 50.3424 174.874 50.3424 174.874C51.7131 173.891 53.3212 173.366 54.9658 173.366C57.4338 173.497 76.0918 175.687 77.249 176.335C78.0546 176.84 78.746 177.534 79.2727 178.365C79.2727 178.365 85.8102 175.236 92.2324 178.056C98.6547 180.876 109.892 218.743 109.892 218.743Z" stroke="#263238" stroke-linecap="round" stroke-linejoin="round"/>
<path d="M85.6402 200.436C84.498 202.179 83.1952 203.792 81.7517 205.25" stroke="#263238" stroke-linecap="round" stroke-linejoin="round"/>
<path d="M77.951 208.711C72.3636 213.178 65.7967 215.991 58.8981 216.873" stroke="#263238" stroke-linecap="round" stroke-linejoin="round"/>
<path d="M101.967 206.686C101.967 206.686 103.964 205.345 105.713 205.784C107.463 206.223 108.911 208.093 108.911 208.093C108.911 208.093 123.433 206.793 126.729 206.906C130.026 207.019 137.402 209.358 137.402 209.358C137.402 209.358 140.978 208.574 141.362 208.734C141.746 208.895 140.589 222.067 140.589 222.067H93.4226C91.1081 222.067 89.3915 218.44 87.653 215.591C90.6481 204.252 92.18 192.52 92.205 180.727" fill="#BFBFBF"/>
<mask id="mask2_63_327" style="mask-type:luminance" maskUnits="userSpaceOnUse" x="87" y="180" width="55" height="43">
<path d="M101.967 206.686C101.967 206.686 103.964 205.345 105.713 205.784C107.463 206.223 108.911 208.093 108.911 208.093C108.911 208.093 123.433 206.793 126.729 206.906C130.026 207.019 137.402 209.358 137.402 209.358C137.402 209.358 140.978 208.574 141.362 208.734C141.746 208.895 140.589 222.067 140.589 222.067H93.4226C91.1081 222.067 89.3915 218.44 87.653 215.591C90.6481 204.252 92.18 192.52 92.205 180.727" fill="white"/>
</mask>
<g mask="url(#mask2_63_327)">
<path opacity="0.2" d="M114.911 222.055H93.4335C91.1191 222.055 89.4025 218.428 87.6639 215.579C89.3835 209.182 90.6071 202.642 91.322 196.025C91.322 196.025 93.6035 199.688 92.216 203.932L93.6035 199.688C93.6035 199.688 94.9363 204.235 93.6035 208.087C92.2708 211.94 91.322 213.044 91.322 213.044C91.322 213.044 92.9673 215.371 94.7114 214.748C96.4554 214.125 98.353 217.9 98.353 217.9C98.353 217.9 102.543 218.072 103.415 217.9C103.816 217.823 109.24 219.847 114.911 222.055Z" fill="black" fill-opacity="0.7"/>
</g>
<path d="M101.967 206.686C101.967 206.686 103.964 205.345 105.713 205.784C107.463 206.223 108.911 208.093 108.911 208.093C108.911 208.093 123.433 206.793 126.729 206.906C130.026 207.019 137.402 209.358 137.402 209.358C137.402 209.358 140.978 208.574 141.362 208.734C141.746 208.895 140.589 222.067 140.589 222.067H93.4226C91.1081 222.067 89.3915 218.44 87.653 215.591C90.6481 204.252 92.18 192.52 92.205 180.727" stroke="#263238" stroke-linecap="round" stroke-linejoin="round"/>
<path d="M75.0059 165.667V178.347C73.5207 179.442 71.9829 180.45 70.3989 181.368C67.2015 183.203 63.0992 185.019 60.6586 183.986C56.2327 182.105 53.3643 174.874 53.3643 174.874C58.1413 170.933 58.7171 165.667 59.4411 163.162L75.0059 165.667Z" fill="white" stroke="#263238" stroke-linecap="round" stroke-linejoin="round"/>
<path d="M51.0499 175.842C51.0499 175.842 55.1029 185.393 60.0224 187.121C64.942 188.848 73.2728 182.105 73.2728 182.105" stroke="#263238" stroke-linecap="round" stroke-linejoin="round"/>
<path d="M28.9203 187.4C28.9203 187.4 36.5985 193.87 37.8873 196.049C39.1762 198.227 37.8873 218.743 37.8873 218.743" stroke="#263238" stroke-linecap="round" stroke-linejoin="round"/>
<path d="M18.467 208.277C22.9916 205.119 26.1726 208.574 28.9203 209.197C31.668 209.821 37.7447 206.461 42.3023 209.197C46.8598 211.934 46.8598 210.978 46.8598 210.978C46.8598 210.978 51.6313 214.92 49.1688 222.809L10.1197 222.886C10.1197 222.886 7.51458 216.861 16.0758 208.265" fill="#BFBFBF"/>
<path d="M18.467 208.277C22.9916 205.119 26.1726 208.574 28.9203 209.197C31.668 209.821 37.7447 206.461 42.3023 209.197C46.8598 211.934 46.8598 210.978 46.8598 210.978C46.8598 210.978 51.6313 214.92 49.1688 222.809L10.1197 222.886C10.1197 222.886 7.51458 216.861 16.0758 208.265" stroke="#263238" stroke-linecap="round" stroke-linejoin="round"/>
<path d="M56.7318 196.067L67.037 216.469L67.3606 218.761L65.7153 217.176L55.0865 196.921C55.2428 196.61 55.4859 196.359 55.7813 196.206C56.0767 196.052 56.4093 196.004 56.7318 196.067Z" fill="#92E3A9" stroke="#263238" stroke-linecap="round" stroke-linejoin="round"/>
<path d="M46.9476 212.047C47.7258 211.802 48.5253 211.645 49.3333 211.578C50.2053 211.578 55.5691 207.286 57.3899 206.965C59.2107 206.645 62.4849 209.583 64.1522 210.052C65.8195 210.521 65.7153 212.872 66.6915 213.81C67.6677 214.748 66.2582 215.805 65.0462 214.748C65.1327 215.114 65.1381 215.498 65.0618 215.867C64.9856 216.237 64.8299 216.581 64.6074 216.873C64.6074 216.873 64.9365 218.155 64.6074 218.743H45.3022C45.3022 218.743 45.0116 214.748 46.9476 212.047Z" fill="white" stroke="#263238" stroke-linecap="round" stroke-linejoin="round"/>
<path d="M65.0846 214.748L63.346 212.89L58.8981 211.346" stroke="#263238" stroke-linecap="round" stroke-linejoin="round"/>
<path d="M64.6513 216.873L61.9913 215.579L58.3552 214.837" stroke="#263238" stroke-linecap="round" stroke-linejoin="round"/>
<path d="M58.3552 217.9L61.9913 218.078L64.6513 218.743" stroke="#263238" stroke-linecap="round" stroke-linejoin="round"/>
<path d="M57.4064 206.965C55.761 208.527 57.4064 210.171 56.6221 211.346C55.8378 212.522 54.9768 212.872 55.6459 214.748" stroke="#263238" stroke-linecap="round" stroke-linejoin="round"/>
<path d="M80.8852 219.734H168.735C168.735 220.573 168.427 221.378 167.878 221.972C167.33 222.565 166.587 222.898 165.811 222.898H87.9326C87.6272 222.898 87.3238 222.846 87.0332 222.744L80.7755 220.559C80.6861 220.53 80.6094 220.468 80.5592 220.383C80.509 220.297 80.4887 220.196 80.502 220.096C80.5153 219.996 80.5613 219.904 80.6316 219.838C80.7019 219.772 80.7919 219.735 80.8852 219.734Z" fill="#92E3A9"/>
<mask id="mask3_63_327" style="mask-type:luminance" maskUnits="userSpaceOnUse" x="80" y="219" width="89" height="4">
<path d="M80.8852 219.734H168.735C168.735 220.573 168.427 221.378 167.878 221.972C167.33 222.565 166.587 222.898 165.811 222.898H87.9326C87.6272 222.898 87.3238 222.846 87.0332 222.744L80.7755 220.559C80.6861 220.53 80.6094 220.468 80.5592 220.383C80.509 220.297 80.4887 220.196 80.502 220.096C80.5153 219.996 80.5613 219.904 80.6316 219.838C80.7019 219.772 80.7919 219.735 80.8852 219.734Z" fill="white"/>
</mask>
<g mask="url(#mask3_63_327)">
<path opacity="0.2" d="M168.734 219.734C168.733 220.573 168.426 221.378 167.879 221.972L167.791 222.055C167.253 222.597 166.546 222.898 165.811 222.898H87.9324C87.627 222.898 87.3235 222.846 87.0329 222.744L80.7752 220.559C80.6849 220.53 80.6074 220.466 80.5572 220.38C80.507 220.294 80.4875 220.191 80.5022 220.09C80.517 219.989 80.565 219.897 80.6374 219.832C80.7098 219.767 80.8016 219.732 80.8958 219.734H168.734Z" fill="black" fill-opacity="0.7"/>
<path opacity="0.2" d="M168.735 219.734C168.734 220.573 168.426 221.378 167.879 221.972L167.791 222.055H117.527C116.957 222.055 116.411 221.811 116.008 221.376C115.605 220.941 115.378 220.35 115.377 219.734H168.735Z" fill="black" fill-opacity="0.7"/>
</g>
<path d="M80.8852 219.734H168.735C168.735 220.573 168.427 221.378 167.878 221.972C167.33 222.565 166.587 222.898 165.811 222.898H87.9326C87.6272 222.898 87.3238 222.846 87.0332 222.744L80.7755 220.559C80.6861 220.53 80.6094 220.468 80.5592 220.383C80.509 220.297 80.4887 220.196 80.502 220.096C80.5153 219.996 80.5613 219.904 80.6316 219.838C80.7019 219.772 80.7919 219.735 80.8852 219.734Z" stroke="#263238" stroke-linecap="round" stroke-linejoin="round"/>
<path d="M115.377 219.734C115.378 220.35 115.605 220.941 116.008 221.376C116.411 221.811 116.957 222.055 117.527 222.055H125.868" stroke="#263238" stroke-linecap="round" stroke-linejoin="round"/>
<path d="M184.459 180.704V180.781L174.236 219.277C174.083 219.772 173.795 220.204 173.41 220.517C173.025 220.83 172.561 221.008 172.08 221.028H118.826C118.625 221.046 118.422 221.008 118.238 220.918C118.053 220.829 117.892 220.691 117.77 220.516C117.648 220.342 117.568 220.137 117.538 219.921C117.508 219.704 117.528 219.483 117.598 219.277L127.81 180.781C127.962 180.286 128.249 179.853 128.634 179.54C129.02 179.227 129.484 179.049 129.965 179.03H183.219C183.414 179.011 183.611 179.044 183.792 179.128C183.972 179.211 184.131 179.341 184.253 179.507C184.376 179.673 184.459 179.869 184.495 180.077C184.53 180.286 184.518 180.501 184.459 180.704Z" fill="#92E3A9"/>
<mask id="mask4_63_327" style="mask-type:luminance" maskUnits="userSpaceOnUse" x="117" y="179" width="68" height="43">
<path d="M184.459 180.704V180.781L174.236 219.277C174.083 219.772 173.795 220.204 173.41 220.517C173.025 220.83 172.561 221.008 172.08 221.028H118.826C118.625 221.046 118.422 221.008 118.238 220.918C118.053 220.829 117.892 220.691 117.77 220.516C117.648 220.342 117.568 220.137 117.538 219.921C117.508 219.704 117.528 219.483 117.598 219.277L127.81 180.781C127.962 180.286 128.249 179.853 128.634 179.54C129.02 179.227 129.484 179.049 129.965 179.03H183.219C183.414 179.011 183.611 179.044 183.792 179.128C183.972 179.211 184.131 179.341 184.253 179.507C184.376 179.673 184.459 179.869 184.495 180.077C184.53 180.286 184.518 180.501 184.459 180.704Z" fill="white"/>
</mask>
<g mask="url(#mask4_63_327)">
<path opacity="0.4" d="M184.459 180.704V180.781L174.236 219.277C174.083 219.772 173.795 220.204 173.41 220.517C173.025 220.83 172.561 221.008 172.08 221.028H119.177V220.951L129.384 182.455C129.536 181.96 129.824 181.528 130.209 181.215C130.594 180.902 131.058 180.724 131.539 180.704H184.459Z" fill="white"/>
</g>
<path d="M184.459 180.704V180.781L174.236 219.277C174.083 219.772 173.795 220.204 173.41 220.517C173.025 220.83 172.561 221.008 172.08 221.028H118.826C118.625 221.046 118.422 221.008 118.238 220.918C118.053 220.829 117.892 220.691 117.77 220.516C117.648 220.342 117.568 220.137 117.538 219.921C117.508 219.704 117.528 219.483 117.598 219.277L127.81 180.781C127.962 180.286 128.249 179.853 128.634 179.54C129.02 179.227 129.484 179.049 129.965 179.03H183.219C183.414 179.011 183.611 179.044 183.792 179.128C183.972 179.211 184.131 179.341 184.253 179.507C184.376 179.673 184.459 179.869 184.495 180.077C184.53 180.286 184.518 180.501 184.459 180.704Z" stroke="#263238" stroke-linecap="round" stroke-linejoin="round"/>
<path d="M154.859 200.738C154.405 201.749 153.706 202.607 152.837 203.221C151.968 203.835 150.96 204.181 149.923 204.223C147.685 204.223 146.364 202.347 146.978 200.032C147.345 198.847 148.036 197.812 148.96 197.062C149.884 196.312 150.996 195.884 152.15 195.835H152.248C152.145 196.064 152.061 196.302 151.996 196.547C151.366 198.845 152.654 200.703 154.859 200.738Z" fill="white" stroke="#263238" stroke-linecap="round" stroke-linejoin="round"/>
<path d="M119.452 219.141L129.417 181.564C129.506 181.276 129.673 181.024 129.898 180.842C130.122 180.66 130.392 180.555 130.673 180.543H182.292" stroke="#263238" stroke-linecap="round" stroke-linejoin="round"/>
<path d="M94.7114 222.898H21.2202L22.1086 220.892C22.1086 220.892 29.0519 221.592 34.5528 219.734C36.9824 218.915 40.7228 218.547 44.4741 218.595C46.8379 218.63 52.5911 218.654 56.1614 218.636C57.4338 218.636 58.432 218.636 58.9036 218.601C59.0846 218.601 59.2656 218.601 59.4521 218.601C60.4703 218.587 61.4869 218.691 62.485 218.909C63.448 218.791 64.4171 218.74 65.3862 218.755C67.0809 218.755 74.3697 218.725 76.3551 218.755C78.9711 218.79 81.993 219.348 84.8614 219.776L84.9382 219.746V219.788C88.4043 220.31 91.6511 220.666 93.7133 219.746L94.7114 222.898Z" fill="white"/>
<mask id="mask5_63_327" style="mask-type:luminance" maskUnits="userSpaceOnUse" x="21" y="218" width="74" height="5">
<path d="M94.7114 222.898H21.2202L22.1086 220.892C22.1086 220.892 29.0519 221.592 34.5528 219.734C36.9824 218.915 40.7228 218.547 44.4741 218.595C46.8379 218.63 52.5911 218.654 56.1614 218.636C57.4338 218.636 58.432 218.636 58.9036 218.601C59.0846 218.601 59.2656 218.601 59.4521 218.601C60.4703 218.587 61.4869 218.691 62.485 218.909C63.448 218.791 64.4171 218.74 65.3862 218.755C67.0809 218.755 74.3697 218.725 76.3551 218.755C78.9711 218.79 81.993 219.348 84.8614 219.776L84.9382 219.746V219.788C88.4043 220.31 91.6511 220.666 93.7133 219.746L94.7114 222.898Z" fill="white"/>
</mask>
<g mask="url(#mask5_63_327)">
<path opacity="0.4" d="M94.7114 222.898H37.7447L38.9019 220.743C38.9019 220.743 42.0116 222.708 45.05 221.337C48.0883 219.966 51.1487 219.218 56.1614 218.624C57.2546 218.498 58.3562 218.482 59.4521 218.577C61.6341 218.758 63.7796 219.286 65.8195 220.144C65.8195 220.144 68.8085 218.731 76.3551 218.731C78.9711 218.767 81.993 219.325 84.8614 219.752L84.9382 219.722V219.764C88.4043 220.286 91.6511 220.643 93.7133 219.722L94.7114 222.898Z" fill="#92E3A9"/>
<path d="M38.9019 220.743L22.1305 220.892L21.2421 222.898H37.7447L38.9019 220.743Z" fill="#92E3A9"/>
<path d="M38.2164 222.014L38.9019 220.743C40.3847 221.442 41.9849 221.802 43.6021 221.8C46.0591 221.723 49.9421 218.428 57.4064 218.589" stroke="#263238" stroke-linecap="round" stroke-linejoin="round"/>
<path d="M62.4685 218.897C63.8451 219.443 65.803 220.156 65.803 220.156C65.803 220.156 68.3368 218.577 73.9035 218.743" stroke="#263238" stroke-linecap="round" stroke-linejoin="round"/>
<path d="M38.9019 220.743C38.9019 220.743 30.2255 220.91 26.7539 220.993" stroke="#263238" stroke-linecap="round" stroke-linejoin="round"/>
<path d="M64.6458 222.898C64.6931 222.511 64.8514 222.15 65.0983 221.866C65.3453 221.582 65.6685 221.388 66.0224 221.313C67.2509 221.094 68.0462 222.738 68.0462 222.738" stroke="#263238" stroke-linecap="round" stroke-linejoin="round"/>
<path d="M65.803 220.156L66.0224 221.313" stroke="#263238" stroke-linecap="round" stroke-linejoin="round"/>
<path d="M67.037 221.313C67.037 221.313 70.9419 219.384 74.7152 219.734" stroke="#263238" stroke-linecap="round" stroke-linejoin="round"/>
<path d="M65.4301 221.545C65.0845 221.254 59.2217 219.295 53.2217 220.743" stroke="#263238" stroke-linecap="round" stroke-linejoin="round"/>
<path d="M64.6458 222.346C64.6458 222.346 59.7098 221.331 55.4155 222.038" stroke="#263238" stroke-linecap="round" stroke-linejoin="round"/>
<path d="M67.5854 222.049C70.8618 221.061 74.2909 220.81 77.6603 221.313C80.9786 221.847 84.3314 222.09 87.6859 222.038" stroke="#263238" stroke-linecap="round" stroke-linejoin="round"/>
</g>
<path d="M94.7114 222.898H21.2202L22.1086 220.892C22.1086 220.892 29.0519 221.592 34.5528 219.734C36.9824 218.915 40.7228 218.547 44.4741 218.595C46.8379 218.63 52.5911 218.654 56.1614 218.636C57.4338 218.636 58.432 218.636 58.9036 218.601C59.0846 218.601 59.2656 218.601 59.4521 218.601C60.4703 218.587 61.4869 218.691 62.485 218.909C63.448 218.791 64.4171 218.74 65.3862 218.755C67.0809 218.755 74.3697 218.725 76.3551 218.755C78.9711 218.79 81.993 219.348 84.8614 219.776L84.9382 219.746V219.788C88.4043 220.31 91.6511 220.666 93.7133 219.746L94.7114 222.898Z" stroke="#263238" stroke-linecap="round" stroke-linejoin="round"/>
<path d="M75.0059 176.24V178.347C73.5208 179.442 71.983 180.45 70.399 181.368C66.8834 177.872 66.3844 171.229 66.3844 171.229L75.0059 176.24Z" fill="#263238"/>
<path d="M60.0224 164.1C55.8872 157.481 56.7318 145.104 62.0462 138.349C69.856 128.483 90.2361 135.689 90.2197 149.627C90.2037 151.565 90.0497 153.498 89.759 155.409C89.4902 157.25 88.0149 159.108 87.5652 160.942C87.1155 162.776 87.2965 165.691 87.1155 167.472C86.7096 171.526 81.5268 179.57 80.1228 180.442C78.1594 181.63 67.547 178.406 65.2326 171.039" fill="white"/>
<path d="M60.0224 164.1C55.8872 157.481 56.7318 145.104 62.0462 138.349C69.856 128.483 90.2361 135.689 90.2197 149.627C90.2037 151.565 90.0497 153.498 89.759 155.409C89.4902 157.25 88.0149 159.108 87.5652 160.942C87.1155 162.776 87.2965 165.691 87.1155 167.472C86.7096 171.526 81.5268 179.57 80.1228 180.442C78.1594 181.63 67.547 178.406 65.2326 171.039" stroke="#263238" stroke-linecap="round" stroke-linejoin="round"/>
<path d="M74.4849 155.92C74.4849 155.92 77.3752 154.78 79.9693 155.92" stroke="#263238" stroke-linecap="round" stroke-linejoin="round"/>
<path d="M85.887 155.92C85.887 155.92 87.993 154.78 89.4025 155.92" stroke="#263238" stroke-linecap="round" stroke-linejoin="round"/>
<path d="M77.1887 161.239C77.0351 162.04 76.5305 162.61 76.0918 162.509C75.653 162.408 75.3624 161.666 75.5159 160.859C75.6695 160.051 76.1741 159.487 76.6402 159.594C77.1064 159.701 77.3422 160.449 77.1887 161.239Z" fill="#263238"/>
<path d="M86.4902 161.239C86.3367 162.04 85.8321 162.61 85.3934 162.509C84.9546 162.408 84.6639 161.666 84.8175 160.859C84.9711 160.051 85.4701 159.487 85.9418 159.594C86.4135 159.701 86.6438 160.449 86.4902 161.239Z" fill="#263238"/>
<path d="M84.9711 157.137C84.9711 157.137 83.5945 159.719 83.4519 161.886C83.3093 164.052 85.6456 168.54 84.9711 169.947C84.2965 171.354 81.4281 171.283 80.4848 170.422" fill="white"/>
<path d="M84.9711 157.137C84.9711 157.137 83.5945 159.719 83.4519 161.886C83.3093 164.052 85.6456 168.54 84.9711 169.947C84.2965 171.354 81.4281 171.283 80.4848 170.422" stroke="#263238" stroke-linecap="round" stroke-linejoin="round"/>
<path d="M80.9949 173.26C79.0997 173.55 77.1673 173.251 75.4227 172.399" stroke="#263238" stroke-linecap="round" stroke-linejoin="round"/>
<path d="M64.1687 157.997C64.1687 157.997 65.5178 156.585 67.1083 157.137C68.6988 157.689 68.9895 162.378 68.9895 162.378L70.1467 161.043C70.1467 161.043 69.7134 158.389 71.4465 154.667C73.1796 150.945 72.313 146.564 72.313 146.564C72.313 146.564 75.3021 147.657 76.3386 150.162C76.3386 150.162 77.4684 147.502 76.3386 145.466C76.3386 145.466 80.9949 146.719 82.1521 150.476C82.1521 150.476 83.068 147.657 82.7554 146.25C82.7554 146.25 85.9089 147.342 87.0661 150.631C87.0661 150.631 88.1192 148.126 87.6639 146.089C87.6639 146.089 88.9363 147.277 89.4244 150.791C90.3745 148.648 90.6536 146.229 90.2197 143.899C90.2197 143.899 91.865 145.935 92.1283 147.657C92.1283 147.657 93.4665 142.646 85.6402 135.915C77.8139 129.183 64.4155 130.709 62.3314 135.915C62.3314 135.915 63.0224 132.08 64.4155 130.709C64.4155 130.709 60.5764 132.561 60.6586 136.384C60.6586 136.384 57.2693 135.915 55.5362 138.265C56.5984 138.178 57.6664 138.23 58.7172 138.42C58.7172 138.42 54.0883 141.388 54.379 148.44C54.6697 155.492 58.7172 165.655 58.7172 165.655L61.8872 164.652C61.8872 164.652 62.3917 159.856 64.1687 157.997Z" fill="#263238"/>
<path d="M67.6842 159.719C67.6842 159.719 65.2272 155.023 63.9274 154.709C62.6275 154.394 60.165 156.276 60.7409 158.781C61.3168 161.286 61.7555 165.513 62.4795 165.982C63.2034 166.451 64.3606 169.27 65.5178 168.487C65.6701 168.402 65.8018 168.28 65.9025 168.13C66.0033 167.98 66.0702 167.807 66.0979 167.624C66.1256 167.441 66.1134 167.253 66.0622 167.076C66.011 166.9 65.9222 166.738 65.803 166.605" fill="white"/>
<path d="M67.6842 159.719C67.6842 159.719 65.2272 155.023 63.9274 154.709C62.6275 154.394 60.165 156.276 60.7409 158.781C61.3168 161.286 61.7555 165.513 62.4795 165.982C63.2034 166.451 64.3606 169.27 65.5178 168.487C65.6701 168.402 65.8018 168.28 65.9025 168.13C66.0033 167.98 66.0702 167.807 66.0979 167.624C66.1256 167.441 66.1134 167.253 66.0622 167.076C66.011 166.9 65.9222 166.738 65.803 166.605" stroke="#263238" stroke-linecap="round" stroke-linejoin="round"/>
<path d="M95.1666 196.025C94.9181 197.182 94.5993 198.321 94.2123 199.432" stroke="#263238" stroke-linecap="round" stroke-linejoin="round"/>
<path d="M93.3294 201.7C92.4553 203.857 91.1737 205.792 89.567 207.381" stroke="#263238" stroke-linecap="round" stroke-linejoin="round"/>
<path d="M108.922 208.093C108.17 207.987 106.64 209.013 105.236 210.337" stroke="#263238" stroke-linecap="round" stroke-linejoin="round"/>
<path d="M104.205 211.388C103.108 212.617 102.258 213.917 102.258 214.748" stroke="#263238" stroke-linecap="round" stroke-linejoin="round"/>
<path d="M24.4615 204.894C24.4615 204.894 27.5821 205.832 27.6095 208.729" stroke="#263238" stroke-linecap="round" stroke-linejoin="round"/>
<path d="M36.1542 189.08C36.6723 189.707 37.1436 190.378 37.5637 191.086" stroke="#263238" stroke-linecap="round" stroke-linejoin="round"/>
<path d="M38.7977 193.532C39.4116 194.974 39.7421 196.539 39.7685 198.126C39.7685 203.012 38.4687 205.844 38.4687 205.844" stroke="#263238" stroke-linecap="round" stroke-linejoin="round"/>
<path d="M55.1029 184.289C55.9304 185.122 56.816 185.884 57.7519 186.569" stroke="#263238" stroke-linecap="round" stroke-linejoin="round"/>
<path d="M60.5051 188.349C63.3076 189.881 66.9328 191.033 70.6952 190.018" stroke="#263238" stroke-linecap="round" stroke-linejoin="round"/>
<g opacity="0.2">
<path d="M66.3844 136.164C67.3641 136.002 68.3551 135.932 69.346 135.956" stroke="white" stroke-linecap="round" stroke-linejoin="round"/>
<path d="M70.7884 136.039C73.4702 136.312 76.7719 137.328 78.823 140.391" stroke="white" stroke-linecap="round" stroke-linejoin="round"/>
<path d="M72.8944 133.784C72.8944 133.784 77.9236 133.843 81.5269 136.568" stroke="white" stroke-linecap="round" stroke-linejoin="round"/>
<path d="M82.9418 137.891C83.5868 138.621 84.1035 139.472 84.4665 140.402" stroke="white" stroke-linecap="round" stroke-linejoin="round"/>
<path d="M65.0846 138.485C65.0846 138.485 70.0205 140.367 71.7372 143.733" stroke="white" stroke-linecap="round" stroke-linejoin="round"/>
<path d="M62.6934 140.391C63.7629 141.995 64.5324 143.81 64.9584 145.733" stroke="white" stroke-linecap="round" stroke-linejoin="round"/>
<path d="M65.2655 148.375C65.2721 149.084 65.2115 149.792 65.0846 150.488" stroke="white" stroke-linecap="round" stroke-linejoin="round"/>
<path d="M59.3698 142.581C59.1158 143.279 58.9051 143.995 58.7391 144.724" stroke="white" stroke-linecap="round" stroke-linejoin="round"/>
<path d="M58.3497 146.796C58.0617 148.647 58.0395 150.535 58.2839 152.394" stroke="white" stroke-linecap="round" stroke-linejoin="round"/>
</g>
<path d="M124.097 233.453H193.31V222.898H0.5V233.453H39.4833" fill="white"/>
<path d="M124.097 233.453H193.31V222.898H0.5V233.453H39.4833" stroke="#263238" stroke-linecap="round" stroke-linejoin="round"/>
<path d="M119.128 233.453H109.3" stroke="#263238" stroke-linecap="round" stroke-linejoin="round"/>
</svg>
