<svg width="100" height="100" viewBox="0 0 100 100" fill="none" xmlns="http://www.w3.org/2000/svg">
<circle cx="50" cy="50" r="50" fill="#E0E0E0" fill-opacity="0.76"/>
<path d="M75.1668 75.1667H78.2918L80.3752 73.0833H86.6252L88.7085 75.1667H91.8335C92.386 75.1667 92.9159 75.3862 93.3066 75.7769C93.6973 76.1676 93.9168 76.6975 93.9168 77.25V89.75C93.9168 90.3025 93.6973 90.8324 93.3066 91.2231C92.9159 91.6138 92.386 91.8333 91.8335 91.8333H75.1668C74.6143 91.8333 74.0844 91.6138 73.6937 91.2231C73.303 90.8324 73.0835 90.3025 73.0835 89.75V77.25C73.0835 76.6975 73.303 76.1676 73.6937 75.7769C74.0844 75.3862 74.6143 75.1667 75.1668 75.1667ZM83.5002 78.2917C82.1188 78.2917 80.7941 78.8404 79.8173 79.8171C78.8406 80.7939 78.2918 82.1187 78.2918 83.5C78.2918 84.8813 78.8406 86.2061 79.8173 87.1828C80.7941 88.1596 82.1188 88.7083 83.5002 88.7083C84.8815 88.7083 86.2063 88.1596 87.183 87.1828C88.1598 86.2061 88.7085 84.8813 88.7085 83.5C88.7085 82.1187 88.1598 80.7939 87.183 79.8171C86.2063 78.8404 84.8815 78.2917 83.5002 78.2917ZM83.5002 80.375C84.329 80.375 85.1238 80.7042 85.7099 81.2903C86.2959 81.8763 86.6252 82.6712 86.6252 83.5C86.6252 84.3288 86.2959 85.1237 85.7099 85.7097C85.1238 86.2958 84.329 86.625 83.5002 86.625C82.6714 86.625 81.8765 86.2958 81.2905 85.7097C80.7044 85.1237 80.3752 84.3288 80.3752 83.5C80.3752 82.6712 80.7044 81.8763 81.2905 81.2903C81.8765 80.7042 82.6714 80.375 83.5002 80.375Z" fill="#727272"/>
<path fill-rule="evenodd" clip-rule="evenodd" d="M40 37.5C40 34.8478 41.0536 32.3043 42.9289 30.4289C44.8043 28.5536 47.3478 27.5 50 27.5C52.6522 27.5 55.1957 28.5536 57.0711 30.4289C58.9464 32.3043 60 34.8478 60 37.5C60 40.1522 58.9464 42.6957 57.0711 44.5711C55.1957 46.4464 52.6522 47.5 50 47.5C47.3478 47.5 44.8043 46.4464 42.9289 44.5711C41.0536 42.6957 40 40.1522 40 37.5ZM40 52.5C36.6848 52.5 33.5054 53.817 31.1612 56.1612C28.817 58.5054 27.5 61.6848 27.5 65C27.5 66.9891 28.2902 68.8968 29.6967 70.3033C31.1032 71.7098 33.0109 72.5 35 72.5H65C66.9891 72.5 68.8968 71.7098 70.3033 70.3033C71.7098 68.8968 72.5 66.9891 72.5 65C72.5 61.6848 71.183 58.5054 68.8388 56.1612C66.4946 53.817 63.3152 52.5 60 52.5H40Z" fill="#939393"/>
</svg>
