<svg width="25" height="25" viewBox="0 0 25 25" fill="none" xmlns="http://www.w3.org/2000/svg">
<path d="M18.2227 11.7188C18.2618 11.7773 18.3594 11.7383 18.3594 11.6797C18.4766 10.625 18.7891 7.71484 20.8594 7.08984C21.5235 6.89453 22.1875 7.36328 22.2657 7.96875C22.4024 8.94531 21.2891 11.4648 21.3868 13.7695C21.4063 14.1406 22.0313 18.0664 20.3711 20.3906C18.711 22.7148 14.7657 25.0781 10.8399 21.4844C8.80864 19.6289 8.80864 18.8867 6.2891 16.2891C5.78129 15.7812 3.75004 13.5547 3.20317 12.8711C2.48051 11.9531 3.63285 10.7422 4.51176 11.3672C4.92192 11.6602 8.55473 14.707 8.69145 14.8438C8.96489 15.0781 9.29692 14.7461 9.1016 14.5117C6.87504 11.582 4.7266 8.94531 4.14067 7.92969C3.55473 6.91406 4.96098 5.82031 5.78129 6.69922C6.3477 7.28516 10.5469 12.1875 10.7422 12.4023C10.9375 12.6172 11.2696 12.3438 11.1524 12.0703C11.0157 11.8164 7.61723 5.89844 7.01176 4.55078C6.48442 3.35938 8.24223 2.24609 9.06254 3.47656C9.7266 4.45313 13.4375 10.625 13.5743 10.8398C13.75 11.1523 14.1407 10.957 13.9844 10.6055C13.8672 10.3516 11.5821 4.10156 11.4063 3.45703C11.0938 2.32422 12.7149 1.38672 13.4766 2.67578C14.5118 4.45313 16.5625 9.88281 18.2227 11.7188Z" fill="#FFCA28"/>
<mask id="mask0_148_333" style="mask-type:luminance" maskUnits="userSpaceOnUse" x="2" y="2" width="21" height="22">
<path d="M18.2227 11.7188C18.2618 11.7773 18.3594 11.7383 18.3594 11.6797C18.4766 10.625 18.7891 7.71484 20.8594 7.08984C21.5235 6.89453 22.1875 7.36328 22.2657 7.96875C22.4024 8.94531 21.2891 11.4648 21.3868 13.7695C21.4063 14.1406 22.0313 18.0664 20.3711 20.3906C18.711 22.7148 14.7657 25.0781 10.8399 21.4844C8.80864 19.6289 8.80864 18.8867 6.2891 16.2891C5.78129 15.7812 3.75004 13.5547 3.20317 12.8711C2.48051 11.9531 3.63285 10.7422 4.51176 11.3672C4.92192 11.6602 8.55473 14.707 8.69145 14.8438C8.96489 15.0781 9.29692 14.7461 9.1016 14.5117C6.87504 11.582 4.7266 8.94531 4.14067 7.92969C3.55473 6.91406 4.96098 5.82031 5.78129 6.69922C6.3477 7.28516 10.5469 12.1875 10.7422 12.4023C10.9375 12.6172 11.2696 12.3438 11.1524 12.0703C11.0157 11.8164 7.61723 5.89844 7.01176 4.55078C6.48442 3.35938 8.24223 2.24609 9.06254 3.47656C9.7266 4.45313 13.4375 10.625 13.5743 10.8398C13.75 11.1523 14.1407 10.957 13.9844 10.6055C13.8672 10.3516 11.5821 4.10156 11.4063 3.45703C11.0938 2.32422 12.7149 1.38672 13.4766 2.67578C14.5118 4.45313 16.5625 9.88281 18.2227 11.7188Z" fill="white"/>
</mask>
<g mask="url(#mask0_148_333)">
<path d="M17.8126 11.7578C15.3907 13.7305 14.3165 16.543 16.3087 19.4727C16.4844 19.7266 16.8555 19.4922 16.6993 19.1992C15.879 17.7344 15.2735 15.0977 18.1055 12.3438C18.4376 12.5 18.8282 12.168 18.8477 11.875C19.0626 10.0391 19.2774 8.51563 20.6446 7.65625C21.1719 7.32422 21.8555 7.55859 21.8946 8.35938C21.8946 8.35938 22.3243 8.39844 22.5001 8.41797C22.5977 8.00781 22.793 7.26563 22.793 7.24609C22.793 7.22656 20.4883 6.36719 20.4883 6.36719L18.4766 8.35938L17.8126 11.7578ZM13.9063 10.957C14.1797 10.8203 14.4141 10.6055 14.2969 10.3125C14.1797 10 12.0118 4.10156 11.8751 3.65234C11.6016 2.83203 12.2852 2.1875 12.8907 2.46094C13.2227 2.61719 13.379 2.08984 13.2032 2.01172C13.0274 1.93359 12.6172 1.5625 11.7969 1.97266C10.3321 2.71484 11.1915 4.35547 11.5821 5.3125C11.9727 6.26953 13.9063 10.957 13.9063 10.957ZM11.0743 12.4219C11.4063 12.1875 11.6602 11.9922 11.3672 11.5234C11.1719 11.2109 7.87115 5.21484 7.53912 4.62891C7.05084 3.78906 8.06647 3.04688 8.63287 3.57422C8.88678 3.80859 9.2774 3.30078 9.08209 3.10547C8.88678 2.91016 8.20318 2.34375 7.34381 2.91016C6.48443 3.47656 6.4649 4.16016 6.58209 4.45313C6.67975 4.74609 11.0743 12.4219 11.0743 12.4219ZM9.12115 14.8242C9.35553 14.4727 9.51178 14.2969 9.17975 13.8477C8.84772 13.3984 4.9024 8.24219 4.68756 7.94922C4.14068 7.22656 4.94147 6.60156 5.33209 6.81641C5.70318 7.03125 5.91803 6.42578 5.60553 6.26953C5.29303 6.11328 4.78522 5.9375 4.31647 6.26953C3.84772 6.60156 3.57428 7.28516 3.6524 7.67578C3.711 8.06641 9.12115 14.8242 9.12115 14.8242Z" fill="#FAA700"/>
<path d="M18.125 22.1875C14.9609 23.6914 12.5976 22.5195 11.0742 21.0352C9.33593 19.3359 8.51562 17.7734 7.36327 16.7188C6.97265 16.3477 3.88671 13.0664 3.51562 12.5C3.22265 12.0313 3.80859 11.2305 4.45312 11.6797C4.86327 11.9531 5.05859 11.3672 4.78515 11.2109C4.51171 11.0547 3.90624 10.7227 3.26171 11.2109C2.61718 11.6797 2.59765 12.5195 2.7539 12.793C2.91015 13.0664 12.4023 23.9648 12.4023 23.9648L16.2695 23.8672L18.3398 22.5977L18.125 22.1875Z" fill="#FAA700"/>
</g>
<mask id="mask1_148_333" style="mask-type:luminance" maskUnits="userSpaceOnUse" x="2" y="2" width="21" height="22">
<path d="M18.2227 11.7188C18.2618 11.7773 18.3594 11.7383 18.3594 11.6797C18.4766 10.625 18.7891 7.71484 20.8594 7.08984C21.5235 6.89453 22.1875 7.36328 22.2657 7.96875C22.4024 8.94531 21.2891 11.4648 21.3868 13.7695C21.4063 14.1406 22.0313 18.0664 20.3711 20.3906C18.711 22.7148 14.7657 25.0781 10.8399 21.4844C8.80864 19.6289 8.80864 18.8867 6.2891 16.2891C5.78129 15.7812 3.75004 13.5547 3.20317 12.8711C2.48051 11.9531 3.63285 10.7422 4.51176 11.3672C4.92192 11.6602 8.55473 14.707 8.69145 14.8438C8.96489 15.0781 9.29692 14.7461 9.1016 14.5117C6.87504 11.582 4.7266 8.94531 4.14067 7.92969C3.55473 6.91406 4.96098 5.82031 5.78129 6.69922C6.3477 7.28516 10.5469 12.1875 10.7422 12.4023C10.9375 12.6172 11.2696 12.3438 11.1524 12.0703C11.0157 11.8164 7.61723 5.89844 7.01176 4.55078C6.48442 3.35938 8.24223 2.24609 9.06254 3.47656C9.7266 4.45313 13.4375 10.625 13.5743 10.8398C13.75 11.1523 14.1407 10.957 13.9844 10.6055C13.8672 10.3516 11.5821 4.10156 11.4063 3.45703C11.0938 2.32422 12.7149 1.38672 13.4766 2.67578C14.5118 4.45313 16.5625 9.88281 18.2227 11.7188Z" fill="white"/>
</mask>
<g mask="url(#mask1_148_333)">
<path d="M21.7773 7.03125C21.8749 7.28516 21.9921 7.73438 21.8749 8.33984C21.4257 10.6055 20.6835 11.9336 20.9179 14.375C21.3476 19.0625 19.707 22.6172 14.0624 23.3203C13.496 23.3984 13.6523 23.8281 13.9452 23.7891C14.082 23.7695 18.1054 23.0469 18.1054 23.0469C18.1054 23.0469 21.8359 19.8633 21.8359 19.8242C21.8359 19.7852 22.7734 7.63672 22.7734 7.63672L21.7773 7.03125ZM12.0117 2.05078C12.2656 2.08984 12.8124 2.30469 13.2031 3.06641C13.5937 3.82812 15.5077 8.22266 15.7617 8.69141C16.0156 9.16016 17.0507 11.4844 17.8906 12.1875C18.164 12.4023 18.3007 12.0312 18.3007 12.0312L18.3202 11.4258L13.789 1.11328L12.2851 1.17188L12.0117 2.05078ZM13.9062 10.957C13.5351 11.1328 13.2617 11.2891 12.9882 10.8594C12.8124 10.5469 10.9179 7.30469 8.53509 3.51562C8.33978 3.22266 7.89056 2.96875 7.539 3.10547C7.18743 3.26172 7.10931 2.8125 7.28509 2.71484C7.46087 2.61719 8.55462 2.01172 9.29681 3.26172C10.039 4.51172 13.9062 10.957 13.9062 10.957ZM11.0742 12.4219C10.7812 12.6367 10.4882 12.9102 10.1171 12.4609C9.76556 12.0312 5.76165 7.26562 5.52728 6.97266C5.2929 6.67969 4.80462 6.42578 4.43353 6.66016C4.17962 6.81641 3.94525 6.34766 4.1015 6.23047C4.25775 6.11328 5.13665 5.33203 5.72259 5.99609C6.30853 6.66016 11.0742 12.4219 11.0742 12.4219ZM9.12103 14.8242C8.86712 15.0977 8.59368 15.2539 8.22259 14.9805C7.8515 14.707 4.53119 11.9141 4.31634 11.7188C4.1015 11.5234 3.4765 11.2305 3.00775 11.6992C2.83197 11.875 2.51947 11.582 2.69525 11.4062C2.87103 11.2109 3.82806 10.2344 4.58978 10.8789C5.3515 11.5234 9.12103 14.8242 9.12103 14.8242Z" fill="#B55E19"/>
</g>
<path d="M2.07023 15.8789C2.6757 17.6758 3.59367 18.7891 5.09758 19.8047C5.37102 20 5.21477 20.3906 4.90227 20.2539C3.49602 19.6875 1.93352 18.4375 1.56242 15.957C1.50383 15.625 1.97258 15.5664 2.07023 15.8789ZM3.24211 14.8047C3.84758 16.6016 4.76555 17.7148 6.26945 18.7305C6.54289 18.9258 6.38664 19.3164 6.07414 19.1797C4.66789 18.6133 3.10539 17.3633 2.7343 14.8828C2.69523 14.5508 3.14445 14.4922 3.24211 14.8047ZM18.2616 6.75781C17.7929 4.92187 16.9335 3.75 15.5077 2.65625C15.2343 2.46094 15.4296 2.07031 15.7421 2.20703C17.1093 2.85156 18.5937 4.21875 18.789 6.71875C18.8085 7.05078 18.3398 7.08984 18.2616 6.75781ZM19.5312 5.82031C19.0624 3.98437 18.203 2.8125 16.7773 1.71875C16.5038 1.52344 16.6991 1.13281 17.0116 1.26953C18.3788 1.91406 19.8632 3.28125 20.0585 5.78125C20.078 6.09375 19.6288 6.13281 19.5312 5.82031Z" fill="#B0BEC5"/>
</svg>
